<svg width="28" height="27" viewBox="0 0 28 27" fill="none" xmlns="http://www.w3.org/2000/svg">
<path d="M4.99999 24.3291C4.99999 24.3291 10.5833 17.6667 14 14.25C17.4167 10.8333 19.25 11.25 21.1699 12.5819C23.0897 13.9138 25.8859 17.25 25.8859 17.25M11.3333 8.83331C11.3333 9.93788 10.4379 10.8333 9.3333 10.8333C8.22873 10.8333 7.3333 9.93788 7.3333 8.83331C7.3333 7.72874 8.22873 6.83331 9.3333 6.83331C10.4379 6.83331 11.3333 7.72874 11.3333 8.83331ZM2 21C2 23.4853 4.01471 25.5 6.5 25.5H21.5C23.9853 25.5 26 23.4853 26 21V6C26 3.51472 23.9853 1.5 21.5 1.5H6.50001C4.01473 1.5 2.00001 3.51472 2.00001 6L2 21Z" stroke="currentColor" stroke-width="2.5" stroke-linejoin="round"/>
</svg>
