<svg width="73" height="33" viewBox="0 0 73 33" fill="none" xmlns="http://www.w3.org/2000/svg">
<path d="M36.5 0.5C46.5249 0.5 55.5768 2.33765 62.1035 5.28809C68.6764 8.25938 72.5 12.2617 72.5 16.5C72.5 20.7382 68.6764 24.7406 62.1035 27.7119C55.5768 30.6624 46.5249 32.5 36.5 32.5C26.4751 32.5 17.4232 30.6624 10.8965 27.7119C4.32362 24.7406 0.5 20.7382 0.5 16.5C0.5 12.2617 4.32362 8.25938 10.8965 5.28809C17.4232 2.33765 26.4751 0.5 36.5 0.5Z" fill="#FFE30F" stroke="black"/>
<path d="M17.0664 14.0859C16.7409 14.0859 16.4609 14.2031 16.2266 14.4375C16.0052 14.6589 15.8945 14.9258 15.8945 15.2383C15.8945 15.5638 16.0052 15.8438 16.2266 16.0781C16.4609 16.2995 16.7409 16.4102 17.0664 16.4102C17.3789 16.4102 17.6458 16.2995 17.8672 16.0781C18.1016 15.8438 18.2188 15.5638 18.2188 15.2383C18.2188 14.9258 18.1016 14.6589 17.8672 14.4375C17.6458 14.2031 17.3789 14.0859 17.0664 14.0859ZM14.7812 15.2383C14.7812 14.6133 15.0026 14.0794 15.4453 13.6367C15.888 13.194 16.4284 12.9727 17.0664 12.9727C17.6784 12.9727 18.2057 13.194 18.6484 13.6367C19.1042 14.0794 19.332 14.6133 19.332 15.2383C19.332 15.8633 19.1042 16.3971 18.6484 16.8398C18.2057 17.2826 17.6784 17.5039 17.0664 17.5039C16.4284 17.5039 15.888 17.2826 15.4453 16.8398C15.0026 16.3971 14.7812 15.8633 14.7812 15.2383ZM22.8281 21.1758H14.6055V20.1406H16.4805V18.0312H17.6133V20.1406H21.6953V13.1484H22.8281V14.5352H23.707V15.5898H22.8281V21.1758ZM34.2812 13.1484V17.8555H33.1484V14.1836H30.6094V13.1484H34.2812ZM37.875 21.3516V15.7656H36.8203V21.3516H35.6875V13.1484H36.8203V14.7109H37.875V13.1484H39.0078V21.3516H37.875ZM47.8203 14.1836H46.9414L48.0156 17.1523H46.8438L46.1016 14.8672L45.2812 17.1523H44.1289L43.3672 14.8672L42.6055 17.1523H41.4336L42.5078 14.1836H41.6094V13.1484H47.8203V14.1836ZM45.2422 14.1836H44.2266L44.7344 15.8438L45.2422 14.1836ZM47.7422 14.5352H48.875V13.1484H50.0078V17.1523H48.875V15.5898H47.7422V14.5352ZM41.707 21.1758V18.0312H42.8398V20.1406H50.0078V21.1758H41.707ZM53.7617 14.1836V16.8203H57.3359V17.8555H52.6094V13.1484H57.3359V14.1836H53.7617ZM61.7109 15.5898H60.832V21.3516H59.6992V13.1484H60.832V14.5352H61.7109V15.5898Z" fill="#FF0000"/>
</svg>
