<svg width="41" height="42" viewBox="0 0 41 42" fill="none" xmlns="http://www.w3.org/2000/svg">
<path d="M14.1872 5.88013C13.4502 5.72881 11.9639 5.11894 11.0792 4.90899C9.83003 4.61253 8.38588 4.17694 7.25785 4.68757C6.39664 5.07742 5.6752 5.92074 4.51802 8.03302C3.80217 9.33969 4.12137 10.6556 4.82721 11.8701C5.28756 12.6622 6.1272 12.9955 7.11931 14.1946C7.8955 15.1328 8.76714 15.5293 9.6315 15.7815C10.6516 16.0792 11.6285 17.1002 12.524 17.452C14.1906 18.1067 16.5835 18.1719 18.1448 18.9675C18.4655 19.1552 18.6168 19.2632 18.8028 19.3622C18.9889 19.4611 19.8846 19.4845 20.5003 19.5081" stroke="#31FF29" stroke-width="2" stroke-linecap="round"/>
<path d="M14.2207 5.84425C15.4708 3.86655 16.8822 2.11665 17.7004 1.50002C18.6109 0.813807 19.8454 1.07958 21.1606 1.00263C22.6488 0.915553 23.7298 3.01368 24.1537 4.23438C24.5193 5.2875 24.7017 7.66793 24.7941 9.93528C24.873 11.8743 23.3267 13.6697 22.4977 14.6605C21.4057 15.9658 21.3093 17.345 21.0644 18.3494C20.9759 18.6034 20.5878 19.2862 20.4081 19.5085" stroke="#31FF29" stroke-width="2" stroke-linecap="round"/>
<path d="M5.88013 26.1517C5.72881 26.8886 5.11894 28.375 4.90899 29.2597C4.61253 30.5088 4.17694 31.953 4.68757 33.081C5.07742 33.9422 5.92074 34.6637 8.03302 35.8209C9.33969 36.5367 10.6556 36.2175 11.8701 35.5117C12.6622 35.0513 12.9955 34.2117 14.1946 33.2196C15.1328 32.4434 15.5293 31.5717 15.7815 30.7074C16.0792 29.6873 17.1002 28.7104 17.452 27.8149C18.1067 26.1482 18.1719 23.7554 18.9675 22.194C19.1552 21.8734 19.2632 21.7221 19.3622 21.536C19.4611 21.35 19.4845 20.4543 19.5081 19.8385" stroke="#31FF29" stroke-width="2" stroke-linecap="round"/>
<path d="M5.84425 26.1182C3.86655 24.868 2.11665 23.4567 1.50002 22.6385C0.813807 21.7279 1.07958 20.4935 1.00263 19.1783C0.915553 17.69 3.01368 16.609 4.23438 16.1852C5.2875 15.8195 7.66793 15.6372 9.93528 15.5448C11.8743 15.4658 13.6697 17.0122 14.6605 17.8411C15.9658 18.9331 17.345 19.0296 18.3494 19.2744C18.6034 19.363 19.2862 19.751 19.5085 19.9308" stroke="#31FF29" stroke-width="2" stroke-linecap="round"/>
<path d="M25.6709 34.1945C26.4015 34.374 27.8634 35.0404 28.7393 35.2842C29.9762 35.6283 31.4026 36.119 32.5494 35.652C33.4249 35.2955 34.1782 34.4804 35.4155 32.4141C36.181 31.1358 35.9125 29.8086 35.2537 28.568C34.8241 27.7588 33.9979 27.3935 33.0525 26.1572C32.3129 25.19 31.4571 24.7603 30.603 24.4751C29.5951 24.1386 28.6581 23.0808 27.7768 22.695C26.1364 21.9768 23.7479 21.8199 22.2182 20.965C21.905 20.7651 21.7579 20.6513 21.5758 20.5454C21.3937 20.4394 20.4995 20.3816 19.8851 20.3344" stroke="#31FF29" stroke-width="2" stroke-linecap="round"/>
<path d="M25.636 34.2296C24.311 36.1579 22.8335 37.8524 21.9922 38.4372C21.0561 39.088 19.8327 38.775 18.5155 38.8015C17.025 38.8314 16.0253 36.6934 15.6486 35.4573C15.3236 34.3909 15.2327 32.0053 15.2274 29.736C15.2228 27.7954 16.8369 26.0606 17.7033 25.1023C18.8445 23.8399 18.9938 22.4654 19.277 21.4712C19.3752 21.2208 19.7892 20.5533 19.9773 20.3381" stroke="#31FF29" stroke-width="2" stroke-linecap="round"/>
<path d="M35.1199 13.7175C35.2712 12.9805 35.8811 11.4942 36.091 10.6095C36.3875 9.3603 36.8231 7.91615 36.3124 6.78812C35.9226 5.92691 35.0793 5.20547 32.967 4.04829C31.6603 3.33245 30.3444 3.65164 29.1299 4.35748C28.3378 4.81783 28.0045 5.65747 26.8054 6.64958C25.8672 7.42578 25.4707 8.29741 25.2185 9.16178C24.9208 10.1818 23.8998 11.1588 23.548 12.0542C22.8933 13.7209 22.8281 16.1137 22.0325 17.6751C21.8448 17.9957 21.7368 18.1471 21.6378 18.3331C21.5389 18.5192 21.5155 19.4148 21.4919 20.0306" stroke="#31FF29" stroke-width="2" stroke-linecap="round"/>
<path d="M35.1558 13.751C37.1334 15.0011 38.8834 16.4125 39.5 17.2307C40.1862 18.1412 39.9204 19.3756 39.9974 20.6909C40.0844 22.1791 37.9863 23.2601 36.7656 23.6839C35.7125 24.0496 33.3321 24.232 31.0647 24.3243C29.1257 24.4033 27.3303 22.8569 26.3395 22.028C25.0342 20.936 23.655 20.8396 22.6506 20.5947C22.3966 20.5062 21.7138 20.1181 21.4915 19.9384" stroke="#31FF29" stroke-width="2" stroke-linecap="round"/>
<path d="M15 32C12.7417 36.2757 11.8808 37.6846 10.7509 38.8231C9.3139 39.8075 8.50095 40.2264 7.95657 40.5344C7.66362 40.6896 7.33676 40.8425 7 41" stroke="#31FF29" stroke-width="2" stroke-linecap="round"/>
</svg>
