<svg width="42" height="43" viewBox="0 0 42 43" fill="none" xmlns="http://www.w3.org/2000/svg">
<path d="M8.6283 7.11353C10.2118 4.71911 14.3447 5.18894 18.2468 8.04375C20.3303 3.76089 23.8722 1.54939 26.5349 3.0532C29.435 4.6911 30.1928 10.1152 28.2273 15.1678C26.7251 19.0292 24.0664 21.5534 21.6022 21.7993C19.32 22.2434 16.0579 21.0725 13.0986 18.5021C8.88865 14.8454 6.88712 9.74663 8.6283 7.11353Z" fill="#BF59FF"/>
<path d="M38.8952 11.8095C40.7979 13.8524 39.5017 17.6039 36.0351 20.6821C39.0105 22.4253 40.5135 24.9945 39.5485 27.2658C38.2458 30.331 32.9413 31.6919 27.7003 30.3051C22.4591 28.9182 19.266 25.3084 20.5685 22.243C20.7938 21.7128 21.141 21.2356 21.5848 20.8128C21.7688 18.5192 23.659 15.7054 26.776 13.4851C31.3178 10.2499 36.7436 9.49966 38.8952 11.8095Z" fill="#BF59FF"/>
<path d="M33.2712 35.6516C31.7193 38.0668 27.5806 37.6511 23.6413 34.8477C21.6141 39.1576 18.1016 41.4154 15.4193 39.9466C12.4981 38.3469 11.6691 32.9332 13.5682 27.8552C15.0196 23.9745 17.6449 21.4156 20.1057 21.1374C22.3819 20.6635 25.6592 21.7915 28.6518 24.3227C32.9093 27.9238 34.9775 32.9959 33.2712 35.6516Z" fill="#BF59FF"/>
<path d="M2.94483 31.3526C0.960872 29.2778 2.33529 25.3519 5.98413 22.1797C2.26969 19.1985 0.898367 15.2546 2.95507 12.9914C5.1951 10.5266 10.6522 10.99 15.1434 14.0268C18.5757 16.3476 20.4477 19.4997 20.1413 21.9571C20.0683 24.2809 18.2034 27.2024 15.041 29.5182C10.5421 32.8127 5.12648 33.6341 2.94483 31.3526Z" fill="#BF59FF"/>
</svg>
