<svg width="46" height="46" viewBox="0 0 46 46" fill="none" xmlns="http://www.w3.org/2000/svg">
<circle cx="23" cy="23" r="23" fill="white"/>
<path d="M11 8C11.025 8.03895 12.05 9.0779 12.4334 9.70944C12.8169 10.341 13.5581 11.5639 13.9524 12.2407C14.5048 13.1887 16.0833 15.3159 16.5282 16.7419C16.7324 17.3965 17.9676 23.0323 17.9948 23.237M17.9676 23.0323C18.0897 23.6904 17.8211 23.8888 17.9068 26.2807C17.9925 28.6726 17.4703 31.7419 16.955 33.416C16.3595 35.3502 13.9892 38.5161 12.9946 39" stroke="#FF6969" stroke-linecap="round"/>
<path d="M34 9C33.975 9.03895 32.95 10.0779 32.5666 10.7094C32.1831 11.341 30.8943 13.8233 30.5 14.5C29.9476 15.448 28.4449 21.3332 28 22.7593M28 23.5C27.878 24.1581 27.5857 25.6081 27.5 28C27.4143 30.3919 28.9846 32.826 29.5 34.5C30.0955 36.4343 32.0054 39.5161 33 40" stroke="#FF6969" stroke-linecap="round"/>
<path d="M10.5703 10.5938C11.1735 10.729 12.8884 11.3866 13.0821 11.4531C13.2758 11.5196 13.636 11.4288 13.6968 11.4531" stroke="#FF5858" stroke-linecap="round"/>
<path d="M14.0588 8.26855C13.9986 8.71405 13.9925 9.77512 13.8941 10.0633C13.8607 10.2217 13.7231 10.9658 13.7231 11.1543" stroke="#FF5858" stroke-linecap="round"/>
<path d="M12.2966 6.38276C14.4316 5.30371 15.7966 5.19927 18.2966 4.60171C18.2966 4.60171 18.7304 4.60006 19.1489 4.45306C19.5928 4.25044 20.2867 3.71822 22.9349 4.18906C23.6024 4.30775 24.7878 4.19492 26.3828 4.39761C27.4608 4.53461 28.6687 4.55486 30.3992 5.28625C31.1883 5.61976 31.8275 5.86317 32.3916 6.38276C32.8275 6.78426 34.3011 8.18968 35.5083 9.39218C36.8107 10.6894 37.7478 11.5376 38.1108 12.046C38.5367 12.6427 38.9426 13.384 39.3433 14.1504C39.9515 15.3135 40.6753 16.2334 41.1347 17.1729C41.4287 17.7741 41.9478 18.3821 41.8337 20.2115C41.7884 20.9373 42.4653 22.179 42.2965 23.6887C42.166 24.8568 41.9052 26.7445 41.7966 27.6887C41.6704 28.7855 40.614 32.0228 40.2966 32.6887C39.3433 34.6887 36.9911 36.7534 36.7966 37.4819C34.2966 39.9819 30.0694 41.7847 28.2966 41.9765C26.5216 42.1686 22.9345 41.969 22.3547 41.9765C21.0496 41.9933 20.034 41.8601 19.1175 41.7715C17.1912 41.5853 15.8005 41.4276 15.4085 41.3483C14.9629 41.2581 14.4096 41.1525 13.8591 40.8893C12.951 40.4551 12.1334 40.0956 10.3805 38.9428C9.01799 38.0467 8.67247 37.8045 8.39692 37.4819C8.06713 37.0959 7.49095 36.3739 6.58098 34.9642C6.04469 34.1334 5.60032 33.2066 5.13435 32.3521C4.48546 31.1621 4.46027 29.4308 4.29651 28.6887C4.13275 27.9465 2.29656 26.1887 3.29653 21.1887C4.29651 16.1887 4.294 14.8241 4.69283 14.2904C5.34748 13.4145 5.39077 12.6645 6.46247 11.7922C7.2024 11.19 7.52502 10.0777 8.29659 9.39218C9.04942 8.72329 10.4748 7.3035 12.2966 6.38276Z" stroke="black" stroke-width="2" stroke-linecap="round"/>
<path d="M12 13.3252C12.6032 13.4604 14.3181 14.118 14.5118 14.1846C14.7055 14.2511 15.0657 14.1602 15.1265 14.1846" stroke="#FF5858" stroke-linecap="round"/>
<path d="M15.4885 11C15.4283 11.4455 15.4222 12.5066 15.3238 12.7948C15.2904 12.9531 15.1528 13.6973 15.1528 13.8858" stroke="#FF5858" stroke-linecap="round"/>
<path d="M14.1968 15.9492C14.7798 16.1547 16.405 17.0103 16.5895 17.0992C16.774 17.1881 17.1424 17.1405 17.1999 17.1718" stroke="#FF5858" stroke-linecap="round"/>
<path d="M17.9354 14.0514C17.8229 14.4866 17.6916 15.5396 17.5599 15.8141C17.508 15.9674 17.2835 16.6901 17.2612 16.8773" stroke="#FF5858" stroke-linecap="round"/>
<path d="M15.4434 18.8008C15.9512 19.1533 17.2919 20.4086 17.4462 20.5433C17.6005 20.6779 17.9684 20.7294 18.0156 20.7749" stroke="#FF5858" stroke-linecap="round"/>
<path d="M19.5512 17.9615C19.3275 18.3514 18.9221 19.332 18.7224 19.5619C18.6317 19.696 18.2239 20.3334 18.1529 20.508" stroke="#FF5858" stroke-linecap="round"/>
<path d="M15.3374 24.1758C15.8115 24.5725 17.034 25.9432 17.1756 26.0911C17.3172 26.2391 17.679 26.3235 17.7219 26.373" stroke="#FF5858" stroke-linecap="round"/>
<path d="M19.5039 23.7086C19.2461 24.0769 18.7542 25.0171 18.5346 25.2281C18.4323 25.3535 17.9689 25.9517 17.8825 26.1193" stroke="#FF5858" stroke-linecap="round"/>
<path d="M15.5337 27.9736C15.9664 28.4152 17.0477 29.8997 17.1741 30.0609C17.3004 30.2221 17.6521 30.3418 17.6899 30.3953" stroke="#FF5858" stroke-linecap="round"/>
<path d="M19.726 27.9189C19.4332 28.26 18.851 29.1471 18.6117 29.3354C18.4975 29.4501 17.9773 29.9997 17.8748 30.1579" stroke="#FF5858" stroke-linecap="round"/>
<path d="M14.9253 31.3848C15.2261 31.9249 15.8773 33.6422 15.9566 33.831C16.036 34.0198 16.3436 34.228 16.366 34.2896" stroke="#FF5858" stroke-linecap="round"/>
<path d="M18.9833 32.4389C18.6108 32.6906 17.8151 33.3926 17.5346 33.5111C17.3942 33.5916 16.7474 33.9845 16.6068 34.11" stroke="#FF5858" stroke-linecap="round"/>
<path d="M14.123 34.416C14.3446 34.9676 14.7579 36.6534 14.8107 36.8404C14.8636 37.0275 15.1319 37.2829 15.1457 37.3431" stroke="#FF5858" stroke-linecap="round"/>
<path d="M17.8675 36.2677C17.4815 36.4103 16.6371 36.8625 16.355 36.9062C16.2113 36.9471 15.5464 37.1552 15.397 37.2364" stroke="#FF5858" stroke-linecap="round"/>
<path d="M34.394 11.3252C33.8753 11.4604 32.4005 12.118 32.234 12.1846C32.0674 12.2511 31.7576 12.1602 31.7053 12.1846" stroke="#FF5858" stroke-linecap="round"/>
<path d="M31.3939 9C31.4458 9.4455 31.451 10.5066 31.5356 10.7948C31.5643 10.9531 31.6826 11.6973 31.6826 11.8858" stroke="#FF5858" stroke-linecap="round"/>
<path d="M32.7544 13.7637C32.1951 14.027 30.6645 15.0421 30.4899 15.1492C30.3154 15.2563 29.944 15.2461 29.89 15.2831" stroke="#FF5858" stroke-linecap="round"/>
<path d="M28.8432 12.2528C28.9991 12.6745 29.236 13.7088 29.3947 13.9686C29.4618 14.1159 29.7581 14.8123 29.7991 14.9962" stroke="#FF5858" stroke-linecap="round"/>
<path d="M31.5576 17.3223C31.012 17.6129 29.5335 18.7026 29.3645 18.8182C29.1954 18.9338 28.824 18.9419 28.7719 18.9815" stroke="#FF5858" stroke-linecap="round"/>
<path d="M27.5768 16.0072C27.7532 16.4206 28.0411 17.4419 28.2125 17.6937C28.2868 17.8374 28.6171 18.5183 28.6672 18.7" stroke="#FF5858" stroke-linecap="round"/>
<path d="M30.4614 21.0742C29.9536 21.4268 28.6129 22.6821 28.4586 22.8167C28.3042 22.9513 27.9363 23.0029 27.8892 23.0483" stroke="#FF5858" stroke-linecap="round"/>
<path d="M26.3536 20.2349C26.5773 20.6248 26.9827 21.6054 27.1824 21.8353C27.2731 21.9694 27.6809 22.6069 27.7519 22.7815" stroke="#FF5858" stroke-linecap="round"/>
<path d="M30.4111 24.9082C29.937 25.3049 28.7145 26.6756 28.5729 26.8236C28.4313 26.9715 28.0695 27.0559 28.0266 27.1054" stroke="#FF5858" stroke-linecap="round"/>
<path d="M26.2446 24.441C26.5024 24.8093 26.9943 25.7495 27.2139 25.9605C27.3162 26.0859 27.7797 26.6842 27.8661 26.8517" stroke="#FF5858" stroke-linecap="round"/>
<path d="M30.2148 28.7051C29.7822 29.1466 28.7008 30.6312 28.5745 30.7924C28.4481 30.9535 28.0964 31.0732 28.0586 31.1267" stroke="#FF5858" stroke-linecap="round"/>
<path d="M26.0225 28.6504C26.3154 28.9914 26.8976 29.8785 27.1369 30.0669C27.2511 30.1816 27.7712 30.7312 27.8738 30.8894" stroke="#FF5858" stroke-linecap="round"/>
<path d="M30.8232 32.1162C30.5224 32.6563 29.8712 34.3736 29.7919 34.5624C29.7126 34.7512 29.4049 34.9595 29.3826 35.021" stroke="#FF5858" stroke-linecap="round"/>
<path d="M26.7652 33.1704C27.1377 33.4221 27.9334 34.1241 28.2139 34.2426C28.3544 34.3231 29.0011 34.7159 29.1418 34.8414" stroke="#FF5858" stroke-linecap="round"/>
<path d="M32.1724 35.1328C32.0089 35.729 31.7858 37.5521 31.7537 37.7543C31.7217 37.9566 31.4725 38.2322 31.4655 38.2973" stroke="#FF5858" stroke-linecap="round"/>
<path d="M28.4827 37.1237C28.9045 37.2793 29.8445 37.7715 30.1452 37.8197C30.3008 37.8644 31.0225 38.0918 31.189 38.1802" stroke="#FF5858" stroke-linecap="round"/>
</svg>
