<svg width="127" height="27" viewBox="0 0 127 27" fill="none" xmlns="http://www.w3.org/2000/svg">
<path d="M8.65063 1.34256C8.52503 1.34256 7.38012 1.95802 5.6618 3.00359C4.77696 3.542 4.35303 5.11109 3.84547 7.15179C3.5506 8.33736 3.76536 8.90284 4.07404 9.33199C5.09503 10.7514 6.06926 11.0454 6.80842 11.2195C7.98281 11.4962 10.3124 10.6366 11.4836 9.95945C12.5351 9.35154 12.5056 8.20821 12.8428 7.3598C13.0976 6.71878 13.2432 5.8887 13.1741 5.33451C13.1046 4.77668 12.7377 4.23757 12.1923 3.47708C11.6361 2.70158 10.7973 1.81377 10.3524 1.52126C10.2378 1.44495 10.1122 1.35702 9.95959 1.29289C9.80696 1.22875 9.63111 1.19107 9.22156 1" stroke="white" stroke-width="2" stroke-linecap="round"/>
<path d="M8.57445 11.4287C8.57445 17.1868 8.3986 18.0218 8.28289 18.6775C8.25777 18.8116 8.20753 18.9247 8.18164 19.1211C8.15576 19.3175 8.15576 19.5938 8.15576 19.8785" stroke="white" stroke-width="2" stroke-linecap="round"/>
<path d="M1 21.059C3.26089 20.9585 4.81496 20.8691 5.81942 20.7241C6.43739 20.6348 7.2635 20.4409 8.83984 20.3691C10.4162 20.2974 12.7148 20.3351 14.4013 20.4361C16.0878 20.5372 17.0927 20.7005 18.2421 20.9829" stroke="white" stroke-width="2" stroke-linecap="round"/>
<path d="M19.917 1.34277C20.2968 4.66598 20.475 5.0957 20.69 5.6731C20.8228 6.02958 20.8427 6.44119 20.9816 6.75178C21.0703 6.87396 21.1959 6.9242 22.5857 6.97521C23.9756 7.02621 26.6258 7.07645 29.5848 7.01403" stroke="white" stroke-width="2" stroke-linecap="round"/>
<path d="M20.6021 11.4675C20.6397 11.4675 20.6774 11.4675 22.1601 11.455C23.6428 11.4424 26.5694 11.4173 28.1524 11.3918C29.8862 11.3412 30.2047 11.3153 30.5087 11.2965C30.6493 11.2776 30.7624 11.2399 31.0311 11.0869" stroke="white" stroke-width="2" stroke-linecap="round"/>
<path d="M21.7822 15.1973C21.8199 15.1973 21.8576 15.1973 22.9321 15.1721C24.0066 15.147 26.1167 15.0968 27.2666 15.0834C28.542 15.0687 28.7845 15.1211 28.9809 15.2781C29.3633 15.5838 29.1663 16.8263 29.0532 18.0121C28.9533 19.0599 27.4192 18.8512 26.7453 19.0531C26.034 19.2663 25.2611 19.4084 24.5762 19.479C23.9422 19.5444 23.3466 19.7388 22.6984 19.8595C22.498 19.8968 22.2192 19.8789 22.0831 20.2997C21.6928 21.5065 22.0605 22.5547 22.2565 22.7701C22.6137 23.1627 23.087 23.3288 23.5628 23.5256C25.0362 24.135 27.7785 23.7239 28.3968 23.5399C28.6311 23.4575 29.6394 23.4187 31.0534 23.3998C31.5756 23.381 31.7012 23.3433 31.9448 23.3045" stroke="white" stroke-width="2" stroke-linecap="round"/>
<path d="M37.5396 3.09341C36.0571 3.74961 35.1219 5.16704 34.2874 7.03113C33.781 8.16237 34.3417 9.11827 34.4998 9.43475C34.8558 10.1471 35.7484 10.6777 37.9298 11.4454C38.8773 11.7788 40.6725 11.6829 42.7591 11.6387C43.5022 11.623 43.6022 11.5569 43.723 11.4054C44.9065 9.92194 44.0993 6.95215 43.9921 6.62292C43.6502 5.57207 41.996 5.02317 41.5756 4.75654C41.135 4.4771 40.5755 4.10967 40.0156 3.77987C39.5196 3.4877 39.0644 3.28525 38.6138 2.92366C38.4554 2.81556 38.2293 2.68996 38.0124 2.62525C37.7954 2.56055 37.5945 2.56055 37.3874 2.56055" stroke="white" stroke-width="2" stroke-linecap="round"/>
<path d="M35.2178 17.1004C38.5337 17.1758 41.0584 17.2146 42.3645 17.1958C42.9923 17.1392 43.3357 17.1004 43.6967 17.0753C43.8567 17.0502 43.9698 16.9999 44.3146 16.834" stroke="white" stroke-width="2" stroke-linecap="round"/>
<path d="M48.5018 4.04492C48.3511 6.01692 48.2003 7.98892 48.1478 9.68306C48.0533 12.7323 48.2601 14.3072 48.4243 14.9756C48.5258 15.4681 48.6639 16.272 48.7477 17.3267C48.8314 18.3814 48.8565 19.6626 48.8824 20.9826" stroke="white" stroke-width="2" stroke-linecap="round"/>
<path d="M60.2373 5.4177C60.3631 11.4557 60.5065 14.9593 60.7043 15.5707C60.9308 16.2711 63.1462 15.9957 65.989 15.8463C67.5004 15.7669 69.1304 15.3982 69.9414 15.0713C70.8746 14.6952 70.6247 12.3439 70.5932 9.59004C70.5691 7.47978 70.214 6.59557 69.7451 6.02331C69.2455 5.41361 68.6563 5.11704 68.4109 4.91882C68.1548 4.71193 66.1796 4.75014 63.338 4.85306C62.2733 4.90881 61.9746 4.97171 61.6005 5.00411C61.2265 5.03651 60.7862 5.03651 60.3326 5.03651" stroke="white" stroke-width="2" stroke-linecap="round"/>
<path d="M72.1016 9.46777C72.6834 9.56212 73.2651 9.65646 73.6435 9.68147C74.0218 9.70649 74.179 9.65931 74.341 9.61071" stroke="white" stroke-width="2" stroke-linecap="round"/>
<path d="M74.9609 3.22559C74.9609 6.07163 74.9609 8.91768 74.9609 11.0757C74.9609 13.2337 74.9609 14.6174 75.0396 15.4796C75.1182 16.3418 75.2754 16.6406 75.4374 17.0913" stroke="white" stroke-width="2" stroke-linecap="round"/>
<path d="M65.5742 21.237C67.2252 20.891 68.8763 20.5451 70.6781 20.3748C72.4799 20.2044 74.3825 20.2201 75.3627 21.1402C76.3428 22.0603 76.3428 23.8843 76.4857 25.6683" stroke="white" stroke-width="2" stroke-linecap="round"/>
<path d="M79.9355 5.11035C80.3129 10.771 80.5859 14.0645 80.7522 14.7149C80.868 15.1675 83.5473 15.2285 87.4614 15.078C88.8605 15.0241 89.0641 14.9431 89.2087 14.8164C89.4993 14.5617 89.5758 12.3096 89.6947 9.20527C89.7978 7.94068 89.815 7.60571 89.7673 7.04488C89.7511 6.65702 89.7511 6.05951 89.7511 5.44389" stroke="white" stroke-width="2" stroke-linecap="round"/>
<path d="M80.9355 9.9707C84.1747 10.3795 86.0163 10.5901 86.357 10.6216C86.682 10.7159 87.41 10.7807 88.3621 10.8043C88.748 10.8279 88.9367 10.8751 89.3217 10.9237" stroke="white" stroke-width="2" stroke-linecap="round"/>
<path d="M92.7051 4.01465C92.7522 7.41104 92.7994 10.8074 92.8237 12.7458C92.848 14.6841 92.848 15.0615 92.8873 15.3581C92.9266 15.6547 93.0053 15.8591 93.0863 16.2127" stroke="white" stroke-width="2" stroke-linecap="round"/>
<path d="M93.3242 11.3523C93.9689 11.3209 94.6136 11.2894 95.0243 11.2418C95.4351 11.1941 95.5923 11.1312 96.0402 11.0664" stroke="white" stroke-width="2" stroke-linecap="round"/>
<path d="M90.1633 18.3517C86.4524 18.163 84.242 18.1287 83.7186 18.2791C82.7912 18.5454 82.2717 19.8098 81.7786 20.9833C81.3441 22.0172 82.2527 22.8278 82.7199 23.4794C83.2923 24.2778 84.5189 24.6699 85.7744 24.9265C86.6275 25.1009 88.0101 25.2131 89.5253 25.048C91.2208 24.8633 91.1944 23.2157 91.5677 22.106C91.5456 19.9737 91.324 19.339 91.0698 18.7667C90.9748 18.6386 90.8332 18.5442 90.4015 18.1611" stroke="white" stroke-width="2" stroke-linecap="round"/>
<path d="M105.407 3.86816C102.724 4.34417 101.399 5.16325 100.422 6.40521C100.031 6.90349 99.8322 7.42322 99.8401 7.9383C99.8472 8.40675 99.9585 8.77453 100.133 9.04398C100.688 9.90374 102.227 10.5837 103.305 11.0219C105.4 11.8729 107.326 11.0974 108.673 10.3672C109.669 9.82722 110.12 8.73403 110.307 7.10612C110.397 6.32518 109.761 5.82366 109.213 5.10989C108.604 4.31597 107.11 4.50475 106.26 4.4085C106.06 4.37705 105.903 4.31415 105.719 4.25817C105.536 4.20218 105.332 4.15501 105.121 4.10641" stroke="white" stroke-width="2" stroke-linecap="round"/>
<path d="M99.4033 13.5879C99.4505 13.5879 99.4977 13.5879 100.403 13.7609C101.307 13.9338 103.068 14.2797 105.375 14.458C107.682 14.6362 110.481 14.6362 113.698 14.5409" stroke="white" stroke-width="2" stroke-linecap="round"/>
<path d="M100.643 16.7803C100.833 19.2237 101.086 22.9741 101.67 23.0456C102.781 23.1815 103.706 23.0227 104.707 22.9512C106.888 22.9269 108.864 22.8011 110.099 22.6105C110.784 22.5457 111.586 22.5457 112.412 22.5457" stroke="white" stroke-width="2" stroke-linecap="round"/>
<path d="M118.499 3.48609C118.99 2.94719 119.748 2.40924 120.529 2.04949C121.36 1.66667 122.984 3.47656 124.031 4.36545C124.71 4.94075 124.852 5.68936 125.098 7.41853C125.172 7.94119 124.948 8.26524 124.758 8.54279C124.33 9.16854 123.409 9.40785 122.695 9.71113C122.278 9.88849 121.9 10.0139 121.559 10.1712C120.567 10.629 120.803 11.695 120.643 12.6229C120.69 13.0282 120.786 13.3636 120.857 13.7277C120.881 13.9345 120.881 14.186 121.072 14.6835" stroke="white" stroke-width="2" stroke-linecap="round"/>
<path d="M120.548 19.639C119.762 19.639 119.215 19.6862 118.938 19.8913C117.888 20.6681 118.673 22.4484 118.879 22.7893C119.302 23.4915 120.291 23.6234 121.029 23.9186C121.745 24.2046 122.34 24.2609 123.245 24.1664C123.945 24.0932 124.12 23.2308 124.423 22.8329C124.965 22.1214 122.853 21.2305 122.487 20.5942C122.281 20.3871 122.026 20.1961 121.733 19.9743C121.582 19.8625 121.425 19.7524 120.977 19.4961" stroke="white" stroke-width="2" stroke-linecap="round"/>
</svg>
