<svg width="56" height="42" viewBox="0 0 56 42" fill="none" xmlns="http://www.w3.org/2000/svg">
<path d="M1.59695 17.4034C2.22221 15.6769 8.54574 7.54523 12.0866 5.31477C14.5347 4.01522 17.6078 2.17889 19.8709 1.62744C21.8955 1.13409 23.8653 0.707962 26.4411 1.25906C30.3592 2.09736 33.5741 2.57557 35.0619 2.86104C36.794 3.19341 40.5373 3.62019 44.6234 6.20211C48.2561 8.49746 50.2849 10.0251 50.9801 10.9525C51.8896 12.1657 52.2278 13.412 52.6862 15.4408C53.5974 19.4735 54.1383 22.4148 54.2726 23.288C54.6327 25.6289 54.7576 29.5242 53.9793 31.2259C53.8465 31.5161 51.6397 33.1687 50.3169 34.0292C46.7168 36.371 45.9587 35.3573 42.0213 36.2939C26.3169 40.0292 17.557 34.3803 13.8169 34.0292C11.9693 35.271 10.7126 39.8418 8.35414 40.7123C7.50542 41.0256 9.00004 35.128 8.81689 34.0292C8.31689 31.0292 6.81689 30.5292 6.81689 30.5292C2.31689 28.0292 1.78314 28.6019 1.43205 26.2559C0.68444 21.2604 1.01761 19.0031 1.59695 17.4034Z" fill="white" stroke="#5F5F5F" stroke-linecap="round"/>
<path d="M13.7724 17.2473H14.3534V21.8673H13.7724V17.2473ZM10.2864 22.9593H14.5494V23.4353H10.2864V22.9593ZM10.2864 21.3983H10.8674V23.1203H10.2864V21.3983ZM10.9584 17.6883C11.2757 17.6883 11.5581 17.7536 11.8054 17.8843C12.0527 18.015 12.2487 18.1993 12.3934 18.4373C12.5381 18.6706 12.6104 18.939 12.6104 19.2423C12.6104 19.5456 12.5381 19.8163 12.3934 20.0543C12.2487 20.2876 12.0527 20.472 11.8054 20.6073C11.5581 20.738 11.2757 20.8033 10.9584 20.8033C10.6457 20.8033 10.3634 20.738 10.1114 20.6073C9.86407 20.472 9.66807 20.2876 9.52341 20.0543C9.37874 19.8163 9.30641 19.5456 9.30641 19.2423C9.30641 18.939 9.37874 18.6706 9.52341 18.4373C9.66807 18.1993 9.86407 18.015 10.1114 17.8843C10.3634 17.7536 10.6457 17.6883 10.9584 17.6883ZM10.9584 18.1923C10.7531 18.1923 10.5687 18.2366 10.4054 18.3253C10.2421 18.414 10.1114 18.5376 10.0134 18.6963C9.92007 18.855 9.87341 19.037 9.87341 19.2423C9.87341 19.4523 9.92007 19.6366 10.0134 19.7953C10.1114 19.9493 10.2421 20.0706 10.4054 20.1593C10.5687 20.248 10.7531 20.2923 10.9584 20.2923C11.1637 20.2923 11.3481 20.248 11.5114 20.1593C11.6794 20.0706 11.8101 19.9493 11.9034 19.7953C11.9967 19.6366 12.0434 19.4523 12.0434 19.2423C12.0434 19.037 11.9967 18.855 11.9034 18.6963C11.8101 18.5376 11.6794 18.414 11.5114 18.3253C11.3481 18.2366 11.1637 18.1923 10.9584 18.1923ZM16.9289 17.6393H17.3909V18.4863C17.3909 18.799 17.3325 19.1093 17.2159 19.4173C17.0992 19.7253 16.9312 20.003 16.7119 20.2503C16.4972 20.4976 16.2335 20.6913 15.9209 20.8313L15.6059 20.3833C15.8812 20.262 16.1169 20.0986 16.3129 19.8933C16.5135 19.6833 16.6652 19.4546 16.7679 19.2073C16.8752 18.96 16.9289 18.7196 16.9289 18.4863V17.6393ZM17.0269 17.6393H17.4889V18.4863C17.4889 18.715 17.5379 18.9436 17.6359 19.1723C17.7385 19.3963 17.8855 19.5993 18.0769 19.7813C18.2729 19.9586 18.5039 20.101 18.7699 20.2083L18.4619 20.6563C18.1585 20.535 17.8995 20.3623 17.6849 20.1383C17.4702 19.9143 17.3069 19.66 17.1949 19.3753C17.0829 19.0906 17.0269 18.7943 17.0269 18.4863V17.6393ZM20.3869 17.2473H20.9399V21.1533H20.3869V17.2473ZM19.3789 18.9413H20.5689V19.4173H19.3789V18.9413ZM19.0289 17.3663H19.5749V20.9503H19.0289V17.3663ZM18.8609 21.2933C19.2949 21.2933 19.6682 21.3376 19.9809 21.4263C20.2982 21.515 20.5432 21.6456 20.7159 21.8183C20.8885 21.9863 20.9749 22.1893 20.9749 22.4273C20.9749 22.6653 20.8885 22.8683 20.7159 23.0363C20.5432 23.209 20.2982 23.3396 19.9809 23.4283C19.6682 23.517 19.2949 23.5613 18.8609 23.5613C18.4269 23.5613 18.0512 23.517 17.7339 23.4283C17.4165 23.3396 17.1715 23.209 16.9989 23.0363C16.8309 22.8683 16.7469 22.6653 16.7469 22.4273C16.7469 22.1893 16.8309 21.9863 16.9989 21.8183C17.1715 21.6456 17.4165 21.515 17.7339 21.4263C18.0512 21.3376 18.4269 21.2933 18.8609 21.2933ZM18.8609 21.7413C18.3849 21.7413 18.0092 21.802 17.7339 21.9233C17.4585 22.0446 17.3209 22.2126 17.3209 22.4273C17.3209 22.642 17.4585 22.81 17.7339 22.9313C18.0092 23.0526 18.3849 23.1133 18.8609 23.1133C19.1782 23.1133 19.4512 23.0853 19.6799 23.0293C19.9085 22.978 20.0835 22.901 20.2049 22.7983C20.3309 22.6956 20.3939 22.572 20.3939 22.4273C20.3939 22.2126 20.2562 22.0446 19.9809 21.9233C19.7102 21.802 19.3369 21.7413 18.8609 21.7413ZM22.0453 20.5723H27.7643V21.0413H22.0453V20.5723ZM22.7803 22.9593H27.1273V23.4353H22.7803V22.9593ZM22.7803 21.6013H23.3613V23.0993H22.7803V21.6013ZM24.9013 17.4573C25.354 17.4573 25.746 17.5086 26.0773 17.6113C26.4133 17.7093 26.6723 17.854 26.8543 18.0453C27.0363 18.232 27.1273 18.456 27.1273 18.7173C27.1273 18.9786 27.0363 19.205 26.8543 19.3963C26.6723 19.5876 26.4133 19.7346 26.0773 19.8373C25.746 19.9353 25.354 19.9843 24.9013 19.9843C24.4486 19.9843 24.0543 19.9353 23.7183 19.8373C23.387 19.7346 23.1303 19.5876 22.9483 19.3963C22.7663 19.205 22.6753 18.9786 22.6753 18.7173C22.6753 18.456 22.7663 18.232 22.9483 18.0453C23.1303 17.854 23.387 17.7093 23.7183 17.6113C24.0543 17.5086 24.4486 17.4573 24.9013 17.4573ZM24.9013 17.9263C24.5746 17.9263 24.2876 17.959 24.0403 18.0243C23.7976 18.085 23.6086 18.176 23.4733 18.2973C23.338 18.414 23.2703 18.554 23.2703 18.7173C23.2703 18.8806 23.338 19.023 23.4733 19.1443C23.6086 19.261 23.7976 19.352 24.0403 19.4173C24.2876 19.478 24.5746 19.5083 24.9013 19.5083C25.2373 19.5083 25.5266 19.478 25.7693 19.4173C26.012 19.352 26.1986 19.261 26.3293 19.1443C26.4646 19.023 26.5323 18.8806 26.5323 18.7173C26.5323 18.554 26.4646 18.414 26.3293 18.2973C26.1986 18.176 26.012 18.085 25.7693 18.0243C25.5266 17.959 25.2373 17.9263 24.9013 17.9263ZM31.9831 17.7303C32.2958 17.7303 32.5711 17.8213 32.8091 18.0033C33.0471 18.1806 33.2338 18.435 33.3691 18.7663C33.5045 19.0976 33.5721 19.4873 33.5721 19.9353C33.5721 20.3833 33.5045 20.773 33.3691 21.1043C33.2338 21.4356 33.0471 21.6923 32.8091 21.8743C32.5711 22.0563 32.2958 22.1473 31.9831 22.1473C31.6751 22.1473 31.3998 22.0563 31.1571 21.8743C30.9191 21.6923 30.7325 21.4356 30.5971 21.1043C30.4618 20.773 30.3941 20.3833 30.3941 19.9353C30.3941 19.4873 30.4618 19.0976 30.5971 18.7663C30.7325 18.435 30.9191 18.1806 31.1571 18.0033C31.3998 17.8213 31.6751 17.7303 31.9831 17.7303ZM31.9831 18.2483C31.7825 18.2483 31.6028 18.3183 31.4441 18.4583C31.2901 18.5936 31.1688 18.7896 31.0801 19.0463C30.9915 19.2983 30.9471 19.5946 30.9471 19.9353C30.9471 20.276 30.9915 20.5746 31.0801 20.8313C31.1688 21.0833 31.2901 21.2793 31.4441 21.4193C31.6028 21.5593 31.7848 21.6293 31.9901 21.6293C32.1908 21.6293 32.3681 21.5593 32.5221 21.4193C32.6808 21.2793 32.8021 21.0833 32.8861 20.8313C32.9748 20.5746 33.0191 20.276 33.0191 19.9353C33.0191 19.5946 32.9748 19.2983 32.8861 19.0463C32.8021 18.7896 32.6808 18.5936 32.5221 18.4583C32.3681 18.3183 32.1885 18.2483 31.9831 18.2483ZM35.0071 18.8293H36.1761V19.3193H35.0071V18.8293ZM35.0071 20.7193H36.1761V21.2023H35.0071V20.7193ZM34.5871 17.2403H35.1681V23.5753H34.5871V17.2403ZM37.4566 17.6533H41.4186V18.1223H37.4566V17.6533ZM36.7426 20.3693H42.4616V20.8523H36.7426V20.3693ZM39.2976 20.6913H39.8786V23.5823H39.2976V20.6913ZM41.1386 17.6533H41.7126V18.2063C41.7126 18.4256 41.7079 18.6566 41.6986 18.8993C41.6939 19.142 41.6752 19.4103 41.6426 19.7043C41.6099 19.9936 41.5539 20.3156 41.4746 20.6703L40.8936 20.5933C41.0196 20.0846 41.0919 19.639 41.1106 19.2563C41.1292 18.8736 41.1386 18.5236 41.1386 18.2063V17.6533ZM44.855 18.1503H45.331V19.1723C45.331 19.5083 45.2844 19.8396 45.191 20.1663C45.0977 20.4883 44.967 20.794 44.799 21.0833C44.6357 21.368 44.4444 21.62 44.225 21.8393C44.0057 22.0586 43.77 22.2313 43.518 22.3573L43.182 21.8953C43.4107 21.7833 43.6254 21.6316 43.826 21.4403C44.0314 21.249 44.211 21.0296 44.365 20.7823C44.519 20.535 44.638 20.2736 44.722 19.9983C44.8107 19.723 44.855 19.4476 44.855 19.1723V18.1503ZM44.974 18.1503H45.443V19.1723C45.443 19.4383 45.485 19.7043 45.569 19.9703C45.6577 20.2316 45.779 20.479 45.933 20.7123C46.0917 20.941 46.2714 21.144 46.472 21.3213C46.6774 21.4986 46.8967 21.6386 47.13 21.7413L46.808 22.2033C46.5514 22.082 46.311 21.9186 46.087 21.7133C45.863 21.508 45.667 21.2723 45.499 21.0063C45.3357 20.7356 45.2074 20.4463 45.114 20.1383C45.0207 19.8256 44.974 19.5036 44.974 19.1723V18.1503ZM43.385 17.8913H46.92V18.3743H43.385V17.8913ZM47.781 17.2403H48.362V23.5753H47.781V17.2403Z" fill="black"/>
</svg>
