<svg width="72" height="17" viewBox="0 0 72 17" fill="none" xmlns="http://www.w3.org/2000/svg">
<rect x="0.5" y="0.5" width="71" height="16" fill="white" stroke="black"/>
<path d="M6.19146 8.788H6.76546V10.363H6.19146V8.788ZM6.47846 5.624C6.92646 5.624 7.32313 5.694 7.66846 5.834C8.01379 5.96933 8.28446 6.16067 8.48046 6.408C8.68113 6.65533 8.78146 6.947 8.78146 7.283C8.78146 7.619 8.68113 7.913 8.48046 8.165C8.28446 8.41233 8.01379 8.60367 7.66846 8.739C7.32313 8.87433 6.92646 8.942 6.47846 8.942C6.03513 8.942 5.63846 8.87433 5.28846 8.739C4.94313 8.60367 4.67246 8.41233 4.47646 8.165C4.28046 7.913 4.18246 7.619 4.18246 7.283C4.18246 6.947 4.28046 6.65533 4.47646 6.408C4.67246 6.16067 4.94313 5.96933 5.28846 5.834C5.63846 5.694 6.03513 5.624 6.47846 5.624ZM6.47846 6.093C6.14246 6.093 5.84379 6.142 5.58246 6.24C5.32113 6.338 5.11579 6.478 4.96646 6.66C4.81713 6.83733 4.74246 7.045 4.74246 7.283C4.74246 7.521 4.81713 7.731 4.96646 7.913C5.11579 8.095 5.32113 8.235 5.58246 8.333C5.84379 8.431 6.14246 8.48 6.47846 8.48C6.81446 8.48 7.11313 8.431 7.37446 8.333C7.63579 8.235 7.84113 8.095 7.99046 7.913C8.14446 7.731 8.22146 7.521 8.22146 7.283C8.22146 7.045 8.14446 6.83733 7.99046 6.66C7.84113 6.478 7.63579 6.338 7.37446 6.24C7.11313 6.142 6.81446 6.093 6.47846 6.093ZM3.62246 10.251H9.36246V10.734H3.62246V10.251ZM11.8319 6.716H16.1229V7.192H11.8319V6.716ZM11.0549 7.808H16.7949V8.284H11.0549V7.808ZM11.8319 5.309H12.3989V6.94H11.8319V5.309ZM11.7689 8.844H16.0669V10.335H12.3639V11.147H11.7829V9.901H15.4929V9.299H11.7689V8.844ZM11.7829 11H16.2839V11.462H11.7829V11ZM20.5524 5.673C20.8837 5.673 21.1754 5.736 21.4274 5.862C21.684 5.98333 21.8847 6.156 22.0294 6.38C22.174 6.604 22.2464 6.86533 22.2464 7.164C22.2464 7.458 22.174 7.71933 22.0294 7.948C21.8847 8.172 21.684 8.347 21.4274 8.473C21.1754 8.59433 20.8837 8.655 20.5524 8.655C20.2257 8.655 19.934 8.59433 19.6774 8.473C19.4207 8.347 19.2177 8.172 19.0684 7.948C18.9237 7.71933 18.8514 7.458 18.8514 7.164C18.8514 6.86533 18.9237 6.604 19.0684 6.38C19.2177 6.156 19.4207 5.98333 19.6774 5.862C19.934 5.736 20.2257 5.673 20.5524 5.673ZM20.5524 6.177C20.3377 6.177 20.144 6.219 19.9714 6.303C19.8034 6.38233 19.6704 6.49667 19.5724 6.646C19.4744 6.79533 19.4254 6.968 19.4254 7.164C19.4254 7.36 19.4744 7.53267 19.5724 7.682C19.6704 7.83133 19.8034 7.948 19.9714 8.032C20.144 8.11133 20.3377 8.151 20.5524 8.151C20.7717 8.151 20.9654 8.11133 21.1334 8.032C21.3014 7.948 21.4344 7.83133 21.5324 7.682C21.6304 7.53267 21.6794 7.36 21.6794 7.164C21.6794 6.968 21.6304 6.79533 21.5324 6.646C21.4344 6.49667 21.3014 6.38233 21.1334 6.303C20.9654 6.219 20.7717 6.177 20.5524 6.177ZM23.0794 5.211H23.6604V11.553H23.0794V5.211ZM18.6134 10.167L18.5364 9.677C18.9237 9.677 19.3484 9.67467 19.8104 9.67C20.2724 9.66067 20.7484 9.642 21.2384 9.614C21.733 9.58133 22.209 9.53 22.6664 9.46L22.7154 9.887C22.2394 9.97567 21.7564 10.041 21.2664 10.083C20.781 10.1203 20.312 10.1437 19.8594 10.153C19.4067 10.1623 18.9914 10.167 18.6134 10.167ZM31.3212 5.316H31.8252V5.603C31.8252 5.827 31.7785 6.037 31.6852 6.233C31.5965 6.429 31.4705 6.611 31.3072 6.779C31.1485 6.94233 30.9618 7.08933 30.7472 7.22C30.5372 7.346 30.3085 7.45333 30.0612 7.542C29.8185 7.626 29.5688 7.689 29.3122 7.731L29.0882 7.269C29.3168 7.241 29.5385 7.192 29.7532 7.122C29.9725 7.04733 30.1755 6.95867 30.3622 6.856C30.5535 6.74867 30.7192 6.62967 30.8592 6.499C31.0038 6.36833 31.1158 6.22833 31.1952 6.079C31.2792 5.925 31.3212 5.76633 31.3212 5.603V5.316ZM31.4192 5.316H31.9162V5.603C31.9162 5.76633 31.9558 5.92267 32.0352 6.072C32.1192 6.22133 32.2335 6.36133 32.3782 6.492C32.5228 6.62267 32.6885 6.74167 32.8752 6.849C33.0618 6.95633 33.2625 7.04733 33.4772 7.122C33.6965 7.192 33.9182 7.241 34.1422 7.269L33.9252 7.731C33.6685 7.689 33.4165 7.62367 33.1692 7.535C32.9265 7.44633 32.6978 7.339 32.4832 7.213C32.2732 7.08233 32.0865 6.93533 31.9232 6.772C31.7645 6.604 31.6408 6.422 31.5522 6.226C31.4635 6.03 31.4192 5.82233 31.4192 5.603V5.316ZM28.7592 8.235H34.4782V8.704H28.7592V8.235ZM31.6152 9.292C32.2918 9.292 32.8215 9.38767 33.2042 9.579C33.5868 9.77033 33.7782 10.048 33.7782 10.412C33.7782 10.7713 33.5868 11.049 33.2042 11.245C32.8215 11.441 32.2918 11.539 31.6152 11.539C30.9385 11.539 30.4065 11.441 30.0192 11.245C29.6365 11.049 29.4452 10.7713 29.4452 10.412C29.4452 10.048 29.6365 9.77033 30.0192 9.579C30.4065 9.38767 30.9385 9.292 31.6152 9.292ZM31.6152 9.74C31.2838 9.74 30.9992 9.768 30.7612 9.824C30.5278 9.87533 30.3482 9.95 30.2222 10.048C30.0962 10.146 30.0332 10.2673 30.0332 10.412C30.0332 10.5567 30.0962 10.6803 30.2222 10.783C30.3482 10.881 30.5278 10.9557 30.7612 11.007C30.9992 11.0583 31.2838 11.084 31.6152 11.084C31.9465 11.084 32.2288 11.0583 32.4622 11.007C32.7002 10.9557 32.8822 10.881 33.0082 10.783C33.1342 10.6803 33.1972 10.5567 33.1972 10.412C33.1972 10.2673 33.1342 10.146 33.0082 10.048C32.8822 9.95 32.7002 9.87533 32.4622 9.824C32.2288 9.768 31.9465 9.74 31.6152 9.74ZM37.6056 8.473H38.1796V10.363H37.6056V8.473ZM39.9436 8.473H40.5246V10.363H39.9436V8.473ZM36.1986 10.251H41.9386V10.734H36.1986V10.251ZM39.0546 5.61C39.5026 5.61 39.8993 5.67767 40.2446 5.813C40.59 5.94833 40.8606 6.13733 41.0566 6.38C41.2573 6.62267 41.3576 6.90967 41.3576 7.241C41.3576 7.56767 41.2573 7.85467 41.0566 8.102C40.8606 8.34467 40.59 8.53367 40.2446 8.669C39.8993 8.79967 39.5026 8.865 39.0546 8.865C38.6113 8.865 38.2146 8.79967 37.8646 8.669C37.5193 8.53367 37.2486 8.34467 37.0526 8.102C36.8566 7.85467 36.7586 7.56767 36.7586 7.241C36.7586 6.90967 36.8566 6.62267 37.0526 6.38C37.2486 6.13733 37.5193 5.94833 37.8646 5.813C38.2146 5.67767 38.6113 5.61 39.0546 5.61ZM39.0546 6.072C38.7186 6.072 38.42 6.121 38.1586 6.219C37.8973 6.317 37.692 6.45467 37.5426 6.632C37.3933 6.80467 37.3186 7.00767 37.3186 7.241C37.3186 7.47433 37.3933 7.67967 37.5426 7.857C37.692 8.02967 37.8973 8.165 38.1586 8.263C38.42 8.361 38.7186 8.41 39.0546 8.41C39.3953 8.41 39.6963 8.361 39.9576 8.263C40.219 8.165 40.4243 8.02967 40.5736 7.857C40.723 7.67967 40.7976 7.47433 40.7976 7.241C40.7976 7.00767 40.723 6.80467 40.5736 6.632C40.4243 6.45467 40.219 6.317 39.9576 6.219C39.6963 6.121 39.3953 6.072 39.0546 6.072ZM46.4564 8.221H52.1824V8.704H46.4564V8.221ZM47.1774 7.15H51.5104V7.626H47.1774V7.15ZM47.1774 5.463H51.4684V5.939H47.7514V7.374H47.1774V5.463ZM49.3124 9.25C49.9891 9.25 50.5188 9.35033 50.9014 9.551C51.2841 9.75167 51.4754 10.0317 51.4754 10.391C51.4754 10.755 51.2841 11.035 50.9014 11.231C50.5188 11.4317 49.9891 11.532 49.3124 11.532C48.6358 11.532 48.1038 11.4317 47.7164 11.231C47.3338 11.035 47.1424 10.755 47.1424 10.391C47.1424 10.0317 47.3338 9.75167 47.7164 9.551C48.1038 9.35033 48.6358 9.25 49.3124 9.25ZM49.3054 9.705C48.9788 9.705 48.6964 9.733 48.4584 9.789C48.2251 9.84033 48.0454 9.91733 47.9194 10.02C47.7934 10.1227 47.7304 10.2463 47.7304 10.391C47.7304 10.5403 47.7934 10.6663 47.9194 10.769C48.0454 10.867 48.2251 10.944 48.4584 11C48.6964 11.0513 48.9788 11.077 49.3054 11.077C49.6414 11.077 49.9261 11.0513 50.1594 11C50.3974 10.944 50.5794 10.867 50.7054 10.769C50.8314 10.6663 50.8944 10.5403 50.8944 10.391C50.8944 10.2463 50.8314 10.1227 50.7054 10.02C50.5794 9.91733 50.3974 9.84033 50.1594 9.789C49.9261 9.733 49.6414 9.705 49.3054 9.705ZM55.4569 5.89H55.9329V6.401C55.9329 6.793 55.8582 7.15467 55.7089 7.486C55.5642 7.81733 55.3589 8.10667 55.0929 8.354C54.8316 8.60133 54.5212 8.79033 54.1619 8.921L53.8679 8.459C54.1852 8.347 54.4629 8.18833 54.7009 7.983C54.9389 7.773 55.1232 7.53267 55.2539 7.262C55.3892 6.99133 55.4569 6.70433 55.4569 6.401V5.89ZM55.5619 5.89H56.0379V6.401C56.0379 6.67633 56.1009 6.93767 56.2269 7.185C56.3529 7.43233 56.5302 7.64933 56.7589 7.836C56.9876 8.02267 57.2559 8.16967 57.5639 8.277L57.2909 8.732C56.9362 8.61067 56.6306 8.43567 56.3739 8.207C56.1172 7.97833 55.9166 7.71 55.7719 7.402C55.6319 7.08933 55.5619 6.75567 55.5619 6.401V5.89ZM54.0429 5.68H57.4309V6.156H54.0429V5.68ZM58.2289 5.211H58.8099V9.026H58.2289V5.211ZM58.6489 6.821H59.7409V7.304H58.6489V6.821ZM56.7939 9.201C57.2232 9.201 57.5919 9.24767 57.8999 9.341C58.2126 9.42967 58.4529 9.56033 58.6209 9.733C58.7889 9.90567 58.8729 10.1157 58.8729 10.363C58.8729 10.6103 58.7889 10.8203 58.6209 10.993C58.4529 11.1657 58.2126 11.2987 57.8999 11.392C57.5919 11.4853 57.2232 11.532 56.7939 11.532C56.3646 11.532 55.9936 11.4853 55.6809 11.392C55.3682 11.2987 55.1279 11.1657 54.9599 10.993C54.7919 10.8203 54.7079 10.6103 54.7079 10.363C54.7079 10.1157 54.7919 9.90567 54.9599 9.733C55.1279 9.56033 55.3682 9.42967 55.6809 9.341C55.9936 9.24767 56.3646 9.201 56.7939 9.201ZM56.7939 9.663C56.4812 9.663 56.2106 9.691 55.9819 9.747C55.7579 9.803 55.5852 9.88233 55.4639 9.985C55.3426 10.0877 55.2819 10.2137 55.2819 10.363C55.2819 10.5123 55.3426 10.6407 55.4639 10.748C55.5852 10.8507 55.7579 10.93 55.9819 10.986C56.2106 11.042 56.4812 11.07 56.7939 11.07C57.1066 11.07 57.3749 11.042 57.5989 10.986C57.8229 10.93 57.9956 10.8507 58.1169 10.748C58.2382 10.6407 58.2989 10.5123 58.2989 10.363C58.2989 10.2137 58.2382 10.0877 58.1169 9.985C57.9956 9.88233 57.8229 9.803 57.5989 9.747C57.3749 9.691 57.1066 9.663 56.7939 9.663ZM62.8684 8.767C62.7004 8.69233 62.5604 8.64333 62.4484 8.62C62.341 8.592 62.236 8.578 62.1334 8.578C62.0027 8.578 61.865 8.61767 61.7204 8.697C61.5757 8.77633 61.4474 8.87433 61.3354 8.991V8.445C61.5594 8.19767 61.8394 8.074 62.1754 8.074C62.3107 8.074 62.4437 8.088 62.5744 8.116C62.7097 8.144 62.8847 8.20467 63.0994 8.298C63.2674 8.37267 63.405 8.424 63.5124 8.452C63.6244 8.47533 63.7294 8.487 63.8274 8.487C63.9627 8.487 64.1027 8.44733 64.2474 8.368C64.392 8.28867 64.5204 8.19067 64.6324 8.074V8.613C64.4037 8.865 64.1237 8.991 63.7924 8.991C63.6617 8.991 63.5264 8.977 63.3864 8.949C63.251 8.91633 63.0784 8.85567 62.8684 8.767Z" fill="black"/>
</svg>
