<svg width="50" height="48" viewBox="0 0 50 48" fill="none" xmlns="http://www.w3.org/2000/svg">
<path d="M10.1916 8.38049C12.5696 7.86174 12.2022 7.73927 14.1777 7.40349C14.2795 7.317 14.3782 7.23306 14.6629 6.97486C15.4045 6.29694 15.9631 5.67952 16.3593 5.25579C17.836 4.33566 18.2695 3.6406 20.1703 2.83391C20.9653 2.49649 22.1252 2.12493 23.1926 1.40465C23.6565 1.09158 24.9209 0.885315 27.2337 1.06942C29.5163 1.25112 31.3188 1.37671 32.3228 1.76042C33.3995 2.17197 34.839 2.91331 36.7127 4.16323C37.6827 4.81026 39.3619 5.96152 41.1555 7.46999C42.9491 8.97847 44.8526 10.7448 45.7398 11.7627C46.7033 12.8679 46.8509 13.1077 47.1756 13.8099C47.8923 15.3598 48.5211 16.5016 48.6243 16.8539C48.6985 17.1074 48.8538 17.3714 48.9174 18.728C48.9735 19.9241 49.0106 22.0947 48.9973 23.2479C48.984 24.4012 48.9223 24.5331 48.7133 25.8964C48.5044 27.2597 48.1587 29.7781 47.9413 31.1114C47.7239 32.4447 47.6338 32.5875 47.5625 32.815C47.1604 34.0982 47.2712 36.0168 45.7507 37.2274C42.1429 40.1 30.8549 41.9746 30.5714 42.86C30.5714 43.7185 31 46.519 31 47C31 47 27.0062 44.6421 26.2857 44.24C26.2857 44.24 18.5714 44.24 14.6629 43.3622C13.1114 43.0137 7.61336 39.5844 6.97902 39.3401C3.5 38 1.0155 33.0838 1.00137 31.9345C0.983226 30.4591 1.15026 29.445 1.20808 28.9424C1.28254 28.2954 1.57714 27.4898 1.69484 25.7565C1.78164 24.4782 1.80634 22.4276 1.97769 20.8586C2.14905 19.2896 2.45772 18.2343 2.78378 17.3051C3.10984 16.3759 3.4432 15.5964 4.15688 14.3911C4.87055 13.1859 5.8982 11.5791 6.55231 10.7312C7.34512 9.70345 8.23296 8.80775 10.1916 8.38049Z" fill="white" stroke="#252525" stroke-linecap="round"/>
<path d="M7.595 13.8365C7.84067 13.8365 8.057 13.908 8.244 14.051C8.431 14.1903 8.57767 14.3902 8.684 14.6505C8.79033 14.9108 8.8435 15.217 8.8435 15.569C8.8435 15.921 8.79033 16.2272 8.684 16.4875C8.57767 16.7478 8.431 16.9495 8.244 17.0925C8.057 17.2355 7.84067 17.307 7.595 17.307C7.353 17.307 7.13667 17.2355 6.946 17.0925C6.759 16.9495 6.61233 16.7478 6.506 16.4875C6.39967 16.2272 6.3465 15.921 6.3465 15.569C6.3465 15.217 6.39967 14.9108 6.506 14.6505C6.61233 14.3902 6.759 14.1903 6.946 14.051C7.13667 13.908 7.353 13.8365 7.595 13.8365ZM7.595 14.2435C7.43733 14.2435 7.29617 14.2985 7.1715 14.4085C7.0505 14.5148 6.95517 14.6688 6.8855 14.8705C6.81583 15.0685 6.781 15.3013 6.781 15.569C6.781 15.8367 6.81583 16.0713 6.8855 16.273C6.95517 16.471 7.0505 16.625 7.1715 16.735C7.29617 16.845 7.43917 16.9 7.6005 16.9C7.75817 16.9 7.8975 16.845 8.0185 16.735C8.14317 16.625 8.2385 16.471 8.3045 16.273C8.37417 16.0713 8.409 15.8367 8.409 15.569C8.409 15.3013 8.37417 15.0685 8.3045 14.8705C8.2385 14.6688 8.14317 14.5148 8.0185 14.4085C7.8975 14.2985 7.75633 14.2435 7.595 14.2435ZM9.641 13.4515H10.0975V18.429H9.641V13.4515ZM9.993 15.437H10.9115V15.822H9.993V15.437ZM13.5611 14.1665H13.9296V14.9695C13.9296 15.2298 13.8929 15.4883 13.8196 15.745C13.7462 15.998 13.6436 16.2382 13.5116 16.4655C13.3832 16.6892 13.2347 16.889 13.0661 17.065C12.8974 17.2373 12.7159 17.373 12.5216 17.472L12.2521 17.109C12.4317 17.021 12.5986 16.9018 12.7526 16.7515C12.9102 16.5975 13.0496 16.4233 13.1706 16.229C13.2916 16.031 13.3869 15.8257 13.4566 15.613C13.5262 15.3967 13.5611 15.1822 13.5611 14.9695V14.1665ZM13.6491 14.1665H14.0121V14.9695C14.0121 15.1675 14.0432 15.3673 14.1056 15.569C14.1716 15.7707 14.2632 15.9632 14.3806 16.1465C14.4979 16.3298 14.6336 16.4948 14.7876 16.6415C14.9452 16.7845 15.1121 16.9 15.2881 16.988L15.0296 17.351C14.8352 17.252 14.6537 17.12 14.4851 16.955C14.3164 16.7863 14.1697 16.5957 14.0451 16.383C13.9204 16.1703 13.8232 15.943 13.7536 15.701C13.6839 15.459 13.6491 15.2152 13.6491 14.9695V14.1665ZM12.4281 13.963H15.1121V14.3425H12.4281V13.963ZM15.7006 13.4515H16.1571V18.429H15.7006V13.4515ZM16.0526 15.459H16.9711V15.844H16.0526V15.459ZM19.7141 13.8365C19.9598 13.8365 20.1761 13.908 20.3631 14.051C20.5501 14.1903 20.6968 14.3902 20.8031 14.6505C20.9095 14.9108 20.9626 15.217 20.9626 15.569C20.9626 15.921 20.9095 16.2272 20.8031 16.4875C20.6968 16.7478 20.5501 16.9495 20.3631 17.0925C20.1761 17.2355 19.9598 17.307 19.7141 17.307C19.4721 17.307 19.2558 17.2355 19.0651 17.0925C18.8781 16.9495 18.7315 16.7478 18.6251 16.4875C18.5188 16.2272 18.4656 15.921 18.4656 15.569C18.4656 15.217 18.5188 14.9108 18.6251 14.6505C18.7315 14.3902 18.8781 14.1903 19.0651 14.051C19.2558 13.908 19.4721 13.8365 19.7141 13.8365ZM19.7141 14.2435C19.5565 14.2435 19.4153 14.2985 19.2906 14.4085C19.1696 14.5148 19.0743 14.6688 19.0046 14.8705C18.935 15.0685 18.9001 15.3013 18.9001 15.569C18.9001 15.8367 18.935 16.0713 19.0046 16.273C19.0743 16.471 19.1696 16.625 19.2906 16.735C19.4153 16.845 19.5583 16.9 19.7196 16.9C19.8773 16.9 20.0166 16.845 20.1376 16.735C20.2623 16.625 20.3576 16.471 20.4236 16.273C20.4933 16.0713 20.5281 15.8367 20.5281 15.569C20.5281 15.3013 20.4933 15.0685 20.4236 14.8705C20.3576 14.6688 20.2623 14.5148 20.1376 14.4085C20.0166 14.2985 19.8755 14.2435 19.7141 14.2435ZM21.7601 13.4515H22.2166V18.429H21.7601V13.4515ZM22.1121 15.437H23.0306V15.822H22.1121V15.437ZM25.6802 14.1665H26.0487V14.9695C26.0487 15.2298 26.012 15.4883 25.9387 15.745C25.8654 15.998 25.7627 16.2382 25.6307 16.4655C25.5024 16.6892 25.3539 16.889 25.1852 17.065C25.0165 17.2373 24.835 17.373 24.6407 17.472L24.3712 17.109C24.5509 17.021 24.7177 16.9018 24.8717 16.7515C25.0294 16.5975 25.1687 16.4233 25.2897 16.229C25.4107 16.031 25.506 15.8257 25.5757 15.613C25.6454 15.3967 25.6802 15.1822 25.6802 14.9695V14.1665ZM25.7682 14.1665H26.1312V14.9695C26.1312 15.1675 26.1624 15.3673 26.2247 15.569C26.2907 15.7707 26.3824 15.9632 26.4997 16.1465C26.617 16.3298 26.7527 16.4948 26.9067 16.6415C27.0644 16.7845 27.2312 16.9 27.4072 16.988L27.1487 17.351C26.9544 17.252 26.7729 17.12 26.6042 16.955C26.4355 16.7863 26.2889 16.5957 26.1642 16.383C26.0395 16.1703 25.9424 15.943 25.8727 15.701C25.803 15.459 25.7682 15.2152 25.7682 14.9695V14.1665ZM24.5472 13.963H27.2312V14.3425H24.5472V13.963ZM27.8197 13.4515H28.2762V18.429H27.8197V13.4515ZM28.1717 15.459H29.0902V15.844H28.1717V15.459ZM31.2943 17.4225C31.2466 17.6168 31.1769 17.8295 31.0853 18.0605C30.9973 18.2952 30.9093 18.5115 30.8213 18.7095H30.4638C30.5151 18.5005 30.5664 18.2713 30.6178 18.022C30.6728 17.7727 30.7131 17.5527 30.7388 17.362H31.2558L31.2943 17.4225ZM7.595 21.8365C7.84067 21.8365 8.057 21.908 8.244 22.051C8.431 22.1903 8.57767 22.3902 8.684 22.6505C8.79033 22.9108 8.8435 23.217 8.8435 23.569C8.8435 23.921 8.79033 24.2272 8.684 24.4875C8.57767 24.7478 8.431 24.9495 8.244 25.0925C8.057 25.2355 7.84067 25.307 7.595 25.307C7.353 25.307 7.13667 25.2355 6.946 25.0925C6.759 24.9495 6.61233 24.7478 6.506 24.4875C6.39967 24.2272 6.3465 23.921 6.3465 23.569C6.3465 23.217 6.39967 22.9108 6.506 22.6505C6.61233 22.3902 6.759 22.1903 6.946 22.051C7.13667 21.908 7.353 21.8365 7.595 21.8365ZM7.595 22.2435C7.43733 22.2435 7.29617 22.2985 7.1715 22.4085C7.0505 22.5148 6.95517 22.6688 6.8855 22.8705C6.81583 23.0685 6.781 23.3013 6.781 23.569C6.781 23.8367 6.81583 24.0713 6.8855 24.273C6.95517 24.471 7.0505 24.625 7.1715 24.735C7.29617 24.845 7.43917 24.9 7.6005 24.9C7.75817 24.9 7.8975 24.845 8.0185 24.735C8.14317 24.625 8.2385 24.471 8.3045 24.273C8.37417 24.0713 8.409 23.8367 8.409 23.569C8.409 23.3013 8.37417 23.0685 8.3045 22.8705C8.2385 22.6688 8.14317 22.5148 8.0185 22.4085C7.8975 22.2985 7.75633 22.2435 7.595 22.2435ZM9.971 22.7H10.8895V23.085H9.971V22.7ZM9.971 24.185H10.8895V24.5645H9.971V24.185ZM9.641 21.4515H10.0975V26.429H9.641V21.4515ZM13.8956 21.776H17.0086V22.1445H13.8956V21.776ZM13.3346 23.91H17.8281V24.2895H13.3346V23.91ZM15.3421 24.163H15.7986V26.4345H15.3421V24.163ZM16.7886 21.776H17.2396V22.2105C17.2396 22.3828 17.2359 22.5643 17.2286 22.755C17.2249 22.9457 17.2102 23.1565 17.1846 23.3875C17.1589 23.6148 17.1149 23.8678 17.0526 24.1465L16.5961 24.086C16.6951 23.6863 16.7519 23.3362 16.7666 23.0355C16.7812 22.7348 16.7886 22.4598 16.7886 22.2105V21.776ZM23.8834 21.985H26.6554V22.359H23.8834V21.985ZM23.8174 25.197L23.7624 24.812C24.0594 24.812 24.3839 24.8102 24.7359 24.8065C25.0879 24.7992 25.449 24.7863 25.8194 24.768C26.1897 24.746 26.5435 24.7148 26.8809 24.6745L26.9084 25.0155C26.5637 25.0705 26.208 25.1108 25.8414 25.1365C25.4747 25.1622 25.1172 25.1787 24.7689 25.186C24.4242 25.1933 24.107 25.197 23.8174 25.197ZM24.4169 22.271H24.8624V24.9165H24.4169V22.271ZM25.6764 22.271H26.1164V24.9165H25.6764V22.271ZM27.1889 21.4515H27.6454V26.429H27.1889V21.4515ZM27.5409 23.4425H28.4594V23.822H27.5409V23.4425ZM33.4959 21.4515H33.9524V26.4345H33.4959V21.4515ZM31.3289 21.8365C31.5746 21.8365 31.7909 21.908 31.9779 22.051C32.1686 22.1903 32.3171 22.3902 32.4234 22.6505C32.5334 22.9108 32.5884 23.217 32.5884 23.569C32.5884 23.921 32.5334 24.2272 32.4234 24.4875C32.3171 24.7478 32.1686 24.9495 31.9779 25.0925C31.7909 25.2355 31.5746 25.307 31.3289 25.307C31.0833 25.307 30.8651 25.2355 30.6744 25.0925C30.4838 24.9495 30.3334 24.7478 30.2234 24.4875C30.1171 24.2272 30.0639 23.921 30.0639 23.569C30.0639 23.217 30.1171 22.9108 30.2234 22.6505C30.3334 22.3902 30.4838 22.1903 30.6744 22.051C30.8651 21.908 31.0833 21.8365 31.3289 21.8365ZM31.3289 22.2435C31.1639 22.2435 31.0191 22.2985 30.8944 22.4085C30.7734 22.5148 30.6781 22.6688 30.6084 22.8705C30.5388 23.0685 30.5039 23.3013 30.5039 23.569C30.5039 23.8367 30.5388 24.0713 30.6084 24.273C30.6781 24.471 30.7734 24.625 30.8944 24.735C31.0191 24.845 31.1639 24.9 31.3289 24.9C31.4903 24.9 31.6314 24.845 31.7524 24.735C31.8771 24.625 31.9743 24.471 32.0439 24.273C32.1136 24.0713 32.1484 23.8367 32.1484 23.569C32.1484 23.3013 32.1136 23.0685 32.0439 22.8705C31.9743 22.6688 31.8771 22.5148 31.7524 22.4085C31.6314 22.2985 31.4903 22.2435 31.3289 22.2435ZM36.228 23.811H36.6295C36.9888 23.811 37.3005 23.8092 37.5645 23.8055C37.8322 23.7982 38.0797 23.7835 38.307 23.7615C38.5343 23.7395 38.7635 23.7102 38.9945 23.6735L39.044 24.042C38.802 24.0787 38.5655 24.108 38.3345 24.13C38.1035 24.152 37.8523 24.1667 37.581 24.174C37.3097 24.1813 36.9925 24.185 36.6295 24.185H36.228V23.811ZM36.228 21.82H38.593V22.1885H36.6845V23.998H36.228V21.82ZM36.536 22.8045H38.4555V23.1675H36.536V22.8045ZM39.561 21.457H40.0175V24.5315H39.561V21.457ZM38.373 24.6085C38.7213 24.6085 39.0183 24.6452 39.264 24.7185C39.5133 24.7882 39.7058 24.889 39.8415 25.021C39.9772 25.153 40.045 25.3162 40.045 25.5105C40.045 25.7965 39.8965 26.0183 39.5995 26.176C39.3025 26.3373 38.8937 26.418 38.373 26.418C37.856 26.418 37.449 26.3373 37.152 26.176C36.855 26.0183 36.7065 25.7965 36.7065 25.5105C36.7065 25.2245 36.855 25.0027 37.152 24.845C37.449 24.6873 37.856 24.6085 38.373 24.6085ZM38.373 24.966C38.1237 24.966 37.9073 24.988 37.724 25.032C37.5407 25.076 37.3995 25.1383 37.3005 25.219C37.2052 25.2997 37.1575 25.3968 37.1575 25.5105C37.1575 25.6242 37.2052 25.7232 37.3005 25.8075C37.3995 25.8882 37.5407 25.9505 37.724 25.9945C37.9073 26.0385 38.1237 26.0605 38.373 26.0605C38.626 26.0605 38.8423 26.0385 39.022 25.9945C39.2053 25.9505 39.3447 25.8882 39.44 25.8075C39.539 25.7232 39.5885 25.6242 39.5885 25.5105C39.5885 25.3968 39.539 25.2997 39.44 25.219C39.3447 25.1383 39.2053 25.076 39.022 25.032C38.8423 24.988 38.626 24.966 38.373 24.966ZM42.6231 24.8945H42.3096L42.1721 22.073H42.7606L42.6231 24.8945ZM42.1226 25.703C42.1226 25.5673 42.1556 25.472 42.2216 25.417C42.2876 25.362 42.3682 25.3345 42.4636 25.3345C42.5552 25.3345 42.6341 25.362 42.7001 25.417C42.7697 25.472 42.8046 25.5673 42.8046 25.703C42.8046 25.835 42.7697 25.9303 42.7001 25.989C42.6341 26.0477 42.5552 26.077 42.4636 26.077C42.3682 26.077 42.2876 26.0477 42.2216 25.989C42.1556 25.9303 42.1226 25.835 42.1226 25.703ZM8.9315 30.744H10.048V31.1235H8.9315V30.744ZM9.9105 29.4515H10.367V32.416H9.9105V29.4515ZM8.728 32.57C9.07267 32.57 9.36783 32.6067 9.6135 32.68C9.86283 32.7533 10.0535 32.8597 10.1855 32.999C10.3175 33.1347 10.3835 33.3015 10.3835 33.4995C10.3835 33.7928 10.235 34.0202 9.938 34.1815C9.64467 34.3428 9.24133 34.4235 8.728 34.4235C8.21467 34.4235 7.8095 34.3428 7.5125 34.1815C7.21917 34.0202 7.0725 33.7928 7.0725 33.4995C7.0725 33.3015 7.1385 33.1347 7.2705 32.999C7.40617 32.8597 7.59683 32.7533 7.8425 32.68C8.09183 32.6067 8.387 32.57 8.728 32.57ZM8.728 32.9275C8.47867 32.9275 8.26417 32.9495 8.0845 32.9935C7.90483 33.0375 7.7655 33.1017 7.6665 33.186C7.57117 33.2703 7.5235 33.3748 7.5235 33.4995C7.5235 33.6168 7.57117 33.7177 7.6665 33.802C7.7655 33.8863 7.90483 33.9523 8.0845 34C8.26417 34.044 8.47867 34.066 8.728 34.066C8.981 34.066 9.1955 34.044 9.3715 34C9.55117 33.9523 9.68867 33.8863 9.784 33.802C9.883 33.7177 9.9325 33.6168 9.9325 33.4995C9.9325 33.3748 9.883 33.2703 9.784 33.186C9.68867 33.1017 9.55117 33.0375 9.3715 32.9935C9.1955 32.9495 8.981 32.9275 8.728 32.9275ZM7.54 29.9575H7.914V30.359C7.914 30.6633 7.85533 30.9493 7.738 31.217C7.62433 31.481 7.463 31.7138 7.254 31.9155C7.045 32.1135 6.803 32.2657 6.528 32.372L6.2915 32.009C6.4785 31.943 6.64717 31.8532 6.7975 31.7395C6.9515 31.6258 7.0835 31.4957 7.1935 31.349C7.30717 31.2023 7.39333 31.0447 7.452 30.876C7.51067 30.7073 7.54 30.535 7.54 30.359V29.9575ZM7.628 29.9575H8.002V30.3535C8.002 30.5662 8.0515 30.7733 8.1505 30.975C8.2495 31.1767 8.39067 31.3545 8.574 31.5085C8.75733 31.6625 8.96817 31.7835 9.2065 31.8715L8.9755 32.2345C8.70417 32.1355 8.46767 31.9925 8.266 31.8055C8.06433 31.6148 7.90667 31.3948 7.793 31.1455C7.683 30.8962 7.628 30.6322 7.628 30.3535V29.9575ZM6.4345 29.8145H9.091V30.1885H6.4345V29.8145ZM16.7391 29.4515H17.1956V31.9815H16.7391V29.4515ZM16.9921 30.524H17.9271V30.9035H16.9921V30.524ZM13.5381 29.732H15.8261V31.7285H13.5381V29.732ZM15.3806 30.1005H13.9836V31.36H15.3806V30.1005ZM14.0331 32.218H17.1956V33.439H14.4951V34.187H14.0496V33.098H16.7446V32.581H14.0331V32.218ZM14.0496 33.9945H17.3716V34.363H14.0496V33.9945ZM27.4419 29.457H27.8984V33.1035H27.4419V29.457ZM24.7029 33.945H28.0524V34.319H24.7029V33.945ZM24.7029 32.768H25.1594V34.121H24.7029V32.768ZM25.1154 29.732H25.4949V30.2325C25.4949 30.5588 25.438 30.865 25.3244 31.151C25.2107 31.4333 25.0494 31.6827 24.8404 31.899C24.635 32.1117 24.393 32.2748 24.1144 32.3885L23.8724 32.0255C24.1254 31.9265 24.3435 31.7853 24.5269 31.602C24.7139 31.4187 24.8587 31.2097 24.9614 30.975C25.064 30.7367 25.1154 30.4892 25.1154 30.2325V29.732ZM25.1979 29.732H25.5774V30.2325C25.5774 30.4195 25.6067 30.601 25.6654 30.777C25.724 30.9493 25.8084 31.1107 25.9184 31.261C26.0284 31.4113 26.1585 31.5452 26.3089 31.6625C26.4629 31.7762 26.6315 31.866 26.8149 31.932L26.5784 32.295C26.3034 32.1887 26.0614 32.0347 25.8524 31.833C25.647 31.6277 25.4857 31.3893 25.3684 31.118C25.2547 30.843 25.1979 30.5478 25.1979 30.2325V29.732ZM30.1189 29.8145H30.5754V31.9155H30.1189V29.8145ZM30.1189 31.767H30.5149C30.8743 31.767 31.2409 31.7523 31.6149 31.723C31.9889 31.6937 32.3794 31.6368 32.7864 31.5525L32.8414 31.932C32.4234 32.0163 32.0238 32.075 31.6424 32.108C31.2611 32.1373 30.8853 32.152 30.5149 32.152H30.1189V31.767ZM33.2869 29.457H33.7434V33.0485H33.2869V29.457ZM33.6004 30.9255H34.4749V31.316H33.6004V30.9255ZM30.6579 33.945H33.9194V34.319H30.6579V33.945ZM30.6579 32.702H31.1144V34.121H30.6579V32.702ZM39.308 29.4515H39.7645V34.4345H39.308V29.4515ZM39.66 31.415H40.5785V31.7945H39.66V31.415ZM36.1565 32.8065H36.547C36.8513 32.8065 37.13 32.8028 37.383 32.7955C37.6397 32.7845 37.8853 32.7662 38.12 32.7405C38.3583 32.7148 38.6003 32.68 38.846 32.636L38.901 33.0265C38.6443 33.0705 38.395 33.1053 38.153 33.131C37.9147 33.1567 37.6653 33.1732 37.405 33.1805C37.1447 33.1878 36.8587 33.1915 36.547 33.1915H36.1565V32.8065ZM36.1565 29.9355H38.461V30.3095H36.6075V32.9825H36.1565V29.9355ZM42.6231 32.8945H42.3096L42.1721 30.073H42.7606L42.6231 32.8945ZM42.1226 33.703C42.1226 33.5673 42.1556 33.472 42.2216 33.417C42.2876 33.362 42.3682 33.3345 42.4636 33.3345C42.5552 33.3345 42.6341 33.362 42.7001 33.417C42.7697 33.472 42.8046 33.5673 42.8046 33.703C42.8046 33.835 42.7697 33.9303 42.7001 33.989C42.6341 34.0477 42.5552 34.077 42.4636 34.077C42.3682 34.077 42.2876 34.0477 42.2216 33.989C42.1556 33.9303 42.1226 33.835 42.1226 33.703Z" fill="black"/>
</svg>
