<svg width="36" height="36" viewBox="0 0 36 36" fill="none" xmlns="http://www.w3.org/2000/svg">
<path d="M28.166 9.63086C28.1895 9.75422 28.2178 9.89037 28.2441 10.0391C28.3746 10.7759 28.5308 11.8004 28.6348 12.9502C28.8482 15.3103 28.8176 17.97 28.0742 19.7998C27.1324 22.1181 24.8953 24.3826 22.5928 26.1104C21.4604 26.9601 20.3571 27.6466 19.4678 28.1143C19.0221 28.3486 18.6457 28.5197 18.3574 28.6289C18.1565 28.705 18.0433 28.7327 18 28.7432C17.9567 28.7327 17.8435 28.705 17.6426 28.6289C17.3543 28.5197 16.9779 28.3486 16.5322 28.1143C15.6429 27.6466 14.5396 26.9601 13.4072 26.1104C11.1047 24.3826 8.86759 22.1181 7.92578 19.7998C7.18245 17.97 7.15178 15.3103 7.36523 12.9502C7.46924 11.8004 7.62542 10.7759 7.75586 10.0391C7.78217 9.89044 7.80956 9.75417 7.83301 9.63086L18 7.28223L28.166 9.63086Z" stroke="currentColor" stroke-width="2.5"/>
<path d="M18 17C16.6193 17 15.5 15.8807 15.5 14.5C15.5 13.1193 16.6193 12 18 12C19.3807 12 20.5 13.1193 20.5 14.5C20.5 15.8807 19.3807 17 18 17Z" stroke="currentColor" stroke-width="2" stroke-linecap="round" stroke-linejoin="round"/>
<path d="M22.5 23C21.9375 21.2 20.8125 20 18 20C14.8934 20 14.0625 21.2 13.5 23" stroke="currentColor" stroke-width="2" stroke-linecap="round" stroke-linejoin="round"/>
</svg>
