<svg width="19" height="25" viewBox="0 0 19 25" fill="none" xmlns="http://www.w3.org/2000/svg">
<g clip-path="url(#clip0_987_826)">
<path d="M3.68047 11.3781C3.18157 11.9 2.73578 12.3679 2.36725 12.7555C1.95076 13.1935 2.26213 13.9144 2.86653 13.9144H7.11328C7.60793 13.9144 7.94377 14.4175 7.75225 14.8736C6.72803 17.3128 4.15861 23.5606 4.71313 23.5606C5.26765 23.5606 7.58496 20.8828 10.2252 18.0158M8.05583 6.84662C10.7807 4.06035 12.9813 1.51221 13.6703 1.51221C14.3593 1.51221 11.6554 7.76007 10.6312 10.1992C10.4397 10.6553 10.7755 11.1584 11.2702 11.1584H14.892C15.4865 11.1584 15.801 11.86 15.4045 12.3029C15.1503 12.5867 14.8566 12.9143 14.5323 13.2751M1.26807 4.54386L17.8044 21.0802" stroke="#666666" stroke-width="2.06704" stroke-linecap="round"/>
</g>
<defs>
<clipPath id="clip0_987_826">
<rect width="19" height="25" fill="white"/>
</clipPath>
</defs>
</svg>
