<svg width="22" height="26" viewBox="0 0 22 26" fill="none" xmlns="http://www.w3.org/2000/svg">
<g clip-path="url(#clip0_939_1875)">
<path d="M14.5 0.75H7.5V3.08333H14.5V0.75ZM19.2017 8.205L20.8583 6.54833C20.3567 5.95333 19.8083 5.39333 19.2133 4.90333L17.5567 6.56C15.7483 5.11333 13.4733 4.25 11 4.25C5.20167 4.25 0.5 8.95167 0.5 14.75C0.5 20.5483 5.19 25.25 11 25.25C16.81 25.25 21.5 20.5483 21.5 14.75C21.5 12.2767 20.6367 10.0017 19.2017 8.205ZM11 22.9167C6.485 22.9167 2.83333 19.265 2.83333 14.75C2.83333 10.235 6.485 6.58333 11 6.58333C15.515 6.58333 19.1667 10.235 19.1667 14.75C19.1667 19.265 15.515 22.9167 11 22.9167Z" fill="#EFEFEF"/>
<path d="M9.72852 14.8462L8.38086 14.5239L8.86719 10.1997H13.6602V11.5649H10.2559L10.0449 13.4575C10.1582 13.3911 10.3301 13.3208 10.5606 13.2466C10.791 13.1685 11.0488 13.1294 11.334 13.1294C11.7481 13.1294 12.1152 13.1938 12.4356 13.3228C12.7559 13.4517 13.0273 13.6392 13.25 13.8853C13.4766 14.1313 13.6484 14.4321 13.7656 14.7876C13.8828 15.1431 13.9414 15.5454 13.9414 15.9946C13.9414 16.3735 13.8828 16.7349 13.7656 17.0786C13.6484 17.4185 13.4707 17.7231 13.2324 17.9927C12.9941 18.2583 12.6953 18.4673 12.3359 18.6196C11.9766 18.772 11.5508 18.8481 11.0586 18.8481C10.6914 18.8481 10.3359 18.7935 9.99219 18.6841C9.65235 18.5747 9.34571 18.4126 9.07227 18.1978C8.80274 17.9829 8.58594 17.7231 8.42188 17.4185C8.26172 17.1099 8.17774 16.7583 8.16993 16.3638H9.84571C9.86915 16.606 9.93165 16.8149 10.0332 16.9907C10.1387 17.1626 10.2773 17.2954 10.4492 17.3892C10.6211 17.4829 10.8223 17.5298 11.0527 17.5298C11.2676 17.5298 11.4512 17.4888 11.6035 17.4067C11.7559 17.3247 11.8789 17.2114 11.9727 17.0669C12.0664 16.9185 12.1348 16.7466 12.1777 16.5513C12.2246 16.3521 12.2481 16.1372 12.2481 15.9067C12.2481 15.6763 12.2207 15.4673 12.166 15.2798C12.1113 15.0923 12.0273 14.9302 11.9141 14.7935C11.8008 14.6567 11.6563 14.5513 11.4805 14.4771C11.3086 14.4028 11.1074 14.3657 10.877 14.3657C10.5645 14.3657 10.3223 14.4146 10.1504 14.5122C9.98243 14.6099 9.8418 14.7212 9.72852 14.8462Z" fill="white"/>
</g>
<defs>
<clipPath id="clip0_939_1875">
<rect width="22" height="26" fill="white"/>
</clipPath>
</defs>
</svg>
