<svg width="22" height="25" viewBox="0 0 22 25" fill="none" xmlns="http://www.w3.org/2000/svg">
<g clip-path="url(#clip0_987_828)">
<path d="M14.5728 0.286621H7.57275V2.61995H14.5728V0.286621ZM9.90609 15.4533H12.2394V8.45329H9.90609V15.4533ZM19.2744 7.74162L20.9311 6.08495C20.4294 5.48995 19.8811 4.92995 19.2861 4.43995L17.6294 6.09662C15.8211 4.64995 13.5461 3.78662 11.0728 3.78662C5.27442 3.78662 0.572754 8.48829 0.572754 14.2866C0.572754 20.085 5.26275 24.7866 11.0728 24.7866C16.8828 24.7866 21.5728 20.085 21.5728 14.2866C21.5728 11.8133 20.7094 9.53829 19.2744 7.74162ZM11.0728 22.4533C6.55775 22.4533 2.90609 18.8016 2.90609 14.2866C2.90609 9.77162 6.55775 6.11995 11.0728 6.11995C15.5878 6.11995 19.2394 9.77162 19.2394 14.2866C19.2394 18.8016 15.5878 22.4533 11.0728 22.4533Z" fill="#666666"/>
</g>
<defs>
<clipPath id="clip0_987_828">
<rect width="22" height="25" fill="white"/>
</clipPath>
</defs>
</svg>
