<svg width="22" height="26" viewBox="0 0 22 26" fill="none" xmlns="http://www.w3.org/2000/svg">
<g clip-path="url(#clip0_939_1869)">
<path d="M14.5 0.75H7.5V3.08333H14.5V0.75ZM19.2017 8.205L20.8583 6.54833C20.3567 5.95333 19.8083 5.39333 19.2133 4.90333L17.5567 6.56C15.7483 5.11333 13.4733 4.25 11 4.25C5.20167 4.25 0.5 8.95167 0.5 14.75C0.5 20.5483 5.19 25.25 11 25.25C16.81 25.25 21.5 20.5483 21.5 14.75C21.5 12.2767 20.6367 10.0017 19.2017 8.205ZM11 22.9167C6.485 22.9167 2.83333 19.265 2.83333 14.75C2.83333 10.235 6.485 6.58333 11 6.58333C15.515 6.58333 19.1667 10.235 19.1667 14.75C19.1667 19.265 15.515 22.9167 11 22.9167Z" fill="#EFEFEF"/>
<path d="M12.2539 10.1821V18.731H10.5664V12.1274L8.53907 12.772V11.4419L12.0723 10.1821H12.2539Z" fill="white"/>
</g>
<defs>
<clipPath id="clip0_939_1869">
<rect width="22" height="26" fill="white"/>
</clipPath>
</defs>
</svg>
