<svg width="22" height="26" viewBox="0 0 22 26" fill="none" xmlns="http://www.w3.org/2000/svg">
<g clip-path="url(#clip0_939_1872)">
<path d="M14.5 0.75H7.5V3.08333H14.5V0.75ZM19.2017 8.205L20.8583 6.54833C20.3567 5.95333 19.8083 5.39333 19.2133 4.90333L17.5567 6.56C15.7483 5.11333 13.4733 4.25 11 4.25C5.20167 4.25 0.5 8.95167 0.5 14.75C0.5 20.5483 5.19 25.25 11 25.25C16.81 25.25 21.5 20.5483 21.5 14.75C21.5 12.2767 20.6367 10.0017 19.2017 8.205ZM11 22.9167C6.485 22.9167 2.83333 19.265 2.83333 14.75C2.83333 10.235 6.485 6.58333 11 6.58333C15.515 6.58333 19.1667 10.235 19.1667 14.75C19.1667 19.265 15.515 22.9167 11 22.9167Z" fill="#EFEFEF"/>
<path d="M9.86915 13.7329H10.7715C11.0606 13.7329 11.2988 13.6841 11.4863 13.5864C11.6738 13.4849 11.8125 13.3442 11.9023 13.1646C11.9961 12.981 12.043 12.7681 12.043 12.5259C12.043 12.3071 12 12.1138 11.9141 11.9458C11.832 11.7739 11.7051 11.6411 11.5332 11.5474C11.3613 11.4497 11.1445 11.4009 10.8828 11.4009C10.6758 11.4009 10.4844 11.4419 10.3086 11.5239C10.1328 11.606 9.99219 11.7212 9.88672 11.8696C9.78125 12.0181 9.72852 12.1978 9.72852 12.4087H8.03516C8.03516 11.9399 8.16016 11.5317 8.41016 11.1841C8.66407 10.8364 9.00391 10.5649 9.42969 10.3696C9.85547 10.1743 10.3242 10.0767 10.8359 10.0767C11.4141 10.0767 11.9199 10.1704 12.3535 10.3579C12.7871 10.5415 13.125 10.813 13.3672 11.1724C13.6094 11.5317 13.7305 11.9771 13.7305 12.5083C13.7305 12.7778 13.668 13.0396 13.543 13.2935C13.418 13.5435 13.2383 13.77 13.0039 13.9731C12.7734 14.1724 12.4922 14.3325 12.1602 14.4536C11.8281 14.5708 11.4551 14.6294 11.041 14.6294H9.86915V13.7329ZM9.86915 15.0161V14.1431H11.041C11.5059 14.1431 11.9141 14.1958 12.2656 14.3013C12.6172 14.4067 12.9121 14.5591 13.1504 14.7583C13.3887 14.9536 13.5684 15.186 13.6895 15.4556C13.8106 15.7212 13.8711 16.0161 13.8711 16.3403C13.8711 16.7388 13.7949 17.0942 13.6426 17.4067C13.4902 17.7153 13.2754 17.9771 12.9981 18.1919C12.7246 18.4067 12.4043 18.5708 12.0371 18.6841C11.6699 18.7935 11.2695 18.8481 10.8359 18.8481C10.4766 18.8481 10.1231 18.7993 9.7754 18.7017C9.43165 18.6001 9.11915 18.4497 8.8379 18.2505C8.56055 18.0474 8.3379 17.7935 8.16993 17.4888C8.00586 17.1802 7.92383 16.8149 7.92383 16.3931H9.61719C9.61719 16.6118 9.67188 16.8071 9.78125 16.979C9.89063 17.1509 10.041 17.2856 10.2324 17.3833C10.4277 17.481 10.6445 17.5298 10.8828 17.5298C11.1523 17.5298 11.3828 17.481 11.5742 17.3833C11.7695 17.2817 11.918 17.1411 12.0195 16.9614C12.125 16.7778 12.1777 16.5649 12.1777 16.3228C12.1777 16.0103 12.1211 15.7603 12.0078 15.5728C11.8945 15.3813 11.7324 15.2407 11.5215 15.1509C11.3106 15.061 11.0606 15.0161 10.7715 15.0161H9.86915Z" fill="white"/>
</g>
<defs>
<clipPath id="clip0_939_1872">
<rect width="22" height="26" fill="white"/>
</clipPath>
</defs>
</svg>
