<svg width="27" height="25" viewBox="0 0 27 25" fill="none" xmlns="http://www.w3.org/2000/svg">
<path d="M13.5807 17.3042C13.5265 17.0405 13.4993 16.7711 13.5 16.5V16.2647C13.5541 15.2838 13.9681 14.3574 14.6628 13.6628C15.3574 12.9681 16.2838 12.5541 17.2647 12.5H17.5C17.7717 12.4993 18.0418 12.5267 18.3061 12.5811M13.5807 17.3042C13.6507 17.6448 13.7657 17.9758 13.9235 18.2882C14.2556 18.9526 14.766 19.5114 15.3977 19.902C16.0293 20.2926 16.7573 20.4997 17.5 20.5C18.0112 20.5013 18.5168 20.4032 18.9888 20.2123C19.1869 20.1322 19.4019 20.0957 19.6125 20.1314L20.2043 20.1944C20.7745 20.2552 21.2554 19.7742 21.1945 19.204L21.1314 18.6125C21.0957 18.4019 21.1322 18.1869 21.2123 17.9888C21.4032 17.5168 21.5013 17.0112 21.5 16.5C21.4997 15.7573 21.2926 15.0293 20.902 14.3977C20.5114 13.766 19.9526 13.2556 19.2882 12.9235C18.9763 12.766 18.646 12.6512 18.3061 12.5811M13.5807 17.3042C13.0663 17.4334 12.5355 17.4998 12 17.5C11.1692 17.5021 10.3477 17.3428 9.5807 17.0326C9.25885 16.9024 8.90945 16.843 8.56716 16.901L7.15904 17.051C6.46207 17.1252 5.87437 16.5374 5.94875 15.8404L6.09899 14.4328C6.15697 14.0905 6.0976 13.7411 5.96744 13.4193C5.65723 12.6523 5.49786 11.8308 5.50002 11C5.50049 9.79311 5.83696 8.61019 6.47175 7.58373C7.10653 6.55726 8.01456 5.7278 9.09413 5.18825C9.99504 4.7332 10.9907 4.49739 12 4.50002H12.3824C13.9763 4.58796 15.4817 5.26072 16.6105 6.3895C17.7393 7.51827 18.412 9.02374 18.5 10.6176V11C18.5014 11.5349 18.4358 12.066 18.3061 12.5811" stroke="#F9F9F9" stroke-width="1.5" stroke-linecap="round" stroke-linejoin="round"/>
</svg>
