<svg width="36" height="36" viewBox="0 0 36 36" fill="none" xmlns="http://www.w3.org/2000/svg">
<circle cx="18" cy="11" r="3.75" stroke="currentColor" stroke-width="2.5"/>
<path d="M18.1357 28.0693C18.0381 28.1653 17.8813 28.1648 17.7842 28.0684L10.5527 20.8877C10.4965 20.8319 10.4884 20.7786 10.4902 20.752C10.4912 20.7391 10.494 20.7325 10.4951 20.7305C10.4952 20.7303 10.4991 20.7224 10.5186 20.71C12.1216 19.6851 14.9277 18.2501 17.9551 18.25C20.9826 18.25 23.8275 19.6844 25.4609 20.7119C25.4814 20.7248 25.4859 20.7337 25.4863 20.7344C25.4878 20.737 25.4912 20.7437 25.4922 20.7568C25.4943 20.7845 25.486 20.8392 25.4287 20.8955L18.1357 28.0693Z" stroke="currentColor" stroke-width="2.5"/>
</svg>
