<svg width="36" height="36" viewBox="0 0 36 36" fill="none" xmlns="http://www.w3.org/2000/svg">
<path d="M29 22.875C29 25.1532 27.1532 27 24.875 27H11.125C8.84685 27 7.00003 25.1532 7.00002 22.875L7 14.75C7 13.2312 8.23121 12 9.75 12H11.5282C12.4477 12 13.3064 11.5405 13.8164 10.7754L14.1836 10.2246C14.6936 9.45953 15.5523 9 16.4718 9H19.5282C20.4477 9 21.3064 9.45953 21.8164 10.2246L22.1836 10.7754C22.6936 11.5405 23.5523 12 24.4718 12H26.25C27.7688 12 29 13.2312 29 14.75V22.875Z" stroke="currentColor" stroke-width="2.5" stroke-linecap="round" stroke-linejoin="round"/>
<path d="M18 23C20.2091 23 22 21.2091 22 19C22 16.7909 20.2091 15 18 15C15.7909 15 14 16.7909 14 19C14 21.2091 15.7909 23 18 23Z" stroke="currentColor" stroke-width="2.5" stroke-linecap="round" stroke-linejoin="round"/>
</svg>
