<svg width="27" height="25" viewBox="0 0 27 25" fill="none" xmlns="http://www.w3.org/2000/svg">
<path d="M21.5 15.9908C21.5 17.6477 20.1568 18.9908 18.5 18.9908H8.50001C6.84316 18.9908 5.50002 17.6477 5.50001 15.9908L5.5 10.0817C5.5 8.97715 6.39543 8.08172 7.5 8.08172H8.79327C9.46197 8.08172 10.0864 7.74752 10.4574 7.19112L10.7244 6.7905C11.0954 6.2341 11.7198 5.8999 12.3885 5.8999H14.6114C15.2802 5.8999 15.9046 6.2341 16.2755 6.7905L16.5426 7.19112C16.9136 7.74752 17.538 8.08172 18.2067 8.08172H19.5C20.6046 8.08172 21.5 8.97715 21.5 10.0817V15.9908Z" stroke="#F9F9F9" stroke-width="1.5" stroke-linecap="round" stroke-linejoin="round"/>
<path d="M13.5 16.0817C15.1066 16.0817 16.4091 14.7793 16.4091 13.1726C16.4091 11.566 15.1066 10.2635 13.5 10.2635C11.8933 10.2635 10.5909 11.566 10.5909 13.1726C10.5909 14.7793 11.8933 16.0817 13.5 16.0817Z" stroke="#F9F9F9" stroke-width="1.5" stroke-linecap="round" stroke-linejoin="round"/>
</svg>
