<svg width="141" height="40" viewBox="0 0 141 40" fill="none" xmlns="http://www.w3.org/2000/svg">
<path d="M9.31323e-09 40L6.64062 -1.19209e-06H23.3203C26.3151 -1.19209e-06 28.7565 0.423176 30.6445 1.26953C32.5326 2.11588 33.8607 3.30078 34.6289 4.82422C35.4102 6.34766 35.6315 8.11198 35.293 10.1172C35.0195 11.6276 34.4596 12.9818 33.6133 14.1797C32.7799 15.3646 31.7383 16.3542 30.4883 17.1484C29.2383 17.9297 27.8581 18.4766 26.3477 18.7891L26.2695 19.1797C27.8841 19.2448 29.3099 19.6745 30.5469 20.4687C31.7969 21.263 32.7214 22.3763 33.3203 23.8086C33.9193 25.2279 34.056 26.8945 33.7305 28.8086C33.3789 30.957 32.513 32.8776 31.1328 34.5703C29.7656 36.25 27.9622 37.5781 25.7227 38.5547C23.4831 39.5182 20.8919 40 17.9492 40H9.31323e-09ZM10.9961 32.207H16.9727C19.043 32.207 20.6445 31.8099 21.7773 31.0156C22.9232 30.2083 23.6003 29.1016 23.8086 27.6953C23.9779 26.6667 23.8867 25.7812 23.5352 25.0391C23.1836 24.2839 22.5977 23.7044 21.7773 23.3008C20.957 22.8841 19.9219 22.6758 18.6719 22.6758H12.5195L10.9961 32.207ZM13.5937 16.4453H18.9648C20.0065 16.4453 20.9635 16.2695 21.8359 15.918C22.7214 15.5664 23.4505 15.0586 24.0234 14.3945C24.6094 13.7305 24.974 12.9297 25.1172 11.9922C25.3385 10.651 25.0326 9.59635 24.1992 8.82812C23.3659 8.0599 22.1484 7.67578 20.5469 7.67578H15.0391L13.5937 16.4453ZM36.5234 40L43.1641 -1.19209e-06H71.0547L69.7266 7.85156H51.5039L50.1758 16.0547H66.9727L65.6445 23.9258H48.8477L47.5195 32.1484H65.7422L64.4141 40H36.5234ZM74.4727 7.85156L75.8008 -1.19209e-06H109.609L108.281 7.85156H96.1523L90.8398 40H81.3086L86.6211 7.85156H74.4727ZM111.348 40H100.957L121.094 -1.19209e-06H133.965L140.82 40H130.43L126.035 10.0781H125.723L111.348 40ZM112.598 24.2578H134.316L133.066 31.6016H111.348L112.598 24.2578Z" fill="white"/>
</svg>
