<svg width="138" height="29" viewBox="0 0 138 29" fill="none" xmlns="http://www.w3.org/2000/svg">
<path d="M9.37346 1.37494C9.23598 1.37494 7.98285 2.04858 6.10212 3.19297C5.13365 3.78227 4.66965 5.49967 4.11412 7.73326C3.79137 9.03089 4.02643 9.64982 4.36429 10.1195C5.48178 11.6731 6.54809 11.9949 7.35713 12.1854C8.64251 12.4883 11.1923 11.5474 12.4742 10.8063C13.625 10.1409 13.5928 8.88953 13.9619 7.96093C14.2407 7.25932 14.4001 6.35078 14.3245 5.74422C14.2484 5.13365 13.8469 4.54358 13.2499 3.71122C12.6411 2.86242 11.7231 1.89069 11.2361 1.57053C11.1107 1.487 10.9732 1.39077 10.8061 1.32057C10.6391 1.25038 10.4466 1.20913 9.99836 1" stroke="black" stroke-width="2" stroke-linecap="round"/>
<path d="M9.29029 12.415C9.29029 18.7173 9.09782 19.6314 8.97117 20.3489C8.94368 20.4958 8.88869 20.6195 8.86036 20.8345C8.83203 21.0495 8.83203 21.3519 8.83203 21.6635" stroke="black" stroke-width="2" stroke-linecap="round"/>
<path d="M1 22.9549C3.47459 22.8449 5.17556 22.747 6.27496 22.5883C6.95134 22.4906 7.85553 22.2783 9.58087 22.1998C11.3062 22.1213 13.822 22.1625 15.668 22.2731C17.5139 22.3837 18.6138 22.5624 19.8719 22.8715" stroke="black" stroke-width="2" stroke-linecap="round"/>
<path d="M21.7051 1.375C22.1208 5.01231 22.3158 5.48266 22.5512 6.11463C22.6965 6.50481 22.7182 6.95533 22.8703 7.29527C22.9674 7.429 23.1048 7.48399 24.6261 7.53981C26.1473 7.59564 29.048 7.65063 32.2867 7.58231" stroke="black" stroke-width="2" stroke-linecap="round"/>
<path d="M22.4551 12.4566C22.4963 12.4566 22.5376 12.4566 24.1604 12.4429C25.7833 12.4291 28.9865 12.4017 30.7191 12.3737C32.6167 12.3183 32.9654 12.29 33.2981 12.2694C33.452 12.2488 33.5757 12.2075 33.8699 12.04" stroke="black" stroke-width="2" stroke-linecap="round"/>
<path d="M23.7461 16.5393C23.7873 16.5393 23.8286 16.5393 25.0046 16.5118C26.1807 16.4843 28.4903 16.4293 29.7488 16.4147C31.1448 16.3985 31.4102 16.456 31.6252 16.6278C32.0438 16.9624 31.8281 18.3223 31.7044 19.6202C31.595 20.767 29.9159 20.5386 29.1783 20.7596C28.3997 20.9929 27.5538 21.1485 26.8041 21.2258C26.1103 21.2973 25.4583 21.5101 24.7488 21.6422C24.5296 21.683 24.2243 21.6634 24.0754 22.124C23.6483 23.4449 24.0506 24.5921 24.2652 24.8279C24.6561 25.2576 25.1742 25.4395 25.6949 25.6549C27.3076 26.3219 30.3092 25.8719 30.9859 25.6705C31.2423 25.5803 32.3459 25.5378 33.8936 25.5172C34.4652 25.4966 34.6026 25.4553 34.8693 25.4128" stroke="black" stroke-width="2" stroke-linecap="round"/>
<path d="M40.9936 3.29124C39.3709 4.00946 38.3474 5.56087 37.434 7.60115C36.8797 8.83932 37.4933 9.88557 37.6664 10.232C38.0561 11.0117 39.0331 11.5924 41.4206 12.4326C42.4576 12.7976 44.4226 12.6926 46.7064 12.6443C47.5197 12.6271 47.6292 12.5547 47.7614 12.3889C49.0567 10.7652 48.1732 7.51471 48.056 7.15435C47.6817 6.00419 45.8711 5.40339 45.411 5.11157C44.9287 4.80571 44.3164 4.40356 43.7036 4.04258C43.1607 3.72279 42.6625 3.50121 42.1692 3.10544C41.9959 2.98713 41.7485 2.84965 41.511 2.77883C41.2736 2.70801 41.0536 2.70801 40.827 2.70801" stroke="black" stroke-width="2" stroke-linecap="round"/>
<path d="M38.4521 18.6217C42.0815 18.7042 44.8448 18.7467 46.2744 18.726C46.9616 18.6642 47.3373 18.6217 47.7325 18.5942C47.9077 18.5667 48.0314 18.5117 48.4088 18.3301" stroke="black" stroke-width="2" stroke-linecap="round"/>
<path d="M52.9916 4.33301C52.8266 6.4914 52.6617 8.64979 52.6042 10.5041C52.5007 13.8415 52.7271 15.5653 52.9068 16.2969C53.0178 16.8359 53.1691 17.7158 53.2607 18.8702C53.3524 20.0246 53.3799 21.4268 53.4082 22.8716" stroke="black" stroke-width="2" stroke-linecap="round"/>
<path d="M65.8364 5.83541C65.9741 12.4442 66.1311 16.2789 66.3475 16.948C66.5955 17.7147 69.0203 17.4132 72.1317 17.2497C73.7861 17.1628 75.5701 16.7592 76.4578 16.4015C77.4791 15.9898 77.2056 13.4163 77.1712 10.4021C77.1448 8.0924 76.7561 7.12462 76.2429 6.49827C75.6961 5.83093 75.0512 5.50633 74.7826 5.28938C74.5023 5.06293 72.3403 5.10476 69.2302 5.21741C68.0649 5.27842 67.7379 5.34726 67.3285 5.38273C66.9191 5.41819 66.4372 5.41819 65.9407 5.41819" stroke="black" stroke-width="2" stroke-linecap="round"/>
<path d="M78.8223 10.2686C79.459 10.3718 80.0958 10.4751 80.5099 10.5025C80.924 10.5298 81.0961 10.4782 81.2734 10.425" stroke="black" stroke-width="2" stroke-linecap="round"/>
<path d="M81.9512 3.43652C81.9512 6.55158 81.9512 9.66664 81.9512 12.0286C81.9512 14.3906 81.9512 15.9051 82.0372 16.8488C82.1233 17.7925 82.2954 18.1195 82.4727 18.6128" stroke="black" stroke-width="2" stroke-linecap="round"/>
<path d="M71.6777 23.1496C73.4848 22.771 75.2919 22.3924 77.264 22.2059C79.2362 22.0195 81.3186 22.0367 82.3914 23.0437C83.4642 24.0508 83.4642 26.0472 83.6206 27.9998" stroke="black" stroke-width="2" stroke-linecap="round"/>
<path d="M87.3965 5.49902C87.8095 11.6947 88.1084 15.2995 88.2904 16.0114C88.417 16.5068 91.3496 16.5736 95.6337 16.4088C97.165 16.3499 97.3878 16.2612 97.5461 16.1224C97.8642 15.8437 97.9479 13.3787 98.0781 9.98099C98.191 8.59687 98.2097 8.23024 98.1576 7.61641C98.1399 7.19189 98.1399 6.5379 98.1399 5.86409" stroke="black" stroke-width="2" stroke-linecap="round"/>
<path d="M88.4912 10.8184C92.0365 11.2658 94.0522 11.4963 94.4251 11.5308C94.7808 11.634 95.5777 11.7049 96.6197 11.7308C97.0421 11.7566 97.2486 11.8082 97.67 11.8614" stroke="black" stroke-width="2" stroke-linecap="round"/>
<path d="M101.373 4.2998C101.425 8.01722 101.476 11.7346 101.503 13.8562C101.53 15.9777 101.53 16.3908 101.573 16.7154C101.616 17.0401 101.702 17.2638 101.79 17.6508" stroke="black" stroke-width="2" stroke-linecap="round"/>
<path d="M102.051 12.3305C102.756 12.2961 103.462 12.2617 103.912 12.2095C104.361 12.1573 104.533 12.0885 105.023 12.0176" stroke="black" stroke-width="2" stroke-linecap="round"/>
<path d="M98.5907 19.9918C94.5291 19.7853 92.1097 19.7477 91.5368 19.9123C90.5218 20.2038 89.9532 21.5877 89.4134 22.8722C88.9379 24.0037 89.9323 24.891 90.4437 25.6042C91.0702 26.478 92.4127 26.9072 93.7869 27.188C94.7207 27.3789 96.2339 27.5017 97.8924 27.321C99.7481 27.1188 99.7193 25.3155 100.128 24.1009C100.104 21.7671 99.8611 21.0724 99.5829 20.4461C99.4788 20.3058 99.3239 20.2025 98.8514 19.7832" stroke="black" stroke-width="2" stroke-linecap="round"/>
<path d="M115.275 4.13867C112.339 4.65967 110.888 5.55617 109.819 6.91552C109.39 7.4609 109.173 8.02976 109.182 8.59352C109.19 9.10625 109.311 9.50879 109.502 9.80371C110.11 10.7447 111.794 11.489 112.975 11.9686C115.267 12.9001 117.376 12.0512 118.85 11.252C119.94 10.661 120.434 9.46446 120.638 7.68268C120.736 6.82792 120.041 6.279 119.441 5.49776C118.774 4.6288 117.139 4.83543 116.209 4.73008C115.99 4.69566 115.817 4.62682 115.617 4.56554C115.416 4.50426 115.193 4.45263 114.962 4.39943" stroke="black" stroke-width="2" stroke-linecap="round"/>
<path d="M108.704 14.7783C108.756 14.7783 108.807 14.7783 109.798 14.9676C110.788 15.1569 112.716 15.5356 115.24 15.7306C117.765 15.9257 120.828 15.9257 124.35 15.8214" stroke="black" stroke-width="2" stroke-linecap="round"/>
<path d="M110.061 18.2725C110.269 20.9468 110.546 25.0517 111.185 25.13C112.401 25.2787 113.413 25.1049 114.51 25.0267C116.897 25.0001 119.059 24.8624 120.411 24.6538C121.16 24.5829 122.038 24.5829 122.942 24.5829" stroke="black" stroke-width="2" stroke-linecap="round"/>
<path d="M129.604 3.72156C130.142 3.13172 130.972 2.54292 131.827 2.14917C132.736 1.73017 134.513 3.71113 135.66 4.68403C136.402 5.31372 136.557 6.13308 136.827 8.02569C136.908 8.59776 136.663 8.95244 136.455 9.25623C135.987 9.94112 134.978 10.203 134.197 10.535C133.741 10.7291 133.327 10.8664 132.954 11.0385C131.868 11.5396 132.127 12.7064 131.952 13.722C132.002 14.1656 132.107 14.5327 132.186 14.9312C132.212 15.1575 132.212 15.4329 132.421 15.9774" stroke="black" stroke-width="2" stroke-linecap="round"/>
<path d="M131.847 21.4006C130.987 21.4006 130.389 21.4522 130.085 21.6767C128.936 22.5269 129.795 24.4755 130.02 24.8487C130.484 25.6172 131.566 25.7616 132.374 26.0847C133.158 26.3977 133.808 26.4594 134.799 26.3559C135.565 26.2758 135.757 25.3318 136.089 24.8964C136.682 24.1176 134.37 23.1425 133.97 22.446C133.745 22.2194 133.466 22.0103 133.145 21.7675C132.979 21.6452 132.807 21.5247 132.317 21.2441" stroke="black" stroke-width="2" stroke-linecap="round"/>
</svg>
