<svg width="50" height="37" viewBox="0 0 50 37" fill="none" xmlns="http://www.w3.org/2000/svg">
<path d="M3.05176 1L5.18272 9.06059" stroke="#2C33FF" stroke-width="2" stroke-linecap="round"/>
<path d="M1 9.81161C5.13604 9.3824 7.53986 9.16129 8.08051 9.12227C8.34802 9.08325 8.60165 9.00521 8.85912 8.96501C9.11659 8.9248 9.37021 8.9248 9.63153 8.9248" stroke="#2C33FF" stroke-width="2" stroke-linecap="round"/>
<path d="M4.77233 12.2398C4.52297 12.4378 3.919 14.0905 3.78565 15.4731C3.71424 16.2135 3.81413 16.9768 4.25362 17.5861C4.76275 18.2918 5.43628 18.5888 6.12116 18.8721C6.95505 19.217 7.72463 18.4779 8.17242 18.045C8.76495 17.4722 9.06988 15.0842 9.19268 13.9204C9.24274 13.446 8.28446 13.1104 7.69163 12.819C7.45302 12.6691 7.21309 12.517 6.96222 12.3978C6.83585 12.3409 6.71136 12.2911 6.35675 12.0889" stroke="#2C33FF" stroke-width="2" stroke-linecap="round"/>
<path d="M7.03613 17.1064C7.07348 18.426 7.11083 19.7456 7.13007 20.5561C7.14931 21.3667 7.14931 21.6281 7.14931 21.8974" stroke="#2C33FF" stroke-width="2" stroke-linecap="round"/>
<path d="M3.33887 23.0667L15.637 22.3877" stroke="#2C33FF" stroke-width="2" stroke-linecap="round"/>
<path d="M19.7871 7.1841C19.8867 7.1841 21.6684 6.97247 24.3525 6.65181C25.3056 6.53795 25.4306 6.54279 25.5383 6.62371C25.7872 6.81068 25.9101 7.36933 26.0857 8.30187C26.3547 9.73037 26.3511 11.7374 26.2702 13.5284C26.2397 14.2031 26.0274 14.3857 25.7698 14.5068C23.8602 15.4042 21.1723 14.8037 20.8145 14.9791C20.25 15.2558 20.0534 16.2568 19.6875 17.9721C19.2227 20.1508 20.402 21.4288 20.8784 21.8074C21.0916 21.8834 21.4153 21.9456 21.9679 21.9901C22.5206 22.0347 23.2924 22.0596 24.2008 22.0098" stroke="#2C33FF" stroke-width="2" stroke-linecap="round"/>
<path d="M26.2373 18.8415C28.0549 18.8041 29.8724 18.7668 30.8523 18.7102C31.8322 18.6536 31.9193 18.5789 32.2355 18.502" stroke="#2C33FF" stroke-width="2" stroke-linecap="round"/>
<path d="M33.2172 11.4102C33.2172 11.4351 33.2172 11.46 32.8375 13.5891C32.4578 15.7183 31.6984 19.9509 30.916 24.3119" stroke="#2C33FF" stroke-width="2" stroke-linecap="round"/>
<path d="M21.3711 24.915C22.3172 28.2265 23.0162 30.3432 23.3992 30.9843C23.6949 31.252 25.093 31.2407 28.2805 30.8291C30.1982 30.4673 32.7254 29.7951 35.48 28.9515" stroke="#2C33FF" stroke-width="2" stroke-linecap="round"/>
<path d="M3.26367 25.4434C3.30102 25.4434 3.33836 25.4434 3.61281 26.8563C3.88725 28.2693 4.39766 31.0952 4.70417 32.5821C5.01068 34.069 5.09783 34.1313 5.26306 34.4595" stroke="#2C33FF" stroke-width="2" stroke-linecap="round"/>
<path d="M4.32031 25.2173C7.50726 25.1177 9.4727 25.0166 10.2059 24.9411C11.7432 24.7829 12.4646 24.84 13.1493 24.8213C13.4237 24.8139 13.5477 24.7653 13.6118 26.1528C13.6759 27.5403 13.676 30.3538 13.6573 31.965C13.6348 33.9006 13.5254 34.3579 13.4066 34.5838C13.1121 35.1438 10.5765 35.1259 9.04472 34.9384C8.48365 34.8698 7.81962 34.7238 6.89557 34.5046C6.64904 34.4597 6.41251 34.4597 6.04168 34.4597C5.67084 34.4597 5.17288 34.4597 4.65983 34.4597" stroke="#2C33FF" stroke-width="2" stroke-linecap="round"/>
<path d="M37.0059 21.2835C37.5304 18.3984 37.913 16.7623 38.1864 16.5165C38.9314 15.8465 40.294 15.6269 41.6934 15.6153C43.5413 15.5999 43.3641 19.8404 44.3718 21.6647C44.7226 22.2999 45.3675 22.3616 45.8489 22.4093C46.3168 22.4556 46.8243 22.08 47.3156 21.7121C48.2261 21.0304 48.3406 19.8302 48.539 18.9409C48.5495 18.3008 48.474 17.6905 48.3233 17.2747C48.2288 17.1024 48.0976 17.0087 47.9625 16.9122" stroke="#2C33FF" stroke-width="2" stroke-linecap="round"/>
</svg>
