<svg width="50" height="26" viewBox="0 0 50 26" fill="none" xmlns="http://www.w3.org/2000/svg">
<path d="M3.22652 2.32035C1.72025 4.9826 0.926773 7.68519 1.00532 9.9998C1.05987 11.6073 1.70325 12.4901 2.07372 13.0376C2.41004 13.5346 3.01103 13.9061 3.62883 14.2511C4.14784 14.541 5.97157 13.2825 8.32334 11.5146C10.6979 9.72947 11.5922 6.65872 11.5434 5.175C11.4855 3.41431 9.93417 2.97742 9.13008 2.56953C8.2046 2.10007 7.33455 1.54438 6.14142 1.44434C5.26355 1.62984 4.38038 1.84161 3.41599 1.94829C3.17556 2.00083 2.96539 2.10592 2.74884 2.21419" stroke="#FF0000" stroke-width="2" stroke-linecap="round"/>
<path d="M14.959 3L15.0121 16.0034" stroke="#FF0000" stroke-width="2" stroke-linecap="round"/>
<path d="M15.8083 9.4748C15.7907 9.4748 15.7732 9.4748 15.8605 9.45728C15.9478 9.43977 16.1405 9.40474 16.4062 9.32539C16.6718 9.24604 17.0046 9.12344 17.719 8.83789" stroke="#FF0000" stroke-width="2" stroke-linecap="round"/>
<path d="M5.95898 17C6.30929 21.764 6.80502 24.2182 7.5279 24.1657C9.5305 24.0201 11.2071 22.9646 12.5961 22.7061C13.0647 22.6791 13.6952 22.6791 14.0814 22.7228C14.4675 22.7666 14.5901 22.8542 14.7164 22.9444" stroke="#FF0000" stroke-width="2" stroke-linecap="round"/>
<path d="M23.8203 2.2207C25.169 2.41337 26.5176 2.60603 27.5714 2.70528C28.6252 2.80453 29.3433 2.80453 29.8271 2.83956C30.3109 2.87459 30.5386 2.94465 30.9324 3.01683" stroke="#FF0000" stroke-width="2" stroke-linecap="round"/>
<path d="M23.3423 2.37988C22.7585 12.7248 22.9336 14.0352 23.2603 14.6098C24.7817 15.0468 27.4779 15.1179 28.29 15.1267C28.6817 15.1355 29.032 15.153 29.3929 15.3833" stroke="#FF0000" stroke-width="2" stroke-linecap="round"/>
<path d="M24.0859 9.43945C26.0126 9.57957 27.9392 9.71969 29.0193 9.75684C30.0994 9.79399 30.2745 9.72394 30.4436 9.68784C30.6126 9.65175 30.7702 9.65175 30.9326 9.65175" stroke="#FF0000" stroke-width="2" stroke-linecap="round"/>
<path d="M35.0195 1C35.1246 6.84996 35.2297 12.6999 35.3014 15.8099C35.373 18.9198 35.408 19.1125 35.4441 19.311" stroke="#FF0000" stroke-width="2" stroke-linecap="round"/>
<path d="M36.0811 11.0314C36.1336 11.0314 36.1861 11.0314 36.5898 11.0051C36.9934 10.9788 37.7466 10.9263 38.2396 10.8467C38.7327 10.7671 38.9429 10.662 39.1594 10.5537" stroke="#FF0000" stroke-width="2" stroke-linecap="round"/>
<path d="M42.6621 1.58398C43.065 5.43725 43.4678 9.29051 43.7366 11.5733C44.0054 13.856 44.128 14.4516 44.4667 15.2774" stroke="#FF0000" stroke-width="2" stroke-linecap="round"/>
<path d="M43.0332 1.84961C44.436 2.04227 47.4687 2.43344 48.2208 3.0377C48.7288 3.4459 48.4299 4.85049 48.1579 6.73413C47.8859 8.61777 47.3779 11.1399 47.1163 12.7982C46.8546 14.4566 46.8546 15.1747 46.7408 15.5709C46.3992 16.0196 45.937 16.1964 45.3993 16.3821C45.0893 16.4453 44.704 16.4453 44.307 16.4453" stroke="#FF0000" stroke-width="2" stroke-linecap="round"/>
<path d="M44.2397 18.4827C44.1182 18.4827 43.4968 18.9244 42.6501 19.8082C42.0321 20.4532 42.3865 21.2376 42.4902 21.4603C42.7413 22 43.5248 22.1026 44.3162 22.2885C45.3482 22.5308 46.19 21.5022 46.264 21.2994C46.4436 20.8072 45.7865 20.2064 45.7064 19.4889C45.5789 19.2977 45.2848 19.0229 44.9111 18.6624C44.744 18.5099 44.6225 18.4189 44.4973 18.3252" stroke="#FF0000" stroke-width="2" stroke-linecap="round"/>
</svg>
