<svg width="49" height="17" viewBox="0 0 49 17" fill="none" xmlns="http://www.w3.org/2000/svg">
<rect x="0.5" y="0.5" width="48" height="16" fill="white" stroke="black"/>
<path d="M6.595 5.8365C6.84067 5.8365 7.057 5.908 7.244 6.051C7.431 6.19033 7.57767 6.39017 7.684 6.6505C7.79033 6.91083 7.8435 7.217 7.8435 7.569C7.8435 7.921 7.79033 8.22717 7.684 8.4875C7.57767 8.74783 7.431 8.9495 7.244 9.0925C7.057 9.2355 6.84067 9.307 6.595 9.307C6.353 9.307 6.13667 9.2355 5.946 9.0925C5.759 8.9495 5.61233 8.74783 5.506 8.4875C5.39967 8.22717 5.3465 7.921 5.3465 7.569C5.3465 7.217 5.39967 6.91083 5.506 6.6505C5.61233 6.39017 5.759 6.19033 5.946 6.051C6.13667 5.908 6.353 5.8365 6.595 5.8365ZM6.595 6.2435C6.43733 6.2435 6.29617 6.2985 6.1715 6.4085C6.0505 6.51483 5.95517 6.66883 5.8855 6.8705C5.81583 7.0685 5.781 7.30133 5.781 7.569C5.781 7.83667 5.81583 8.07133 5.8855 8.273C5.95517 8.471 6.0505 8.625 6.1715 8.735C6.29617 8.845 6.43917 8.9 6.6005 8.9C6.75817 8.9 6.8975 8.845 7.0185 8.735C7.14317 8.625 7.2385 8.471 7.3045 8.273C7.37417 8.07133 7.409 7.83667 7.409 7.569C7.409 7.30133 7.37417 7.0685 7.3045 6.8705C7.2385 6.66883 7.14317 6.51483 7.0185 6.4085C6.8975 6.2985 6.75633 6.2435 6.595 6.2435ZM8.971 6.7H9.8895V7.085H8.971V6.7ZM8.971 8.185H9.8895V8.5645H8.971V8.185ZM8.641 5.4515H9.0975V10.429H8.641V5.4515ZM11.8956 5.776H15.0086V6.1445H11.8956V5.776ZM11.3346 7.91H15.8281V8.2895H11.3346V7.91ZM13.3421 8.163H13.7986V10.4345H13.3421V8.163ZM14.7886 5.776H15.2396V6.2105C15.2396 6.38283 15.2359 6.56433 15.2286 6.755C15.2249 6.94567 15.2102 7.1565 15.1846 7.3875C15.1589 7.61483 15.1149 7.86783 15.0526 8.1465L14.5961 8.086C14.6951 7.68633 14.7519 7.33617 14.7666 7.0355C14.7812 6.73483 14.7886 6.45983 14.7886 6.2105V5.776ZM19.8229 9.417H24.3329V9.7965H19.8229V9.417ZM21.8414 8.2235H22.2924V9.527H21.8414V8.2235ZM20.3509 5.8035H20.8074V6.689H23.3374V5.8035H23.7884V8.35H20.3509V5.8035ZM20.8074 7.063V7.976H23.3374V7.063H20.8074ZM29.5179 5.4515H29.9689V10.4345H29.5179V5.4515ZM28.5719 7.36H29.6279V7.7395H28.5719V7.36ZM26.0694 8.856H26.4489C26.7423 8.856 27.0118 8.85233 27.2574 8.845C27.5031 8.83767 27.7414 8.823 27.9724 8.801C28.2034 8.779 28.4399 8.74417 28.6819 8.6965L28.7204 9.076C28.4711 9.12 28.2291 9.15483 27.9944 9.1805C27.7634 9.2025 27.5214 9.219 27.2684 9.23C27.0191 9.23733 26.7459 9.241 26.4489 9.241H26.0694V8.856ZM26.0529 5.9135H28.2749V7.657H26.5204V8.977H26.0694V7.283H27.8294V6.2875H26.0529V5.9135ZM36.3892 7.2555H36.8347V8.0365H36.3892V7.2555ZM36.6147 5.545C36.974 5.545 37.2839 5.58167 37.5442 5.655C37.8082 5.72833 38.0099 5.83467 38.1492 5.974C38.2922 6.11333 38.3637 6.282 38.3637 6.48C38.3637 6.678 38.2922 6.84667 38.1492 6.986C38.0099 7.12533 37.8082 7.23167 37.5442 7.305C37.2839 7.37833 36.974 7.415 36.6147 7.415C36.259 7.415 35.9492 7.37833 35.6852 7.305C35.4249 7.23167 35.2232 7.12533 35.0802 6.986C34.9372 6.84667 34.8657 6.678 34.8657 6.48C34.8657 6.282 34.9372 6.11333 35.0802 5.974C35.2232 5.83467 35.4249 5.72833 35.6852 5.655C35.9492 5.58167 36.259 5.545 36.6147 5.545ZM36.6147 5.9025C36.3544 5.9025 36.127 5.92633 35.9327 5.974C35.742 6.018 35.5935 6.084 35.4872 6.172C35.3845 6.25633 35.3332 6.359 35.3332 6.48C35.3332 6.601 35.3845 6.7055 35.4872 6.7935C35.5935 6.87783 35.742 6.94383 35.9327 6.9915C36.127 7.0355 36.3544 7.0575 36.6147 7.0575C36.8787 7.0575 37.106 7.0355 37.2967 6.9915C37.491 6.94383 37.6395 6.87783 37.7422 6.7935C37.8449 6.7055 37.8962 6.601 37.8962 6.48C37.8962 6.359 37.8449 6.25633 37.7422 6.172C37.6395 6.084 37.491 6.018 37.2967 5.974C37.106 5.92633 36.8787 5.9025 36.6147 5.9025ZM34.9207 8.724H38.3142V10.363H34.9207V8.724ZM37.8687 9.0925H35.3662V9.989H37.8687V9.0925ZM34.3707 7.888H38.8642V8.262H34.3707V7.888ZM41.0518 8.8945H40.7383L40.6008 6.073H41.1893L41.0518 8.8945ZM40.5513 9.703C40.5513 9.56733 40.5843 9.472 40.6503 9.417C40.7163 9.362 40.7969 9.3345 40.8923 9.3345C40.9839 9.3345 41.0628 9.362 41.1288 9.417C41.1984 9.472 41.2333 9.56733 41.2333 9.703C41.2333 9.835 41.1984 9.93033 41.1288 9.989C41.0628 10.0477 40.9839 10.077 40.8923 10.077C40.7969 10.077 40.7163 10.0477 40.6503 9.989C40.5843 9.93033 40.5513 9.835 40.5513 9.703ZM43.5288 8.8945H43.2153L43.0778 6.073H43.6663L43.5288 8.8945ZM43.0283 9.703C43.0283 9.56733 43.0613 9.472 43.1273 9.417C43.1933 9.362 43.274 9.3345 43.3693 9.3345C43.461 9.3345 43.5398 9.362 43.6058 9.417C43.6755 9.472 43.7103 9.56733 43.7103 9.703C43.7103 9.835 43.6755 9.93033 43.6058 9.989C43.5398 10.0477 43.461 10.077 43.3693 10.077C43.274 10.077 43.1933 10.0477 43.1273 9.989C43.0613 9.93033 43.0283 9.835 43.0283 9.703Z" fill="black"/>
</svg>
