<svg width="72" height="29" viewBox="0 0 72 29" fill="none" xmlns="http://www.w3.org/2000/svg">
<rect x="0.5" y="0.5" width="71" height="28" fill="white" stroke="black"/>
<path d="M7.595 7.8365C7.84067 7.8365 8.057 7.908 8.244 8.051C8.431 8.19033 8.57767 8.39017 8.684 8.6505C8.79033 8.91083 8.8435 9.217 8.8435 9.569C8.8435 9.921 8.79033 10.2272 8.684 10.4875C8.57767 10.7478 8.431 10.9495 8.244 11.0925C8.057 11.2355 7.84067 11.307 7.595 11.307C7.353 11.307 7.13667 11.2355 6.946 11.0925C6.759 10.9495 6.61233 10.7478 6.506 10.4875C6.39967 10.2272 6.3465 9.921 6.3465 9.569C6.3465 9.217 6.39967 8.91083 6.506 8.6505C6.61233 8.39017 6.759 8.19033 6.946 8.051C7.13667 7.908 7.353 7.8365 7.595 7.8365ZM7.595 8.2435C7.43733 8.2435 7.29617 8.2985 7.1715 8.4085C7.0505 8.51483 6.95517 8.66883 6.8855 8.8705C6.81583 9.0685 6.781 9.30133 6.781 9.569C6.781 9.83667 6.81583 10.0713 6.8855 10.273C6.95517 10.471 7.0505 10.625 7.1715 10.735C7.29617 10.845 7.43917 10.9 7.6005 10.9C7.75817 10.9 7.8975 10.845 8.0185 10.735C8.14317 10.625 8.2385 10.471 8.3045 10.273C8.37417 10.0713 8.409 9.83667 8.409 9.569C8.409 9.30133 8.37417 9.0685 8.3045 8.8705C8.2385 8.66883 8.14317 8.51483 8.0185 8.4085C7.8975 8.2985 7.75633 8.2435 7.595 8.2435ZM9.971 8.7H10.8895V9.085H9.971V8.7ZM9.971 10.185H10.8895V10.5645H9.971V10.185ZM9.641 7.4515H10.0975V12.429H9.641V7.4515ZM12.8956 7.776H16.0086V8.1445H12.8956V7.776ZM12.3346 9.91H16.8281V10.2895H12.3346V9.91ZM14.3421 10.163H14.7986V12.4345H14.3421V10.163ZM15.7886 7.776H16.2396V8.2105C16.2396 8.38283 16.2359 8.56433 16.2286 8.755C16.2249 8.94567 16.2102 9.1565 16.1846 9.3875C16.1589 9.61483 16.1149 9.86783 16.0526 10.1465L15.5961 10.086C15.6951 9.68633 15.7519 9.33617 15.7666 9.0355C15.7812 8.73483 15.7886 8.45983 15.7886 8.2105V7.776ZM21.9284 9.173H22.3849V10.1135H21.9284V9.173ZM23.7544 9.173H24.2054V10.1135H23.7544V9.173ZM23.0669 7.556C23.4262 7.556 23.736 7.5945 23.9964 7.6715C24.2604 7.7485 24.462 7.8585 24.6014 8.0015C24.7444 8.14083 24.8159 8.3095 24.8159 8.5075C24.8159 8.7055 24.7444 8.876 24.6014 9.019C24.462 9.15833 24.2604 9.2665 23.9964 9.3435C23.736 9.4205 23.4262 9.459 23.0669 9.459C22.7112 9.459 22.4014 9.4205 22.1374 9.3435C21.877 9.2665 21.6754 9.15833 21.5324 9.019C21.3894 8.876 21.3179 8.7055 21.3179 8.5075C21.3179 8.3095 21.3894 8.14083 21.5324 8.0015C21.6754 7.8585 21.877 7.7485 22.1374 7.6715C22.4014 7.5945 22.7112 7.556 23.0669 7.556ZM23.0669 7.919C22.8065 7.919 22.5792 7.94283 22.3849 7.9905C22.1942 8.0345 22.0457 8.1005 21.9394 8.1885C21.8367 8.2765 21.7854 8.38283 21.7854 8.5075C21.7854 8.6285 21.8367 8.733 21.9394 8.821C22.0457 8.909 22.1942 8.97683 22.3849 9.0245C22.5792 9.07217 22.8065 9.096 23.0669 9.096C23.3309 9.096 23.5582 9.07217 23.7489 9.0245C23.9432 8.97683 24.0917 8.909 24.1944 8.821C24.297 8.733 24.3484 8.6285 24.3484 8.5075C24.3484 8.38283 24.297 8.2765 24.1944 8.1885C24.0917 8.1005 23.9432 8.0345 23.7489 7.9905C23.5582 7.94283 23.3309 7.919 23.0669 7.919ZM20.8229 9.987H25.3164V10.3555H20.8229V9.987ZM21.3234 10.823H24.7609V12.429H24.3044V11.1915H21.3234V10.823ZM30.2539 7.4515H30.7049V12.429H30.2539V7.4515ZM30.6004 9.4975H31.5189V9.8825H30.6004V9.4975ZM26.8549 8.249H29.7864V8.623H26.8549V8.249ZM28.3454 9.03C28.5801 9.03 28.7873 9.0795 28.9669 9.1785C29.1503 9.2775 29.2933 9.41317 29.3959 9.5855C29.5023 9.75417 29.5554 9.95033 29.5554 10.174C29.5554 10.3977 29.5023 10.5957 29.3959 10.768C29.2933 10.9403 29.1503 11.076 28.9669 11.175C28.7873 11.2703 28.5801 11.318 28.3454 11.318C28.1108 11.318 27.9018 11.2703 27.7184 11.175C27.5388 11.076 27.3958 10.9403 27.2894 10.768C27.1831 10.5957 27.1299 10.3977 27.1299 10.174C27.1299 9.95033 27.1831 9.75417 27.2894 9.5855C27.3958 9.41317 27.5388 9.2775 27.7184 9.1785C27.9018 9.0795 28.1108 9.03 28.3454 9.03ZM28.3454 9.4095C28.1951 9.4095 28.0613 9.4425 27.9439 9.5085C27.8266 9.5745 27.7331 9.66433 27.6634 9.778C27.5974 9.89167 27.5644 10.0237 27.5644 10.174C27.5644 10.3243 27.5974 10.4582 27.6634 10.5755C27.7331 10.6892 27.8266 10.779 27.9439 10.845C28.0613 10.9073 28.1951 10.9385 28.3454 10.9385C28.4921 10.9385 28.6241 10.9073 28.7414 10.845C28.8588 10.779 28.9504 10.6892 29.0164 10.5755C29.0861 10.4582 29.1209 10.3243 29.1209 10.174C29.1209 10.0237 29.0861 9.89167 29.0164 9.778C28.9504 9.66433 28.8588 9.5745 28.7414 9.5085C28.6241 9.4425 28.4921 9.4095 28.3454 9.4095ZM28.1089 7.512H28.5654V8.414H28.1089V7.512ZM35.329 8.326H36.715V8.7055H35.329V8.326ZM35.329 9.393H36.726V9.767H35.329V9.393ZM33.173 7.886H35.439V10.2125H33.173V7.886ZM34.9935 8.2545H33.6185V9.8495H34.9935V8.2545ZM36.5775 7.457H37.034V11.087H36.5775V7.457ZM33.8385 11.945H37.1495V12.319H33.8385V11.945ZM33.8385 10.7625H34.295V12.1155H33.8385V10.7625ZM41.4876 9.14H42.8681V9.514H41.4876V9.14ZM40.2831 7.8805H40.6571V8.7715C40.6571 9.0465 40.6222 9.31783 40.5526 9.5855C40.4866 9.85317 40.3912 10.1025 40.2666 10.3335C40.1419 10.5645 39.9952 10.7698 39.8266 10.9495C39.6616 11.1292 39.4801 11.2722 39.2821 11.3785L38.9961 11.01C39.1794 10.922 39.3481 10.7992 39.5021 10.6415C39.6597 10.4838 39.7972 10.3042 39.9146 10.1025C40.0319 9.89717 40.1217 9.68267 40.1841 9.459C40.2501 9.23167 40.2831 9.0025 40.2831 8.7715V7.8805ZM40.3766 7.8805H40.7451V8.7715C40.7451 8.99517 40.7762 9.217 40.8386 9.437C40.9046 9.657 40.9962 9.86417 41.1136 10.0585C41.2309 10.2492 41.3666 10.4197 41.5206 10.57C41.6782 10.7203 41.8469 10.8377 42.0266 10.922L41.7516 11.2905C41.5536 11.1878 41.3702 11.0503 41.2016 10.878C41.0329 10.7057 40.8862 10.5077 40.7616 10.284C40.6406 10.0603 40.5452 9.82017 40.4756 9.5635C40.4096 9.30683 40.3766 9.04283 40.3766 8.7715V7.8805ZM42.6426 7.4515H43.0936V12.4345H42.6426V7.4515ZM45.6331 9.778H49.0486V10.1465H45.6331V9.778ZM45.0611 11.4225H49.5711V11.802H45.0611V11.4225ZM47.0796 9.9375H47.5306V11.571H47.0796V9.9375ZM45.6331 7.8475H48.9991V8.227H46.0896V9.943H45.6331V7.8475ZM6.275 17.4535H10.785V17.8275H6.275V17.4535ZM8.288 17.7065H8.739V18.592H8.288V17.7065ZM8.277 18.7955H8.673V18.977C8.673 19.1713 8.62167 19.3492 8.519 19.5105C8.42 19.6718 8.28067 19.813 8.101 19.934C7.925 20.055 7.7215 20.1558 7.4905 20.2365C7.26317 20.3208 7.02117 20.3777 6.7645 20.407L6.5995 20.055C6.82317 20.0293 7.03583 19.9853 7.2375 19.923C7.44283 19.857 7.6225 19.7763 7.7765 19.681C7.93417 19.5857 8.057 19.4793 8.145 19.362C8.233 19.241 8.277 19.1127 8.277 18.977V18.7955ZM8.354 18.7955H8.7445V18.977C8.7445 19.1163 8.7885 19.2465 8.8765 19.3675C8.9645 19.4848 9.08733 19.5912 9.245 19.6865C9.40267 19.7818 9.58233 19.8607 9.784 19.923C9.98567 19.9853 10.1983 20.0293 10.422 20.055L10.2625 20.407C10.0058 20.374 9.762 20.3172 9.531 20.2365C9.3 20.1595 9.0965 20.0605 8.9205 19.9395C8.7445 19.8185 8.60517 19.6773 8.5025 19.516C8.4035 19.3547 8.354 19.175 8.354 18.977V18.7955ZM6.7095 15.699H8.024V16.073H6.7095V15.699ZM7.859 15.699H8.3045V15.842C8.3045 15.941 8.30083 16.0748 8.2935 16.2435C8.28983 16.4122 8.2715 16.612 8.2385 16.843C8.2055 17.0703 8.14867 17.3252 8.068 17.6075L7.6225 17.5525C7.70317 17.2702 7.76 17.0208 7.793 16.8045C7.826 16.5845 7.84433 16.3938 7.848 16.2325C7.85533 16.0712 7.859 15.941 7.859 15.842V15.699ZM8.673 15.699H10.0095V16.073H8.673V15.699ZM9.806 15.699H10.246V15.897C10.246 16.062 10.2368 16.2893 10.2185 16.579C10.2038 16.8687 10.1452 17.217 10.0425 17.624L9.597 17.5635C9.66667 17.2958 9.71617 17.0575 9.7455 16.8485C9.77483 16.6358 9.79133 16.4507 9.795 16.293C9.80233 16.1353 9.806 16.0033 9.806 15.897V15.699ZM12.3346 17.4535H16.8446V17.8275H12.3346V17.4535ZM14.3476 17.7065H14.7986V18.592H14.3476V17.7065ZM14.3366 18.7955H14.7326V18.977C14.7326 19.1713 14.6812 19.3492 14.5786 19.5105C14.4796 19.6718 14.3402 19.813 14.1606 19.934C13.9846 20.055 13.7811 20.1558 13.5501 20.2365C13.3227 20.3208 13.0807 20.3777 12.8241 20.407L12.6591 20.055C12.8827 20.0293 13.0954 19.9853 13.2971 19.923C13.5024 19.857 13.6821 19.7763 13.8361 19.681C13.9937 19.5857 14.1166 19.4793 14.2046 19.362C14.2926 19.241 14.3366 19.1127 14.3366 18.977V18.7955ZM14.4136 18.7955H14.8041V18.977C14.8041 19.1163 14.8481 19.2465 14.9361 19.3675C15.0241 19.4848 15.1469 19.5912 15.3046 19.6865C15.4622 19.7818 15.6419 19.8607 15.8436 19.923C16.0452 19.9853 16.2579 20.0293 16.4816 20.055L16.3221 20.407C16.0654 20.374 15.8216 20.3172 15.5906 20.2365C15.3596 20.1595 15.1561 20.0605 14.9801 19.9395C14.8041 19.8185 14.6647 19.6773 14.5621 19.516C14.4631 19.3547 14.4136 19.175 14.4136 18.977V18.7955ZM12.7691 15.699H14.0836V16.073H12.7691V15.699ZM13.9186 15.699H14.3641V15.842C14.3641 15.941 14.3604 16.0748 14.3531 16.2435C14.3494 16.4122 14.3311 16.612 14.2981 16.843C14.2651 17.0703 14.2082 17.3252 14.1276 17.6075L13.6821 17.5525C13.7627 17.2702 13.8196 17.0208 13.8526 16.8045C13.8856 16.5845 13.9039 16.3938 13.9076 16.2325C13.9149 16.0712 13.9186 15.941 13.9186 15.842V15.699ZM14.7326 15.699H16.0691V16.073H14.7326V15.699ZM15.8656 15.699H16.3056V15.897C16.3056 16.062 16.2964 16.2893 16.2781 16.579C16.2634 16.8687 16.2047 17.217 16.1021 17.624L15.6566 17.5635C15.7262 17.2958 15.7757 17.0575 15.8051 16.8485C15.8344 16.6358 15.8509 16.4507 15.8546 16.293C15.8619 16.1353 15.8656 16.0033 15.8656 15.897V15.699ZM21.7656 15.4515H22.2166V20.429H21.7656V15.4515ZM22.1121 17.4975H23.0306V17.8825H22.1121V17.4975ZM18.3666 16.249H21.2981V16.623H18.3666V16.249ZM19.8571 17.03C20.0918 17.03 20.299 17.0795 20.4786 17.1785C20.662 17.2775 20.805 17.4132 20.9076 17.5855C21.014 17.7542 21.0671 17.9503 21.0671 18.174C21.0671 18.3977 21.014 18.5957 20.9076 18.768C20.805 18.9403 20.662 19.076 20.4786 19.175C20.299 19.2703 20.0918 19.318 19.8571 19.318C19.6225 19.318 19.4135 19.2703 19.2301 19.175C19.0505 19.076 18.9075 18.9403 18.8011 18.768C18.6948 18.5957 18.6416 18.3977 18.6416 18.174C18.6416 17.9503 18.6948 17.7542 18.8011 17.5855C18.9075 17.4132 19.0505 17.2775 19.2301 17.1785C19.4135 17.0795 19.6225 17.03 19.8571 17.03ZM19.8571 17.4095C19.7068 17.4095 19.573 17.4425 19.4556 17.5085C19.3383 17.5745 19.2448 17.6643 19.1751 17.778C19.1091 17.8917 19.0761 18.0237 19.0761 18.174C19.0761 18.3243 19.1091 18.4582 19.1751 18.5755C19.2448 18.6892 19.3383 18.779 19.4556 18.845C19.573 18.9073 19.7068 18.9385 19.8571 18.9385C20.0038 18.9385 20.1358 18.9073 20.2531 18.845C20.3705 18.779 20.4621 18.6892 20.5281 18.5755C20.5978 18.4582 20.6326 18.3243 20.6326 18.174C20.6326 18.0237 20.5978 17.8917 20.5281 17.778C20.4621 17.6643 20.3705 17.5745 20.2531 17.5085C20.1358 17.4425 20.0038 17.4095 19.8571 17.4095ZM19.6206 15.512H20.0771V16.414H19.6206V15.512ZM28.2432 15.4515H28.6832V20.429H28.2432V15.4515ZM26.0817 17.4865H27.3357V17.855H26.0817V17.4865ZM27.2092 15.5835H27.6382V20.176H27.2092V15.5835ZM26.1422 16.084H26.5822C26.5822 16.5167 26.5199 16.9328 26.3952 17.3325C26.2742 17.7285 26.0762 18.0988 25.8012 18.4435C25.5262 18.7845 25.165 19.0888 24.7177 19.3565L24.4537 19.0265C24.8424 18.7918 25.1614 18.5278 25.4107 18.2345C25.66 17.9375 25.8434 17.6167 25.9607 17.272C26.0817 16.9237 26.1422 16.5552 26.1422 16.1665V16.084ZM24.6682 16.084H26.3127V16.458H24.6682V16.084ZM34.2675 15.963H34.647V16.3645C34.647 16.6688 34.5883 16.9512 34.471 17.2115C34.3537 17.4718 34.1887 17.6992 33.976 17.8935C33.767 18.0878 33.5232 18.2345 33.2445 18.3335L33.008 17.9815C33.2573 17.8898 33.4755 17.7633 33.6625 17.602C33.8532 17.437 34.0017 17.2482 34.108 17.0355C34.2143 16.8228 34.2675 16.5992 34.2675 16.3645V15.963ZM34.3555 15.963H34.7295V16.3645C34.7295 16.5332 34.7588 16.6945 34.8175 16.8485C34.8798 17.0025 34.9678 17.1473 35.0815 17.283C35.1952 17.415 35.3272 17.5342 35.4775 17.6405C35.6315 17.7432 35.8002 17.8238 35.9835 17.8825L35.7525 18.24C35.4775 18.1447 35.2355 18.0053 35.0265 17.822C34.8175 17.6387 34.6525 17.4223 34.5315 17.173C34.4142 16.9237 34.3555 16.6542 34.3555 16.3645V15.963ZM36.561 15.4515H37.0175V18.46H36.561V15.4515ZM33.6955 18.724H37.0175V20.429H36.561V19.098H33.6955V18.724ZM33.129 15.798H35.8515V16.172H33.129V15.798ZM39.2711 15.8365H41.4711V16.216H39.2711V15.8365ZM40.0191 16.9475H40.4701V18.1905H40.0191V16.9475ZM41.2896 15.8365H41.7351V16.1005C41.7351 16.2655 41.7296 16.4708 41.7186 16.7165C41.7112 16.9622 41.6746 17.2482 41.6086 17.5745L41.1576 17.5305C41.2236 17.2005 41.2621 16.92 41.2731 16.689C41.2841 16.458 41.2896 16.2618 41.2896 16.1005V15.8365ZM42.4116 15.4515H42.8736V19.197H42.4116V15.4515ZM42.6646 17.0685H43.5831V17.4535H42.6646V17.0685ZM39.7276 19.945H43.0331V20.319H39.7276V19.945ZM39.7276 18.856H40.1841V20.055H39.7276V18.856ZM39.0181 18.405L38.9686 18.031C39.2619 18.031 39.5864 18.0273 39.9421 18.02C40.2977 18.0127 40.6589 17.998 41.0256 17.976C41.3922 17.9503 41.7442 17.9155 42.0816 17.8715L42.1091 18.207C41.7681 18.2657 41.4142 18.3097 41.0476 18.339C40.6809 18.3683 40.3234 18.3867 39.9751 18.394C39.6304 18.4013 39.3114 18.405 39.0181 18.405ZM48.4326 15.4515H48.8836V20.429H48.4326V15.4515ZM48.7791 17.4975H49.6976V17.8825H48.7791V17.4975ZM45.0336 16.249H47.9651V16.623H45.0336V16.249ZM46.5241 17.03C46.7588 17.03 46.966 17.0795 47.1456 17.1785C47.329 17.2775 47.472 17.4132 47.5746 17.5855C47.681 17.7542 47.7341 17.9503 47.7341 18.174C47.7341 18.3977 47.681 18.5957 47.5746 18.768C47.472 18.9403 47.329 19.076 47.1456 19.175C46.966 19.2703 46.7588 19.318 46.5241 19.318C46.2895 19.318 46.0805 19.2703 45.8971 19.175C45.7175 19.076 45.5745 18.9403 45.4681 18.768C45.3618 18.5957 45.3086 18.3977 45.3086 18.174C45.3086 17.9503 45.3618 17.7542 45.4681 17.5855C45.5745 17.4132 45.7175 17.2775 45.8971 17.1785C46.0805 17.0795 46.2895 17.03 46.5241 17.03ZM46.5241 17.4095C46.3738 17.4095 46.24 17.4425 46.1226 17.5085C46.0053 17.5745 45.9118 17.6643 45.8421 17.778C45.7761 17.8917 45.7431 18.0237 45.7431 18.174C45.7431 18.3243 45.7761 18.4582 45.8421 18.5755C45.9118 18.6892 46.0053 18.779 46.1226 18.845C46.24 18.9073 46.3738 18.9385 46.5241 18.9385C46.6708 18.9385 46.8028 18.9073 46.9201 18.845C47.0375 18.779 47.1291 18.6892 47.1951 18.5755C47.2648 18.4582 47.2996 18.3243 47.2996 18.174C47.2996 18.0237 47.2648 17.8917 47.1951 17.778C47.1291 17.6643 47.0375 17.5745 46.9201 17.5085C46.8028 17.4425 46.6708 17.4095 46.5241 17.4095ZM46.2876 15.512H46.7441V16.414H46.2876V15.512ZM51.7257 16.9475H55.1082V17.316H51.7257V16.9475ZM51.1152 17.9815H55.6252V18.3555H51.1152V17.9815ZM51.7257 15.633H52.1767V17.1345H51.7257V15.633ZM51.6927 19.934H55.1357V20.308H51.6927V19.934ZM51.6927 18.856H52.1492V20.033H51.6927V18.856ZM63.3105 17.437H64.2235V17.8165H63.3105V17.437ZM62.975 15.4515H63.4315V20.4235H62.975V15.4515ZM59.807 15.941H60.258V19.021H59.807V15.941ZM59.807 18.7845H60.203C60.566 18.7845 60.9382 18.768 61.3195 18.735C61.7045 18.702 62.1023 18.6433 62.513 18.559L62.568 18.944C62.1427 19.0283 61.7357 19.087 61.347 19.12C60.962 19.1493 60.5807 19.164 60.203 19.164H59.807V18.7845Z" fill="black"/>
</svg>
