<svg width="66" height="17" viewBox="0 0 66 17" fill="none" xmlns="http://www.w3.org/2000/svg">
<rect x="0.5" y="0.5" width="65" height="16" fill="white" stroke="black"/>
<path d="M8.152 5.211H8.712V11.546H8.152V5.211ZM7.095 7.787H8.313V8.27H7.095V7.787ZM6.717 5.351H7.263V11.217H6.717V5.351ZM3.658 5.974H4.239V9.628H3.658V5.974ZM3.658 9.397H4.057C4.38833 9.397 4.736 9.38533 5.1 9.362C5.464 9.334 5.85133 9.278 6.262 9.194L6.332 9.705C5.90267 9.789 5.50133 9.845 5.128 9.873C4.75467 9.89633 4.39767 9.908 4.057 9.908H3.658V9.397ZM13.9718 8.137H14.4828C14.9401 8.137 15.3368 8.13467 15.6728 8.13C16.0135 8.12067 16.3285 8.102 16.6178 8.074C16.9071 8.046 17.1988 8.00867 17.4928 7.962L17.5558 8.424C17.2478 8.47533 16.9468 8.515 16.6528 8.543C16.3588 8.56633 16.0391 8.58267 15.6938 8.592C15.3485 8.60133 14.9448 8.606 14.4828 8.606H13.9718V8.137ZM13.9718 5.596H16.9818V6.072H14.5528V8.375H13.9718V5.596ZM14.3638 6.849H16.8068V7.311H14.3638V6.849ZM18.2138 5.218H18.7948V8.991H18.2138V5.218ZM14.7068 9.306H18.7948V11.462H14.7068V9.306ZM18.2278 9.768H15.2738V10.986H18.2278V9.768ZM21.0473 8.543H26.7663V9.012H21.0473V8.543ZM21.7823 10.93H26.1293V11.406H21.7823V10.93ZM21.7823 9.572H22.3633V11.07H21.7823V9.572ZM23.9033 5.428C24.3559 5.428 24.7479 5.47933 25.0793 5.582C25.4153 5.68 25.6743 5.82467 25.8563 6.016C26.0383 6.20267 26.1293 6.42667 26.1293 6.688C26.1293 6.94933 26.0383 7.17567 25.8563 7.367C25.6743 7.55833 25.4153 7.70533 25.0793 7.808C24.7479 7.906 24.3559 7.955 23.9033 7.955C23.4506 7.955 23.0563 7.906 22.7203 7.808C22.3889 7.70533 22.1323 7.55833 21.9503 7.367C21.7683 7.17567 21.6773 6.94933 21.6773 6.688C21.6773 6.42667 21.7683 6.20267 21.9503 6.016C22.1323 5.82467 22.3889 5.68 22.7203 5.582C23.0563 5.47933 23.4506 5.428 23.9033 5.428ZM23.9033 5.897C23.5766 5.897 23.2896 5.92967 23.0423 5.995C22.7996 6.05567 22.6106 6.14667 22.4753 6.268C22.3399 6.38467 22.2723 6.52467 22.2723 6.688C22.2723 6.85133 22.3399 6.99367 22.4753 7.115C22.6106 7.23167 22.7996 7.32267 23.0423 7.388C23.2896 7.44867 23.5766 7.479 23.9033 7.479C24.2393 7.479 24.5286 7.44867 24.7713 7.388C25.0139 7.32267 25.2006 7.23167 25.3313 7.115C25.4666 6.99367 25.5343 6.85133 25.5343 6.688C25.5343 6.52467 25.4666 6.38467 25.3313 6.268C25.2006 6.14667 25.0139 6.05567 24.7713 5.995C24.5286 5.92967 24.2393 5.897 23.9033 5.897ZM33.0971 8.403H33.6781V9.81H33.0971V8.403ZM35.9041 5.218H36.4851V10.027H35.9041V5.218ZM32.1661 10.93H36.6391V11.406H32.1661V10.93ZM32.1661 9.558H32.7471V11.056H32.1661V9.558ZM31.3471 8.62L31.2701 8.137C31.6621 8.137 32.0867 8.13467 32.5441 8.13C33.0061 8.12067 33.4774 8.10433 33.9581 8.081C34.4387 8.053 34.9031 8.011 35.3511 7.955L35.3931 8.375C34.9404 8.44967 34.4737 8.50567 33.9931 8.543C33.5171 8.57567 33.0527 8.59667 32.6001 8.606C32.1474 8.61533 31.7297 8.62 31.3471 8.62ZM34.6161 8.956H36.0581V9.376H34.6161V8.956ZM33.3281 5.47C33.6407 5.47 33.9137 5.51667 34.1471 5.61C34.3804 5.69867 34.5601 5.827 34.6861 5.995C34.8167 6.15833 34.8821 6.352 34.8821 6.576C34.8821 6.79533 34.8167 6.989 34.6861 7.157C34.5601 7.325 34.3804 7.45333 34.1471 7.542C33.9137 7.63067 33.6407 7.675 33.3281 7.675C33.0201 7.675 32.7471 7.63067 32.5091 7.542C32.2757 7.45333 32.0937 7.325 31.9631 7.157C31.8371 6.989 31.7741 6.79533 31.7741 6.576C31.7741 6.352 31.8371 6.15833 31.9631 5.995C32.0937 5.827 32.2757 5.69867 32.5091 5.61C32.7471 5.51667 33.0201 5.47 33.3281 5.47ZM33.3281 5.904C33.0294 5.904 32.7867 5.96467 32.6001 6.086C32.4134 6.20733 32.3201 6.37067 32.3201 6.576C32.3201 6.77667 32.4134 6.93767 32.6001 7.059C32.7867 7.18033 33.0294 7.241 33.3281 7.241C33.6221 7.241 33.8624 7.18033 34.0491 7.059C34.2357 6.93767 34.3291 6.77667 34.3291 6.576C34.3291 6.436 34.2871 6.317 34.2031 6.219C34.1191 6.121 34.0024 6.044 33.8531 5.988C33.7037 5.932 33.5287 5.904 33.3281 5.904ZM38.9545 9.544H39.3675C39.7549 9.544 40.1329 9.53467 40.5015 9.516C40.8702 9.49267 41.2669 9.446 41.6915 9.376L41.7475 9.852C41.3089 9.93133 40.9005 9.98267 40.5225 10.006C40.1492 10.0247 39.7642 10.034 39.3675 10.034H38.9545V9.544ZM38.9405 5.897H41.3065V8.123H39.5145V9.726H38.9545V7.647H40.7465V6.38H38.9405V5.897ZM43.5605 5.211H44.1135V11.546H43.5605V5.211ZM42.4895 7.71H43.7075V8.186H42.4895V7.71ZM42.1255 5.351H42.6645V11.217H42.1255V5.351ZM49.6253 5.883H53.6993V6.359H49.6253V5.883ZM49.0023 10.139H54.7213V10.622H49.0023V10.139ZM53.3843 5.883H53.9583V6.52C53.9583 6.786 53.9537 7.07067 53.9443 7.374C53.9397 7.67267 53.921 8.004 53.8883 8.368C53.8557 8.732 53.7997 9.14267 53.7203 9.6L53.1323 9.537C53.2163 9.10767 53.2747 8.71333 53.3073 8.354C53.3447 7.99467 53.3657 7.66333 53.3703 7.36C53.3797 7.05667 53.3843 6.77667 53.3843 6.52V5.883ZM56.6518 9.544H57.0648C57.4521 9.544 57.8301 9.53467 58.1988 9.516C58.5675 9.49267 58.9641 9.446 59.3888 9.376L59.4448 9.852C59.0061 9.93133 58.5978 9.98267 58.2198 10.006C57.8465 10.0247 57.4615 10.034 57.0648 10.034H56.6518V9.544ZM56.6378 5.897H59.0038V8.123H57.2118V9.726H56.6518V7.647H58.4438V6.38H56.6378V5.897ZM61.2578 5.211H61.8108V11.546H61.2578V5.211ZM60.1868 7.71H61.4048V8.186H60.1868V7.71ZM59.8228 5.351H60.3618V11.217H59.8228V5.351Z" fill="url(#paint0_linear_1261_4283)"/>
<defs>
<linearGradient id="paint0_linear_1261_4283" x1="3" y1="9" x2="64" y2="9" gradientUnits="userSpaceOnUse">
<stop stop-color="#FF0000"/>
<stop offset="0.245202" stop-color="#FF8000"/>
<stop offset="0.57197" stop-color="#FFFF47"/>
<stop offset="0.667455" stop-color="#00FF22"/>
<stop offset="0.783682" stop-color="#1E00FF"/>
<stop offset="1" stop-color="#EE00FF"/>
</linearGradient>
</defs>
</svg>
