<svg xmlns="http://www.w3.org/2000/svg" width="228" height="82" fill="none" viewBox="0 0 228 82"><mask id="a" width="187" height="57" x="26" y="13" fill="#000" maskUnits="userSpaceOnUse"><path fill="#fff" d="M26 13h187v57H26z"/><path d="m34.655 62 8.79-41.562h8.673l-7.276 34.286h14.553L57.88 62zm26.927 0 1.048-5.006 5.297-2.328 5.705-26.894-4.308-2.328 1.048-5.006h18.394l-1.047 5.006-5.414 2.328L76.6 54.666l4.425 2.328L79.977 62zm42.89.582q-5.064 0-8.498-1.98-3.435-1.978-5.181-5.53-1.746-3.55-1.746-8.323 0-3.26.582-6.462a34 34 0 0 1 1.746-6.286 29.5 29.5 0 0 1 2.969-5.588 21.2 21.2 0 0 1 4.25-4.483 17.8 17.8 0 0 1 5.529-3.027q3.144-1.106 6.927-1.106 7.568 0 11.351 4.25 3.842 4.25 3.842 11.293 0 3.376-.582 6.694a32.4 32.4 0 0 1-1.688 6.403 27 27 0 0 1-2.969 5.646 20 20 0 0 1-4.191 4.483q-2.386 1.862-5.472 2.968-3.085 1.048-6.869 1.048m.641-7.393a9.3 9.3 0 0 0 3.259-.582 10.4 10.4 0 0 0 2.911-1.804 14 14 0 0 0 2.503-2.91 21.5 21.5 0 0 0 1.921-3.9q.815-2.213 1.222-4.832.466-2.62.466-5.589 0-3.84-1.804-6.112-1.747-2.328-5.239-2.328a8.6 8.6 0 0 0-3.435.698q-1.629.699-3.027 2.038-1.338 1.28-2.503 3.085a22.7 22.7 0 0 0-1.92 4.016 27 27 0 0 0-1.165 4.657 31 31 0 0 0-.407 5.123q0 2.736.815 4.657.873 1.863 2.503 2.852 1.629.93 3.9.931M129.588 62l8.79-41.562h10.129l9.663 30.618h.233q.174-.93.349-2.27.232-1.338.466-2.852.291-1.572.582-3.085l.524-2.736 4.191-19.675h7.8L163.525 62h-9.721l-10.129-31.434h-.291q-.058.35-.233 1.688-.174 1.281-.465 3.086a73 73 0 0 1-.582 3.725 99 99 0 0 1-.582 3.376L137.389 62zm53.722.582q-3.144 0-5.763-.698-2.561-.699-4.366-1.863v-7.8q1.746.93 3.376 1.63a23 23 0 0 0 3.377 1.105q1.688.35 3.434.35 1.455 0 2.678-.233 1.222-.291 2.095-.873.931-.582 1.456-1.397.524-.873.524-2.038 0-1.629-.641-2.736-.64-1.105-1.746-2.037a35 35 0 0 0-2.62-1.98 33 33 0 0 1-3.376-2.851 13.3 13.3 0 0 1-2.677-3.668q-1.048-2.154-1.048-5.006 0-2.794.989-5.064a11.35 11.35 0 0 1 2.853-4.017q1.92-1.687 4.54-2.62 2.62-.93 5.879-.93 3.26 0 5.996.698a22.8 22.8 0 0 1 5.297 2.096l-3.085 6.636q-2.212-1.049-4.249-1.572a15.4 15.4 0 0 0-3.959-.524 6.4 6.4 0 0 0-2.153.35 4.8 4.8 0 0 0-1.689.93 4.2 4.2 0 0 0-1.106 1.456 4.5 4.5 0 0 0-.407 1.92q0 1.456.582 2.504.64 1.047 1.746 1.98a75 75 0 0 0 2.794 1.978q2.329 1.515 3.842 3.26a11.6 11.6 0 0 1 2.271 3.726q.756 1.979.756 4.424 0 3.26-1.222 5.704a11.6 11.6 0 0 1-3.376 4.017q-2.154 1.571-5.006 2.386-2.795.757-5.996.757"/></mask><path fill="#fff" d="m34.655 62 8.79-41.562h8.673l-7.276 34.286h14.553L57.88 62zm26.927 0 1.048-5.006 5.297-2.328 5.705-26.894-4.308-2.328 1.048-5.006h18.394l-1.047 5.006-5.414 2.328L76.6 54.666l4.425 2.328L79.977 62zm42.89.582q-5.064 0-8.498-1.98-3.435-1.978-5.181-5.53-1.746-3.55-1.746-8.323 0-3.26.582-6.462a34 34 0 0 1 1.746-6.286 29.5 29.5 0 0 1 2.969-5.588 21.2 21.2 0 0 1 4.25-4.483 17.8 17.8 0 0 1 5.529-3.027q3.144-1.106 6.927-1.106 7.568 0 11.351 4.25 3.842 4.25 3.842 11.293 0 3.376-.582 6.694a32.4 32.4 0 0 1-1.688 6.403 27 27 0 0 1-2.969 5.646 20 20 0 0 1-4.191 4.483q-2.386 1.862-5.472 2.968-3.085 1.048-6.869 1.048m.641-7.393a9.3 9.3 0 0 0 3.259-.582 10.4 10.4 0 0 0 2.911-1.804 14 14 0 0 0 2.503-2.91 21.5 21.5 0 0 0 1.921-3.9q.815-2.213 1.222-4.832.466-2.62.466-5.589 0-3.84-1.804-6.112-1.747-2.328-5.239-2.328a8.6 8.6 0 0 0-3.435.698q-1.629.699-3.027 2.038-1.338 1.28-2.503 3.085a22.7 22.7 0 0 0-1.92 4.016 27 27 0 0 0-1.165 4.657 31 31 0 0 0-.407 5.123q0 2.736.815 4.657.873 1.863 2.503 2.852 1.629.93 3.9.931M129.588 62l8.79-41.562h10.129l9.663 30.618h.233q.174-.93.349-2.27.232-1.338.466-2.852.291-1.572.582-3.085l.524-2.736 4.191-19.675h7.8L163.525 62h-9.721l-10.129-31.434h-.291q-.058.35-.233 1.688-.174 1.281-.465 3.086a73 73 0 0 1-.582 3.725 99 99 0 0 1-.582 3.376L137.389 62zm53.722.582q-3.144 0-5.763-.698-2.561-.699-4.366-1.863v-7.8q1.746.93 3.376 1.63a23 23 0 0 0 3.377 1.105q1.688.35 3.434.35 1.455 0 2.678-.233 1.222-.291 2.095-.873.931-.582 1.456-1.397.524-.873.524-2.038 0-1.629-.641-2.736-.64-1.105-1.746-2.037a35 35 0 0 0-2.62-1.98 33 33 0 0 1-3.376-2.851 13.3 13.3 0 0 1-2.677-3.668q-1.048-2.154-1.048-5.006 0-2.794.989-5.064a11.35 11.35 0 0 1 2.853-4.017q1.92-1.687 4.54-2.62 2.62-.93 5.879-.93 3.26 0 5.996.698a22.8 22.8 0 0 1 5.297 2.096l-3.085 6.636q-2.212-1.049-4.249-1.572a15.4 15.4 0 0 0-3.959-.524 6.4 6.4 0 0 0-2.153.35 4.8 4.8 0 0 0-1.689.93 4.2 4.2 0 0 0-1.106 1.456 4.5 4.5 0 0 0-.407 1.92q0 1.456.582 2.504.64 1.047 1.746 1.98a75 75 0 0 0 2.794 1.978q2.329 1.515 3.842 3.26a11.6 11.6 0 0 1 2.271 3.726q.756 1.979.756 4.424 0 3.26-1.222 5.704a11.6 11.6 0 0 1-3.376 4.017q-2.154 1.571-5.006 2.386-2.795.757-5.996.757"/><path fill="#0065B2" d="m34.655 62-6.44-1.362-1.681 7.945h8.121zm8.79-41.562v-6.584h-5.337l-1.104 5.222zm8.673 0 6.44 1.366 1.688-7.95h-8.128zm-7.276 34.286-6.44-1.367-1.687 7.95h8.127zm14.553 0 6.445 1.34 1.648-7.924h-8.093zM57.88 62v6.583h5.355l1.09-5.242zm-23.226 0 6.441 1.362 8.79-41.562-6.441-1.362-6.44-1.362-8.79 41.562zm8.79-41.562v6.583h8.673V13.854h-8.673zm8.673 0-6.44-1.367-7.276 34.286 6.44 1.367 6.44 1.366 7.276-34.286zm-7.276 34.286v6.583h14.553V48.14H44.842zm14.553 0-6.446-1.341-1.513 7.276L57.88 62l6.446 1.34 1.513-7.276zM57.88 62v-6.583H34.655v13.166h23.226zm3.701 0-6.444-1.349-1.66 7.932h8.104zm1.048-5.006-2.65-6.027-3.1 1.363-.694 3.315zm5.297-2.328 2.65 6.026 3.09-1.358.7-3.303zm5.705-26.894 6.44 1.366 1.021-4.816-4.33-2.341zm-4.308-2.328-6.444-1.349-1.005 4.806 4.319 2.334zm1.048-5.006v-6.584h-5.348l-1.096 5.235zm18.394 0 6.444 1.348 1.66-7.932h-8.104zm-1.047 5.006 2.6 6.047 3.143-1.35.7-3.348zm-5.414 2.328-2.601-6.047-3.132 1.346-.707 3.335zM76.6 54.666l-6.44-1.367-1.033 4.873 4.407 2.32zm4.425 2.328 6.443 1.349 1.018-4.862-4.395-2.313zM79.977 62v6.583h5.348l1.095-5.234zm-18.395 0 6.444 1.349 1.048-5.006-6.444-1.35-6.444-1.348-1.048 5.006zm1.048-5.006 2.65 6.027 5.296-2.329-2.649-6.026-2.65-6.027-5.296 2.328zm5.297-2.328 6.44 1.366 5.705-26.894-6.44-1.366-6.44-1.366L61.487 53.3zm5.705-26.894 3.13-5.791-4.307-2.329-3.13 5.792-3.131 5.791 4.307 2.329zm-4.308-2.328 6.444 1.349 1.048-5.007-6.444-1.348-6.444-1.349-1.048 5.006zm1.048-5.006v6.583h18.394V13.854H70.373zm18.394 0-6.443-1.349-1.048 5.006 6.444 1.349 6.443 1.349 1.048-5.007zm-1.047 5.006-2.601-6.048-5.414 2.328 2.601 6.048 2.601 6.048 5.414-2.329zm-5.414 2.328-6.44-1.366L70.16 53.3l6.44 1.367 6.44 1.366 5.705-26.894zM76.6 54.666l-3.066 5.825 4.424 2.329 3.067-5.826 3.066-5.826-4.424-2.328zm4.425 2.328-6.444-1.349-1.048 5.006L79.977 62l6.443 1.349 1.048-5.006zM79.977 62v-6.583H61.582v13.166h18.395zm15.997-1.397-3.287 5.704zm-5.181-5.53-5.908 2.905zm-1.164-14.785 6.477 1.177.002-.01.001-.01zM91.375 34l-6.104-2.465-.02.05-.02.052zm2.969-5.588-5.382-3.792-.03.041-.028.042zm4.25-4.483 4.066 5.177.038-.03.037-.03zm5.529-3.027 2.117 6.234.034-.012.034-.012zm18.278 3.144-4.917 4.378.017.018.017.019zm3.26 17.987-6.484-1.138-.01.056-.009.055zm-1.688 6.403 6.144 2.363.008-.02.007-.019zm-2.969 5.646-5.421-3.734-.009.013-.009.013zm-4.191 4.483 4.051 5.19.008-.007.008-.007zm-5.472 2.968 2.117 6.234.053-.018.052-.019zm-2.969-6.927 2.287 6.174.099-.037.098-.04zm2.911-1.804 4.32 4.968.008-.007.007-.007zm2.503-2.91 5.507 3.607.028-.042.027-.043zm1.921-3.9 6.157 2.329.01-.027.01-.027zm1.222-4.832-6.481-1.153-.013.07-.011.07zm-1.338-11.7-5.267 3.95.055.073.058.073zm-8.674-1.63 2.594 6.05zm-3.027 2.037 4.551 4.757.004-.004zm-2.503 3.085-5.532-3.57-.041.065-.04.065zm-1.92 4.016-6.178-2.275-.017.046-.017.047zm-1.165 4.657 6.494 1.083.002-.013.002-.012zm.407 9.78-6.06 2.57.048.113.052.11zm2.504 2.852-3.417 5.627.075.046.075.043zm3.259 8.324V56c-2.536 0-4.162-.496-5.211-1.1l-3.287 5.704-3.287 5.704c3.53 2.034 7.57 2.858 11.785 2.858zm-8.498-1.98L99.26 54.9c-1.16-.669-1.974-1.538-2.56-2.731l-5.908 2.905-5.908 2.905c1.742 3.542 4.382 6.358 7.802 8.329zm-5.181-5.53 5.907-2.904c-.637-1.296-1.07-3.04-1.07-5.42H82.463c0 3.985.731 7.791 2.422 11.23zm-1.746-8.323h6.583q0-2.668.476-5.284l-6.477-1.178-6.477-1.177a42.6 42.6 0 0 0-.689 7.639zm.582-6.462 6.48 1.158q.476-2.654 1.41-5.081L91.375 34l-6.144-2.363a41 41 0 0 0-2.083 7.492zM91.375 34l6.104 2.465a23 23 0 0 1 2.304-4.345l-5.44-3.709-5.439-3.708a36 36 0 0 0-3.633 6.831zm2.969-5.588 5.382 3.791a14.6 14.6 0 0 1 2.934-3.097l-4.067-5.177-4.067-5.176a27.8 27.8 0 0 0-5.564 5.867zm4.25-4.483 4.141 5.117a11.2 11.2 0 0 1 3.505-1.91l-2.117-6.234-2.117-6.233a24.4 24.4 0 0 0-7.555 4.143zm5.529-3.027 2.185 6.21c1.306-.459 2.864-.732 4.742-.732V13.214c-3.167 0-6.226.464-9.112 1.48zm6.927-1.106v6.584c3.82 0 5.538 1.037 6.434 2.044l4.917-4.378 4.917-4.378c-4.149-4.66-9.998-6.455-16.268-6.455zm11.351 4.25-4.883 4.415c1.23 1.36 2.142 3.422 2.142 6.878h13.166c0-5.936-1.649-11.403-5.541-15.708zm3.842 11.293h-6.583q0 2.803-.483 5.556l6.484 1.138 6.484 1.137q.681-3.883.681-7.831zm-.582 6.694-6.503-1.027a26 26 0 0 1-1.344 5.106l6.159 2.324 6.159 2.324a39 39 0 0 0 2.032-7.7zm-1.688 6.403-6.145-2.363a20.4 20.4 0 0 1-2.245 4.275l5.421 3.734 5.422 3.735a33.5 33.5 0 0 0 3.691-7.018zm-2.969 5.646-5.439-3.708a13.4 13.4 0 0 1-2.819 3.014l4.067 5.177 4.067 5.176a26.6 26.6 0 0 0 5.564-5.95zm-4.191 4.483-4.051-5.19c-.995.777-2.191 1.44-3.642 1.961l2.221 6.197 2.222 6.197c2.662-.954 5.114-2.269 7.301-3.976zm-5.472 2.968-2.117-6.233c-1.275.433-2.835.698-4.752.698v13.166c3.129 0 6.148-.433 8.986-1.397zm-6.228-6.345v6.584c1.9 0 3.761-.331 5.546-.992l-2.287-6.174-2.286-6.173a2.7 2.7 0 0 1-.973.172zm3.259-.582 2.484 6.097a17 17 0 0 0 4.747-2.933l-4.32-4.968-4.32-4.968a3.8 3.8 0 0 1-1.074.675zm2.911-1.804 4.335 4.954a20.7 20.7 0 0 0 3.675-4.257l-5.507-3.608-5.507-3.608a7.6 7.6 0 0 1-1.331 1.564zm2.503-2.91 5.562 3.522a28 28 0 0 0 2.516-5.093l-6.157-2.33-6.157-2.33a15 15 0 0 1-1.326 2.708zm1.921-3.9 6.177 2.275c.712-1.931 1.22-3.97 1.551-6.096l-6.506-1.011-6.505-1.012c-.212 1.367-.519 2.549-.894 3.567zm1.222-4.832 6.482 1.152c.385-2.168.567-4.419.567-6.74h-13.166c0 1.636-.129 3.11-.364 4.435zm.466-5.589h6.583c0-3.564-.843-7.2-3.234-10.208l-5.153 4.096-5.154 4.097c.015.019.375.458.375 2.015zm-1.804-6.112 5.266-3.95c-2.662-3.55-6.571-4.961-10.505-4.961v13.166c.439 0 .513.073.382.015a1.1 1.1 0 0 1-.41-.32zm-5.239-2.328v-6.583a15.2 15.2 0 0 0-6.028 1.23l2.593 6.051 2.594 6.052c.252-.109.513-.167.841-.167zm-3.435.698-2.593-6.05c-1.877.804-3.539 1.945-4.989 3.335l4.555 4.753 4.555 4.753c.413-.396.769-.613 1.066-.74zm-3.027 2.038-4.55-4.758c-1.319 1.262-2.472 2.705-3.485 4.274l5.532 3.569 5.532 3.569c.54-.837 1.055-1.45 1.522-1.897zm-2.503 3.085-5.613-3.44a29 29 0 0 0-2.485 5.18l6.177 2.276 6.178 2.276A16 16 0 0 1 107 36.393zm-1.92 4.016-6.212-2.182a34 34 0 0 0-1.45 5.782l6.497 1.057 6.498 1.058c.216-1.328.515-2.5.877-3.532zm-1.165 4.657-6.494-1.082a38 38 0 0 0-.497 6.205h13.167c0-1.451.11-2.795.318-4.04zm-.407 5.123H91.31c0 2.446.36 4.923 1.338 7.228l6.06-2.571 6.061-2.571c-.109-.257-.292-.884-.292-2.086zm.815 4.657L92.749 54.2c1.087 2.32 2.764 4.299 5.047 5.685l3.417-5.627 3.416-5.627a.4.4 0 0 1 .091.077q.016.019.003.002a1 1 0 0 1-.053-.099zm2.503 2.852-3.267 5.716c2.271 1.297 4.747 1.799 7.167 1.799V48.606a2.6 2.6 0 0 1-.581-.053c-.083-.02-.089-.031-.053-.01zM129.588 62l-6.44-1.362-1.681 7.945h8.121zm8.79-41.562v-6.584h-5.336l-1.105 5.222zm10.129 0 6.278-1.982-1.452-4.602h-4.826zm9.663 30.618-6.278 1.982 1.452 4.602h4.826zm.233 0v6.584h5.463l1.007-5.37zm.349-2.27-6.486-1.128-.024.138-.018.139zm.466-2.852-6.474-1.199-.018.099-.015.099zm.582-3.085-6.465-1.243zm.524-2.736-6.439-1.372-.015.07-.013.07zm4.191-19.675v-6.584h-5.329l-1.11 5.212zm7.8 0 6.441 1.362 1.68-7.946h-8.121zM163.525 62v6.583h5.337l1.104-5.22zm-9.721 0-6.266 2.02 1.471 4.563h4.795zm-10.129-31.434 6.266-2.019-1.47-4.564h-4.796zm-.291 0v-6.583h-5.577l-.916 5.501zm-.233 1.688 6.523.89.003-.02.003-.018zm-.465 3.086-6.5-1.049-.016.103-.013.103zm-.582 3.725-6.477-1.178-.015.08-.013.082zm-.582 3.376 6.441 1.361.012-.059.011-.059zM137.389 62v6.583h5.337l1.104-5.222zm-7.801 0 6.441 1.362 8.79-41.562-6.441-1.362-6.441-1.362-8.789 41.562zm8.79-41.562v6.583h10.129V13.854h-10.129zm10.129 0-6.278 1.981 9.663 30.619 6.278-1.982 6.278-1.98-9.663-30.62zm9.663 30.618v6.584h.233V44.473h-.233zm.233 0 6.47 1.214c.146-.78.281-1.665.407-2.632l-6.528-.852-6.528-.851a36 36 0 0 1-.292 1.908zm.349-2.27 6.486 1.128q.245-1.41.486-2.98l-6.506-1-6.507-1.001q-.225 1.458-.445 2.725zm.466-2.852 6.473 1.199q.286-1.55.574-3.041l-6.465-1.243-6.465-1.243a483 483 0 0 0-.591 3.13zm.582-3.085 6.465 1.243.526-2.747-6.467-1.232-6.467-1.232-.522 2.724zm.524-2.736 6.438 1.371 4.192-19.675-6.439-1.371-6.439-1.372-4.191 19.675zm4.191-19.675v6.583h7.8V13.854h-7.8zm7.8 0-6.441-1.362-8.79 41.562L163.525 62l6.441 1.362 8.79-41.562zM163.525 62v-6.583h-9.721v13.166h9.721zm-9.721 0 6.266-2.02-10.129-31.433-6.266 2.02-6.266 2.018 10.129 31.434zm-10.129-31.434v-6.583h-.291V37.15h.291zm-.291 0-6.493-1.082a68 68 0 0 0-.268 1.919l6.528.851 6.529.852q.085-.656.139-1.044.026-.193.043-.306l.016-.107zm-.233 1.688-6.523-.89c-.106.785-.253 1.757-.442 2.927l6.5 1.049 6.499 1.048c.199-1.236.364-2.32.489-3.244zm-.465 3.086-6.529-.843a67 67 0 0 1-.53 3.39l6.477 1.178 6.477 1.178q.377-2.076.634-4.06zm-.582 3.725-6.505-1.016a92 92 0 0 1-.542 3.149l6.465 1.243 6.464 1.243q.318-1.648.622-3.603zm-.582 3.376-6.442-1.36-4.132 19.558L137.389 62l6.441 1.361 4.133-19.559zM137.389 62v-6.583h-7.801v13.166h7.801zm40.158-.116-1.732 6.35.018.006.018.005zm-4.366-1.863h-6.583v3.587l3.014 1.945zm0-7.8 3.098-5.81-9.681-5.163v10.973zm3.376 1.63-2.593 6.05.038.017.038.016zm3.377 1.105-1.545 6.4.105.025.106.022zm6.112.117 1.232 6.467.147-.028.146-.035zm2.095-.873-3.489-5.583-.082.051-.08.054zm1.456-1.397 5.537 3.56.055-.086.053-.087zm-.117-4.773 5.698-3.299zm-1.746-2.038 4.24-5.036zm-2.62-1.98-3.893 5.31.073.053.073.05zm-3.376-2.851-4.57 4.739zm-2.677-3.668-5.92 2.88.015.033.016.032zm-.059-10.07 6.035 2.63.012-.027.012-.028zm2.853-4.017-4.346-4.945-.038.034-.037.033zm4.54-2.62 2.206 6.204zm11.875-.232-1.629 6.379zm5.297 2.096 5.97 2.775 2.603-5.598-5.42-2.957zm-3.085 6.636-2.818 5.95 5.992 2.838 2.796-6.013zm-4.249-1.572-1.685 6.364.023.006.022.006zm-6.112-.175 1.963 6.284.115-.036.113-.04zm-1.689.932 4.215 5.057.019-.016.019-.016zm-1.106 1.455 5.966 2.784zm.175 4.424-5.755 3.197.066.12.072.116zm1.746 1.98-4.24 5.035.142.12.148.11zm2.794 1.978-3.696 5.448.054.036.055.036zm3.842 3.26-4.975 4.312.037.042.037.04zm2.271 3.726-6.172 2.292.011.03.011.029zm-.466 10.128 5.859 3.001.015-.028.014-.029zm-3.376 4.017 3.88 5.318.047-.034.045-.035zm-5.006 2.386 1.721 6.355.043-.012.044-.013zm-5.996.757V56c-1.612 0-2.953-.18-4.067-.477l-1.696 6.362-1.696 6.36c2.379.635 4.879.921 7.459.921zm-5.763-.698 1.732-6.352c-1.204-.328-2.008-.707-2.529-1.043l-3.569 5.532-3.569 5.532c1.885 1.216 3.992 2.079 6.203 2.682zm-4.366-1.863h6.584v-7.8h-13.167v7.8zm0-7.8-3.098 5.809a51 51 0 0 0 3.881 1.872l2.593-6.052 2.594-6.05a38 38 0 0 1-2.872-1.388zm3.376 1.63-2.517 6.083a29.5 29.5 0 0 0 4.349 1.422l1.545-6.4 1.544-6.399a16 16 0 0 1-2.403-.79zm3.377 1.105-1.334 6.447c1.57.325 3.162.486 4.768.486V48.722q-1.082 0-2.1-.212zm3.434.35v6.583a21 21 0 0 0 3.91-.349l-1.232-6.467-1.232-6.467a8 8 0 0 1-1.446.116zm2.678-.233 1.525 6.404c1.427-.34 2.878-.903 4.222-1.8l-3.652-5.477-3.651-5.478a1 1 0 0 1 .159-.09c.009-.004-.029.013-.128.037zm2.095-.873 3.49 5.582c1.334-.833 2.563-1.956 3.503-3.42l-5.537-3.56-5.538-3.56c.242-.376.501-.567.593-.625zm1.456-1.397 5.645 3.387c1.047-1.745 1.462-3.63 1.462-5.425h-13.167c0-.242.066-.769.414-1.35zm.524-2.038h6.583c0-1.931-.38-4.054-1.526-6.034l-5.698 3.298-5.697 3.299c-.293-.505-.246-.804-.246-.563zm-.641-2.736 5.698-3.298c-.855-1.477-1.96-2.727-3.204-3.775l-4.24 5.036-4.241 5.036c.117.098.19.174.232.224.041.048.056.074.058.076zm-1.746-2.037 4.24-5.036a42 42 0 0 0-3.112-2.356l-3.748 5.413-3.747 5.413a28 28 0 0 1 2.126 1.602zm-2.62-1.98 3.894-5.308a26 26 0 0 1-2.7-2.282l-4.57 4.739-4.57 4.739a40 40 0 0 0 4.053 3.422zm-3.376-2.851 4.57-4.74a6.8 6.8 0 0 1-1.359-1.872l-5.888 2.944-5.889 2.944a19.9 19.9 0 0 0 3.996 5.463zm-2.677-3.668 5.919-2.88c-.186-.383-.384-1.033-.384-2.126h-13.167c0 2.711.501 5.398 1.712 7.886zm-1.048-5.006h6.583c0-1.073.187-1.85.441-2.434l-6.035-2.63-6.035-2.63c-1.065 2.443-1.538 5.042-1.538 7.694zm.989-5.064 6.059 2.575a4.8 4.8 0 0 1 1.214-1.713l-4.42-4.879-4.421-4.878a17.9 17.9 0 0 0-4.491 6.32zm2.853-4.017 4.345 4.946c.601-.528 1.372-.997 2.401-1.362l-2.206-6.203-2.205-6.203c-2.465.876-4.721 2.154-6.681 3.877zm4.54-2.62 2.206 6.204c.927-.33 2.125-.551 3.673-.551V13.272c-2.797 0-5.52.4-8.084 1.312zm5.879-.93v6.583c1.707 0 3.15.183 4.367.494l1.629-6.379 1.629-6.379c-2.431-.62-4.985-.903-7.625-.903zm5.996.698-1.629 6.379c1.276.326 2.531.818 3.774 1.496l3.152-5.78 3.153-5.779a29.4 29.4 0 0 0-6.821-2.695zm5.297 2.096-5.97-2.776-3.085 6.636 5.97 2.776 5.97 2.775 3.085-6.636zm-3.085 6.636 2.818-5.95c-1.793-.85-3.605-1.53-5.428-1.998l-1.639 6.376-1.64 6.376c.893.23 1.915.598 3.071 1.145zm-4.249-1.572 1.684-6.364a22 22 0 0 0-5.643-.743v13.166c.732 0 1.485.096 2.274.305zm-3.959-.524v-6.583a13 13 0 0 0-4.345.724l2.192 6.208 2.191 6.208-.068.021-.036.008c-.012.002.008-.003.066-.003zm-2.153.35-1.964-6.284a11.4 11.4 0 0 0-3.977 2.19l4.252 5.025 4.253 5.025a1.8 1.8 0 0 1-.601.327zm-1.689.93-4.214-5.057a10.7 10.7 0 0 0-2.857 3.729l5.965 2.784 5.966 2.784c-.113.242-.323.55-.645.818zm-1.106 1.456-5.965-2.784a11.1 11.1 0 0 0-1.025 4.705h13.166c0 .178-.04.5-.21.863zm-.407 1.92h-6.583c0 1.852.374 3.836 1.41 5.701l5.755-3.197 5.755-3.197c.26.468.246.783.246.694zm.582 2.504-5.617 3.433c.855 1.4 1.937 2.583 3.123 3.582l4.24-5.036 4.241-5.035a3 3 0 0 1-.294-.281l-.059-.072-.013-.018-.003-.004v-.002h-.001zm1.746 1.98-3.95 5.266a81 81 0 0 0 3.048 2.16l3.696-5.448 3.697-5.447a68 68 0 0 1-2.541-1.798zm2.794 1.978-3.587 5.52c1.136.739 1.921 1.436 2.454 2.052l4.975-4.312 4.975-4.311c-1.484-1.713-3.26-3.189-5.229-4.468zm3.842 3.26-4.901 4.395a5 5 0 0 1 1 1.623l6.172-2.292L204.325 43a18.2 18.2 0 0 0-3.54-5.828zm2.271 3.726-6.15 2.35c.177.464.323 1.125.323 2.074h13.167c0-2.312-.359-4.6-1.191-6.776zm.756 4.424h-6.583c0 1.346-.249 2.204-.527 2.76l5.888 2.944 5.888 2.944c1.352-2.703 1.918-5.648 1.918-8.648zm-1.222 5.704-5.86-3.001a5 5 0 0 1-1.489 1.768l3.973 5.25 3.972 5.25a18.2 18.2 0 0 0 5.263-6.266zm-3.376 4.017-3.881-5.318c-.744.542-1.694 1.02-2.934 1.374l1.809 6.33 1.808 6.33c2.563-.732 4.95-1.845 7.078-3.398zm-5.006 2.386-1.721-6.354c-1.246.337-2.661.528-4.275.528v13.166c2.655 0 5.237-.314 7.717-.985z" mask="url(#a)"/><mask id="b" width="176" height="48" x="31" y="17" fill="#000" maskUnits="userSpaceOnUse"><path fill="#fff" d="M31 17h176v48H31z"/><path d="m34.655 62 8.79-41.562h8.673l-7.276 34.286h14.553L57.88 62zm26.927 0 1.048-5.006 5.297-2.328 5.705-26.894-4.308-2.328 1.048-5.006h18.394l-1.047 5.006-5.414 2.328L76.6 54.666l4.425 2.328L79.977 62zm42.89.582q-5.064 0-8.498-1.98-3.435-1.978-5.181-5.53-1.746-3.55-1.746-8.323 0-3.26.582-6.462a34 34 0 0 1 1.746-6.286 29.5 29.5 0 0 1 2.969-5.588 21.2 21.2 0 0 1 4.25-4.483 17.8 17.8 0 0 1 5.529-3.027q3.144-1.106 6.927-1.106 7.568 0 11.351 4.25 3.842 4.25 3.842 11.293 0 3.376-.582 6.694a32.4 32.4 0 0 1-1.688 6.403 27 27 0 0 1-2.969 5.646 20 20 0 0 1-4.191 4.483q-2.386 1.862-5.472 2.968-3.085 1.048-6.869 1.048m.641-7.393a9.3 9.3 0 0 0 3.259-.582 10.4 10.4 0 0 0 2.911-1.804 14 14 0 0 0 2.503-2.91 21.5 21.5 0 0 0 1.921-3.9q.815-2.213 1.222-4.832.466-2.62.466-5.589 0-3.84-1.804-6.112-1.747-2.328-5.239-2.328a8.6 8.6 0 0 0-3.435.698q-1.629.699-3.027 2.038-1.338 1.28-2.503 3.085a22.7 22.7 0 0 0-1.92 4.016 27 27 0 0 0-1.165 4.657 31 31 0 0 0-.407 5.123q0 2.736.815 4.657.873 1.863 2.503 2.852 1.629.93 3.9.931M129.588 62l8.79-41.562h10.129l9.663 30.618h.233q.174-.93.349-2.27.232-1.338.466-2.852.291-1.572.582-3.085l.524-2.736 4.191-19.675h7.8L163.525 62h-9.721l-10.129-31.434h-.291q-.058.35-.233 1.688-.174 1.281-.465 3.086a73 73 0 0 1-.582 3.725 99 99 0 0 1-.582 3.376L137.389 62zm53.722.582q-3.144 0-5.763-.698-2.561-.699-4.366-1.863v-7.8q1.746.93 3.376 1.63a23 23 0 0 0 3.377 1.105q1.688.35 3.434.35 1.455 0 2.678-.233 1.222-.291 2.095-.873.931-.582 1.456-1.397.524-.873.524-2.038 0-1.629-.641-2.736-.64-1.105-1.746-2.037a35 35 0 0 0-2.62-1.98 33 33 0 0 1-3.376-2.851 13.3 13.3 0 0 1-2.677-3.668q-1.048-2.154-1.048-5.006 0-2.794.989-5.064a11.35 11.35 0 0 1 2.853-4.017q1.92-1.687 4.54-2.62 2.62-.93 5.879-.93 3.26 0 5.996.698a22.8 22.8 0 0 1 5.297 2.096l-3.085 6.636q-2.212-1.049-4.249-1.572a15.4 15.4 0 0 0-3.959-.524 6.4 6.4 0 0 0-2.153.35 4.8 4.8 0 0 0-1.689.93 4.2 4.2 0 0 0-1.106 1.456 4.5 4.5 0 0 0-.407 1.92q0 1.456.582 2.504.64 1.047 1.746 1.98a75 75 0 0 0 2.794 1.978q2.329 1.515 3.842 3.26a11.6 11.6 0 0 1 2.271 3.726q.756 1.979.756 4.424 0 3.26-1.222 5.704a11.6 11.6 0 0 1-3.376 4.017q-2.154 1.571-5.006 2.386-2.795.757-5.996.757"/></mask><path fill="#fff" d="m34.655 62 8.79-41.562h8.673l-7.276 34.286h14.553L57.88 62zm26.927 0 1.048-5.006 5.297-2.328 5.705-26.894-4.308-2.328 1.048-5.006h18.394l-1.047 5.006-5.414 2.328L76.6 54.666l4.425 2.328L79.977 62zm42.89.582q-5.064 0-8.498-1.98-3.435-1.978-5.181-5.53-1.746-3.55-1.746-8.323 0-3.26.582-6.462a34 34 0 0 1 1.746-6.286 29.5 29.5 0 0 1 2.969-5.588 21.2 21.2 0 0 1 4.25-4.483 17.8 17.8 0 0 1 5.529-3.027q3.144-1.106 6.927-1.106 7.568 0 11.351 4.25 3.842 4.25 3.842 11.293 0 3.376-.582 6.694a32.4 32.4 0 0 1-1.688 6.403 27 27 0 0 1-2.969 5.646 20 20 0 0 1-4.191 4.483q-2.386 1.862-5.472 2.968-3.085 1.048-6.869 1.048m.641-7.393a9.3 9.3 0 0 0 3.259-.582 10.4 10.4 0 0 0 2.911-1.804 14 14 0 0 0 2.503-2.91 21.5 21.5 0 0 0 1.921-3.9q.815-2.213 1.222-4.832.466-2.62.466-5.589 0-3.84-1.804-6.112-1.747-2.328-5.239-2.328a8.6 8.6 0 0 0-3.435.698q-1.629.699-3.027 2.038-1.338 1.28-2.503 3.085a22.7 22.7 0 0 0-1.92 4.016 27 27 0 0 0-1.165 4.657 31 31 0 0 0-.407 5.123q0 2.736.815 4.657.873 1.863 2.503 2.852 1.629.93 3.9.931M129.588 62l8.79-41.562h10.129l9.663 30.618h.233q.174-.93.349-2.27.232-1.338.466-2.852.291-1.572.582-3.085l.524-2.736 4.191-19.675h7.8L163.525 62h-9.721l-10.129-31.434h-.291q-.058.35-.233 1.688-.174 1.281-.465 3.086a73 73 0 0 1-.582 3.725 99 99 0 0 1-.582 3.376L137.389 62zm53.722.582q-3.144 0-5.763-.698-2.561-.699-4.366-1.863v-7.8q1.746.93 3.376 1.63a23 23 0 0 0 3.377 1.105q1.688.35 3.434.35 1.455 0 2.678-.233 1.222-.291 2.095-.873.931-.582 1.456-1.397.524-.873.524-2.038 0-1.629-.641-2.736-.64-1.105-1.746-2.037a35 35 0 0 0-2.62-1.98 33 33 0 0 1-3.376-2.851 13.3 13.3 0 0 1-2.677-3.668q-1.048-2.154-1.048-5.006 0-2.794.989-5.064a11.35 11.35 0 0 1 2.853-4.017q1.92-1.687 4.54-2.62 2.62-.93 5.879-.93 3.26 0 5.996.698a22.8 22.8 0 0 1 5.297 2.096l-3.085 6.636q-2.212-1.049-4.249-1.572a15.4 15.4 0 0 0-3.959-.524 6.4 6.4 0 0 0-2.153.35 4.8 4.8 0 0 0-1.689.93 4.2 4.2 0 0 0-1.106 1.456 4.5 4.5 0 0 0-.407 1.92q0 1.456.582 2.504.64 1.047 1.746 1.98a75 75 0 0 0 2.794 1.978q2.329 1.515 3.842 3.26a11.6 11.6 0 0 1 2.271 3.726q.756 1.979.756 4.424 0 3.26-1.222 5.704a11.6 11.6 0 0 1-3.376 4.017q-2.154 1.571-5.006 2.386-2.795.757-5.996.757"/><path fill="#4A4A4A" d="m34.655 62-2.147-.454-.56 2.648h2.707zm8.79-41.562v-2.195h-1.779l-.368 1.74zm8.673 0 2.147.455.562-2.65h-2.709zm-7.276 34.286-2.147-.456-.562 2.65h2.71zm14.553 0 2.148.447.55-2.642h-2.698zM57.88 62v2.194h1.785l.364-1.747zm-23.226 0 2.147.454 8.79-41.562-2.147-.454-2.147-.454-8.79 41.562zm8.79-41.562v2.194h8.673v-4.389h-8.673zm8.673 0-2.146-.456-7.277 34.286 2.147.456 2.147.455 7.276-34.286zm-7.276 34.286v2.194h14.553V52.53H44.842zm14.553 0-2.149-.447-1.513 7.276L57.88 62l2.149.447 1.513-7.276zM57.88 62v-2.194H34.655v4.388h23.226zm3.701 0-2.148-.45-.553 2.644h2.701zm1.048-5.006-.883-2.009-1.034.454-.231 1.105zm5.297-2.328.883 2.008 1.03-.452.234-1.101zm5.705-26.894 2.146.456.34-1.606-1.443-.78zm-4.308-2.328-2.148-.45-.335 1.602 1.44.778zm1.048-5.006v-2.195h-1.783l-.365 1.745zm18.394 0 2.148.45.554-2.645h-2.702zm-1.047 5.006.867 2.016 1.047-.45.234-1.117zm-5.414 2.328-.867-2.016-1.044.45-.236 1.11zM76.6 54.666l-2.146-.456-.345 1.624 1.47.773zm4.425 2.328 2.147.45.34-1.621-1.466-.771zM79.977 62v2.194h1.782l.366-1.744zm-18.395 0 2.148.45 1.048-5.007-2.148-.45-2.148-.449-1.048 5.006zm1.048-5.006.883 2.009 5.297-2.329-.883-2.008-.883-2.01-5.297 2.329zm5.297-2.328 2.147.455 5.704-26.893-2.146-.456-2.147-.455L65.78 54.21zm5.705-26.894 1.043-1.93-4.307-2.329-1.044 1.93-1.043 1.931 4.307 2.329zm-4.308-2.328 2.148.45 1.048-5.007-2.148-.45-2.148-.449-1.048 5.006zm1.048-5.006v2.194h18.394v-4.389H70.373zm18.394 0-2.147-.45-1.048 5.006 2.148.45 2.148.45 1.047-5.007zm-1.047 5.006-.867-2.016-5.414 2.328.867 2.016.867 2.016 5.414-2.328zm-5.414 2.328-2.147-.455-5.704 26.893 2.147.456 2.146.455 5.705-26.893zM76.6 54.666l-1.022 1.941 4.424 2.329 1.023-1.942 1.021-1.942-4.424-2.328zm4.425 2.328-2.149-.45-1.047 5.006 2.148.45 2.148.45 1.047-5.007zM79.977 62v-2.194H61.582v4.388h18.395zm15.997-1.397-1.096 1.901zm-5.181-5.53-1.97.968zm-1.164-14.785 2.159.392.001-.007zM91.375 34l-2.035-.822-.007.017-.006.017zm2.969-5.588-1.794-1.264-.01.013-.01.014zm4.25-4.483 1.355 1.726.012-.01.013-.01zm5.529-3.027.706 2.078.011-.004.011-.004zm18.278 3.144-1.639 1.459.006.006.005.006zm3.26 17.987-2.161-.38-.004.019-.003.018zm-1.688 6.403 2.048.788.005-.013zm-2.969 5.646-1.807-1.245-.006.01zm-4.191 4.483 1.35 1.73.006-.005zm-5.472 2.968.706 2.078.017-.006.018-.006zm-2.969-6.927.763 2.058.033-.012.032-.014zm2.911-1.804 1.44 1.656.005-.005zm2.503-2.91 1.836 1.202.009-.014.009-.015zm1.921-3.9 2.052.776.004-.01.003-.008zm1.222-4.832-2.16-.385-.004.024-.004.023zm-1.338-11.7-1.756 1.316.019.025.019.024zm-8.674-1.63.865 2.016zm-3.027 2.037 1.517 1.586.002-.002zm-2.503 3.085-1.844-1.19-.014.022-.013.021zm-1.92 4.016-2.06-.758-.006.015-.005.016zm-1.165 4.657 2.165.361.001-.008zm.407 9.78-2.02.857.016.037.018.037zm2.504 2.852-1.139 1.876.025.015.025.014zm3.259 8.324v-2.194c-3.096 0-5.527-.605-7.403-1.686l-1.095 1.9-1.096 1.902c2.703 1.558 5.938 2.273 9.594 2.273zm-8.498-1.98 1.095-1.9c-1.913-1.103-3.335-2.622-4.307-4.597l-1.97.968-1.968.968c1.356 2.76 3.388 4.927 6.054 6.463zm-5.181-5.53 1.97-.968c-.99-2.01-1.522-4.44-1.522-7.355h-4.389c0 3.45.632 6.568 1.972 9.292zm-1.746-8.323h2.194q0-3.062.547-6.069l-2.16-.392-2.158-.393a38 38 0 0 0-.618 6.854zm.582-6.462 2.16.386q.547-3.058 1.634-5.885L91.375 34l-2.048-.788a36.4 36.4 0 0 0-1.859 6.689zM91.375 34l2.035.822a27.3 27.3 0 0 1 2.747-5.174l-1.813-1.236-1.813-1.237a31.7 31.7 0 0 0-3.19 6.003zm2.969-5.588 1.794 1.263a19 19 0 0 1 3.81-4.02l-1.355-1.726-1.356-1.725a23.4 23.4 0 0 0-4.687 4.944zm4.25-4.483 1.38 1.706a15.6 15.6 0 0 1 4.855-2.655l-.706-2.078-.706-2.077a20 20 0 0 0-6.205 3.399zm5.529-3.027.728 2.07c1.833-.644 3.892-.981 6.199-.981v-4.389c-2.737 0-5.296.4-7.655 1.23zm6.927-1.106v2.195c4.637 0 7.732 1.29 9.712 3.514l1.639-1.46 1.639-1.459c-3.064-3.441-7.536-4.984-12.99-4.984zm11.351 4.25-1.628 1.471c2.118 2.343 3.276 5.54 3.276 9.822h4.389c0-5.11-1.404-9.441-4.409-12.765zm3.842 11.293h-2.194q0 3.185-.549 6.315l2.161.379 2.161.379q.616-3.507.616-7.073zm-.582 6.694-2.168-.343a30.2 30.2 0 0 1-1.573 5.971l2.053.775 2.053.775q1.244-3.3 1.803-6.836zm-1.688 6.403-2.048-.788a24.8 24.8 0 0 1-2.728 5.19l1.807 1.244 1.807 1.245a29.2 29.2 0 0 0 3.21-6.103zm-2.969 5.646-1.813-1.236a17.8 17.8 0 0 1-3.734 3.993l1.356 1.726 1.356 1.725a22.2 22.2 0 0 0 4.648-4.971zm-4.191 4.483-1.35-1.73c-1.393 1.087-3.007 1.968-4.862 2.633l.74 2.065.741 2.066c2.258-.81 4.291-1.908 6.081-3.305zm-5.472 2.968-.705-2.078c-1.797.61-3.843.932-6.164.932v4.389c2.725 0 5.258-.378 7.575-1.165zm-6.228-6.345v2.195c1.383 0 2.728-.24 4.022-.719l-.763-2.058-.762-2.058a7.1 7.1 0 0 1-2.497.446zm3.259-.582.828 2.032a12.6 12.6 0 0 0 3.523-2.18l-1.44-1.656-1.44-1.656a8.2 8.2 0 0 1-2.298 1.428zm2.911-1.804 1.445 1.651a16.3 16.3 0 0 0 2.894-3.36l-1.836-1.202-1.835-1.202a12 12 0 0 1-2.113 2.461zm2.503-2.91 1.854 1.173a23.7 23.7 0 0 0 2.119-4.297l-2.052-.777-2.052-.776a19.3 19.3 0 0 1-1.723 3.502zm1.921-3.9 2.059.758c.6-1.627 1.041-3.38 1.332-5.253l-2.169-.337-2.168-.338c-.252 1.62-.626 3.088-1.113 4.41zm1.222-4.832 2.161.384q.501-2.832.5-5.973h-4.389c0 1.865-.147 3.599-.432 5.204zm.466-5.589h2.195c0-2.895-.683-5.466-2.282-7.477l-1.717 1.365-1.718 1.366c.807 1.015 1.328 2.52 1.328 4.746zm-1.804-6.112 1.755-1.316c-1.664-2.219-4.131-3.207-6.994-3.207v4.389c1.793 0 2.818.565 3.483 1.451zm-5.239-2.328v-2.195a10.8 10.8 0 0 0-4.299.876l.864 2.017.865 2.017a6.4 6.4 0 0 1 2.57-.52zm-3.435.698-.864-2.017c-1.35.579-2.577 1.412-3.681 2.47l1.518 1.585 1.519 1.584c.758-.727 1.549-1.252 2.373-1.605zm-3.027 2.038-1.517-1.586c-1.034.99-1.975 2.156-2.83 3.481l1.844 1.19 1.844 1.19c.698-1.081 1.426-1.971 2.176-2.69zm-2.503 3.085-1.87-1.147a25 25 0 0 0-2.11 4.405l2.06.758 2.058.76a20.5 20.5 0 0 1 1.733-3.63zm-1.92 4.016-2.071-.727c-.552 1.57-.97 3.25-1.26 5.032l2.166.352 2.166.353q.38-2.33 1.069-4.282zm-1.165 4.657-2.165-.36a33.3 33.3 0 0 0-.437 5.483h4.389q0-2.51.378-4.762zm-.407 5.123H95.7c0 2.031.301 3.892.99 5.514l2.02-.857 2.02-.857c-.399-.94-.641-2.184-.641-3.8zm.815 4.657-1.987.931c.75 1.601 1.865 2.895 3.351 3.797l1.139-1.876 1.138-1.876c-.687-.417-1.241-1.025-1.654-1.908zm2.503 2.852-1.089 1.905c1.481.847 3.173 1.22 4.989 1.22v-4.388c-1.212 0-2.12-.247-2.812-.642zM129.588 62l-2.147-.454-.56 2.648h2.707zm8.79-41.562v-2.195h-1.779l-.368 1.74zm10.129 0 2.093-.66-.485-1.535h-1.608zm9.663 30.618-2.093.66.484 1.535h1.609zm.233 0v2.195h1.821l.335-1.79zm.349-2.27-2.162-.376-.008.046-.006.046zm.466-2.852-2.158-.4-.006.033-.005.033zm.582-3.085-2.155-.415zm.524-2.736-2.147-.457-.005.023-.004.023zm4.191-19.675v-2.195h-1.776l-.371 1.738zm7.8 0 2.147.454.56-2.649h-2.707zM163.525 62v2.194h1.779l.368-1.74zm-9.721 0-2.089.673.491 1.521h1.598zm-10.129-31.434 2.089-.673-.49-1.521h-1.599zm-.291 0v-2.194h-1.859l-.305 1.834zm-.233 1.688 2.175.297.001-.013zm-.465 3.086-2.167-.35-.005.034-.005.035zm-.582 3.725-2.159-.392-.005.026-.004.027zm-.582 3.376 2.147.454.004-.02.004-.02zM137.389 62v2.194h1.779l.368-1.74zm-7.801 0 2.147.454 8.79-41.562-2.147-.454-2.147-.454-8.79 41.562zm8.79-41.562v2.194h10.129v-4.389h-10.129zm10.129 0-2.093.66 9.663 30.619 2.093-.66 2.092-.661-9.662-30.619zm9.663 30.618v2.195h.233v-4.389h-.233zm.233 0 2.156.405q.19-1.012.369-2.391l-2.176-.284-2.176-.284a41 41 0 0 1-.33 2.15zm.349-2.27 2.162.376q.236-1.362.473-2.894l-2.169-.334-2.169-.334a156 156 0 0 1-.459 2.81zm.466-2.852 2.157.4q.29-1.566.58-3.07l-2.155-.415-2.155-.415q-.292 1.521-.585 3.1zm.582-3.085 2.155.414q.291-1.515.524-2.74l-2.155-.41-2.156-.41-.523 2.731zm.524-2.736 2.146.457 4.191-19.675-2.146-.457-2.147-.457-4.191 19.675zm4.191-19.675v2.194h7.8v-4.389h-7.8zm7.8 0-2.147-.454-8.79 41.562 2.147.454 2.147.454 8.79-41.562zM163.525 62v-2.194h-9.721v4.388h9.721zm-9.721 0 2.089-.673-10.129-31.434-2.089.673-2.088.673 10.128 31.434zm-10.129-31.434v-2.194h-.291v4.389h.291zm-.291 0-2.164-.36c-.047.28-.13.885-.245 1.765l2.176.283 2.176.284a71 71 0 0 1 .222-1.61zm-.233 1.688-2.174-.296q-.169 1.244-.458 3.032l2.167.35 2.166.349q.294-1.822.474-3.138zm-.465 3.086-2.177-.281a72 72 0 0 1-.564 3.614l2.159.392 2.159.393q.359-1.973.599-3.838zm-.582 3.725-2.168-.339a97 97 0 0 1-.569 3.3l2.155.415 2.155.415q.299-1.56.595-3.452zm-.582 3.376-2.147-.453-4.133 19.558 2.147.454 2.147.454 4.133-19.559zM137.389 62v-2.194h-7.801v4.388h7.801zm40.158-.116L176.97 64l.012.003zm-4.366-1.863h-2.194v1.196l1.005.648zm0-7.8 1.033-1.937-3.227-1.72v3.657zm3.376 1.63-.864 2.017.013.005.012.005zm3.377 1.105-.515 2.134.035.008.035.008zm6.112.117.41 2.156.049-.01.049-.011zm2.095-.873-1.163-1.861-.027.017-.027.018zm1.456-1.397 1.846 1.186.018-.028.017-.03zm-.117-4.773 1.899-1.1zm-1.746-2.038 1.413-1.678zm-2.62-1.98-1.297 1.77.024.018.024.017zm-3.376-2.851-1.523 1.58zm-2.677-3.668-1.974.96.005.011.006.01zm-.059-10.07 2.012.877.004-.01.004-.009zm2.853-4.017-1.449-1.648-.013.011-.012.011zm4.54-2.62.735 2.069zm11.875-.232-.543 2.126zm5.297 2.096 1.99.925.868-1.866-1.807-.986zm-3.085 6.636-.939 1.983 1.997.946.932-2.004zm-4.249-1.572-.562 2.121.008.002.007.002zm-6.112-.175.654 2.095.038-.012.038-.013zm-1.689.932 1.405 1.686.007-.006.006-.005zm-1.106 1.455 1.989.928zm.175 4.424-1.918 1.066.022.04.024.038zm1.746 1.98-1.413 1.678.047.04.05.037zm2.794 1.978-1.232 1.816.018.012.019.012zm3.842 3.26-1.658 1.437.012.014.012.014zm2.271 3.726-2.058.764.004.01.004.01zm-.466 10.128 1.953 1 .005-.009.005-.01zm-3.376 4.017 1.293 1.772.016-.01.015-.012zm-5.006 2.386.573 2.118.015-.003.014-.005zm-5.996.757v-2.194c-1.934 0-3.662-.215-5.198-.625l-.565 2.12-.565 2.12c1.957.523 4.071.774 6.328.774zm-5.763-.698.577-2.117c-1.539-.42-2.777-.96-3.753-1.59l-1.19 1.844-1.189 1.844c1.43.923 3.102 1.624 4.978 2.136zm-4.366-1.863h2.195v-7.8h-4.389v7.8zm0-7.8-1.032 1.936a46 46 0 0 0 3.544 1.71l.864-2.017.865-2.017a42 42 0 0 1-3.208-1.549zm3.376 1.63-.839 2.027q1.839.761 3.701 1.212l.515-2.134.515-2.133a20.6 20.6 0 0 1-3.052-1zm3.377 1.105-.445 2.15a19 19 0 0 0 3.879.394v-4.389q-1.524 0-2.99-.303zm3.434.35V57.5c1.086 0 2.118-.087 3.088-.271l-.41-2.156-.411-2.156c-.659.126-1.412.194-2.267.194zm2.678-.233.508 2.135c1.019-.243 1.968-.625 2.805-1.182l-1.218-1.826-1.217-1.826c-.328.218-.776.419-1.386.564zm2.095-.873 1.163 1.86c.859-.536 1.592-1.22 2.139-2.07l-1.846-1.187-1.846-1.187c-.152.237-.39.483-.773.723zm1.456-1.397 1.881 1.129c.582-.97.837-2.05.837-3.167h-4.389c0 .437-.094.714-.211.909zm.524-2.038h2.194c0-1.368-.269-2.684-.936-3.835l-1.899 1.1-1.899 1.099c.187.323.345.832.345 1.636zm-.641-2.736 1.899-1.099c-.569-.984-1.325-1.853-2.232-2.617l-1.413 1.68-1.414 1.678c.569.478.977.967 1.261 1.458zm-1.746-2.037 1.413-1.678a37 37 0 0 0-2.783-2.105l-1.25 1.804-1.249 1.804q1.449 1.004 2.455 1.854zm-2.62-1.98 1.298-1.769a31 31 0 0 1-3.151-2.662l-1.523 1.58-1.523 1.58a35 35 0 0 0 3.602 3.042zm-3.376-2.851 1.523-1.58a11.2 11.2 0 0 1-2.238-3.069l-1.962.981-1.963.982a15.5 15.5 0 0 0 3.117 4.265zm-2.677-3.668 1.973-.96c-.528-1.085-.827-2.414-.827-4.046h-4.389c0 2.172.4 4.18 1.269 5.966zm-1.048-5.006h2.194c0-1.6.282-2.984.807-4.187l-2.012-.877-2.011-.877c-.795 1.823-1.173 3.815-1.173 5.941zm.989-5.064 2.02.858a9.1 9.1 0 0 1 2.306-3.248l-1.473-1.627-1.474-1.626a13.5 13.5 0 0 0-3.398 4.785zm2.853-4.017 1.448 1.649c1.054-.926 2.32-1.665 3.827-2.2l-.735-2.068-.735-2.068c-1.986.706-3.747 1.714-5.254 3.039zm4.54-2.62.735 2.069c1.474-.524 3.179-.805 5.144-.805v-4.389c-2.381 0-4.595.34-6.614 1.058zm5.879-.93v2.194c2.018 0 3.831.216 5.453.63l.543-2.126.543-2.126c-2.026-.517-4.21-.767-6.539-.767zm5.996.698-.543 2.126a20.6 20.6 0 0 1 4.789 1.896l1.051-1.926 1.051-1.927a25 25 0 0 0-5.805-2.295zm5.297 2.096-1.99-.925-3.085 6.635 1.99.926 1.99.925 3.085-6.636zm-3.085 6.636.939-1.984c-1.58-.748-3.129-1.324-4.642-1.713l-.546 2.125-.547 2.125c1.203.31 2.488.782 3.857 1.43zm-4.249-1.572.561-2.121a17.6 17.6 0 0 0-4.52-.597v4.388q1.685-.001 3.397.451zm-3.959-.524v-2.194a8.6 8.6 0 0 0-2.884.474l.731 2.07.73 2.069a4.2 4.2 0 0 1 1.423-.225zm-2.153.35-.655-2.095a7 7 0 0 0-2.451 1.35l1.417 1.676 1.418 1.675c.284-.24.588-.407.925-.512zm-1.689.93-1.404-1.685a6.3 6.3 0 0 0-1.69 2.213l1.988.928 1.989.928a1.95 1.95 0 0 1 .522-.697zm-1.106 1.456-1.988-.928a6.7 6.7 0 0 0-.613 2.849h4.388c0-.406.077-.726.202-.993zm-.407 1.92h-2.194c0 1.265.254 2.482.858 3.57l1.918-1.066 1.918-1.066c-.172-.31-.306-.76-.306-1.437zm.582 2.504-1.872 1.144c.569.933 1.318 1.767 2.205 2.514l1.413-1.679 1.414-1.678c-.588-.495-1.003-.98-1.287-1.445zm1.746 1.98-1.316 1.755a75 75 0 0 0 2.878 2.04l1.232-1.817 1.233-1.815a71 71 0 0 1-2.71-1.92zm2.794 1.978-1.195 1.84c1.413.919 2.528 1.876 3.379 2.857l1.658-1.437 1.659-1.437c-1.168-1.347-2.614-2.563-4.305-3.663zm3.842 3.26-1.634 1.465a9.4 9.4 0 0 1 1.847 3.025l2.058-.764 2.057-.764a13.8 13.8 0 0 0-2.694-4.427zm2.271 3.726-2.05.783c.395 1.034.612 2.238.612 3.64h4.389c0-1.857-.288-3.602-.902-5.207zm.756 4.424h-2.194c0 1.897-.355 3.45-.991 4.723l1.963.981 1.963.982c.994-1.988 1.454-4.238 1.454-6.686zm-1.222 5.704-1.953-1a9.4 9.4 0 0 1-2.748 3.267l1.325 1.75 1.324 1.75a13.8 13.8 0 0 0 4.005-4.766zm-3.376 4.017-1.294-1.773c-1.205.88-2.634 1.57-4.315 2.05l.603 2.11.602 2.11c2.122-.607 4.031-1.508 5.697-2.725zm-5.006 2.386-.574-2.118c-1.657.449-3.461.68-5.422.68v4.39c2.308 0 4.501-.273 6.569-.834z" mask="url(#b)"/></svg>